<svg xmlns="http://www.w3.org/2000/svg" xmlns:xlink="http://www.w3.org/1999/xlink" id="Calque_1" x="0" y="0" version="1.1" viewBox="0 0 128 128" xml:space="preserve" style="enable-background:new 0 0 128 128"><style type="text/css">.st0{fill:#fff}.st2{fill:#e60f05}</style><path d="M8.2,0h111.6c4.5,0,8.2,4,8.2,8.9v110.2c0,4.9-3.7,8.9-8.2,8.9H8.2c-4.5,0-8.2-4-8.2-8.9V8.9C0,4,3.7,0,8.2,0z" class="st2"/><g><path d="M90.4,81.8c-1-1-2.4-1.7-3.8-2c-1.4-0.3-2.9-0.1-4.3,0.4C81,80.8,79.8,81.7,79,83c-0.8,1.2-1.3,2.7-1.3,4.1 c0,1,0.2,1.9,0.6,2.8c0.4,0.9,0.9,1.7,1.6,2.4c0.7,0.7,1.5,1.2,2.4,1.6c0.9,0.4,1.9,0.6,2.8,0.6c1.5,0,2.9-0.4,4.1-1.3 c1.2-0.8,2.2-2,2.7-3.3c0.6-1.4,0.7-2.8,0.4-4.3C92.2,84.2,91.5,82.9,90.4,81.8z M85.2,90.7c-2,0-3.6-1.7-3.6-3.6 c0-2,1.7-3.6,3.6-3.6c2,0,3.7,1.7,3.7,3.6C88.9,89.1,87.1,90.7,85.2,90.7z" class="st0"/><path d="M103.5,77.5h-2.1c-2,0-2.9-0.9-3.9-1.8c-1.6-1.7-3.5-3.2-5.6-4.1c-2.1-0.9-4.5-1.4-6.8-1.4l-60-0.1 c-0.2,0-0.4,0.1-0.6,0.2c-0.2,0.1-0.3,0.2-0.5,0.3c-0.1,0.1-0.2,0.3-0.3,0.5c-0.1,0.2-0.2,0.4-0.2,0.6v2.8v7.2 c0,1.1-0.9,0.7-0.9,2.4V85c0,1.2,0.7,1.8,1.7,1.8h2c0.3,0,0.9-0.2,0.9-0.9c0-6.1,5-11.1,10.9-11.1c5.8,0,11.1,4.7,11.1,11.1 c0,0.6,0.4,0.9,0.9,0.9h22.9c0.6,0,0.9-0.4,0.9-0.9c0-5.8,4.6-11.1,11.1-11.1c6.1,0,11,5,11,11.1c0,0.4,0.2,0.9,0.9,0.9h6.5 c1,0,1.8-0.9,1.8-1.9v-5.5C105.3,78.2,104.7,77.5,103.5,77.5z" class="st0"/><path d="M43.6,81.8c-1-1-2.4-1.7-3.8-2c-1.4-0.3-2.9-0.1-4.3,0.4c-1.4,0.6-2.5,1.5-3.3,2.7c-0.8,1.2-1.3,2.7-1.3,4.1 c0,1,0.2,1.9,0.6,2.8c0.4,0.9,0.9,1.7,1.6,2.4c0.7,0.7,1.5,1.2,2.4,1.6c0.9,0.4,1.9,0.6,2.8,0.6c1.5,0,2.9-0.4,4.1-1.3 c1.2-0.8,2.2-2,2.7-3.3c0.6-1.4,0.7-2.8,0.4-4.3C45.3,84.2,44.6,82.9,43.6,81.8z M38.3,90.7c-2,0-3.6-1.7-3.6-3.6 c0-2,1.7-3.6,3.6-3.6c2,0,3.7,1.7,3.7,3.6C42,89.1,40.3,90.7,38.3,90.7z" class="st0"/><path d="M24,64.6c0.1,0.1,0.3,0.3,0.5,0.3c0.2,0.1,0.4,0.1,0.6,0.1h60c5.2-0.1,10.3,2,14.1,5.5 c0.6,0.6,1.4,1.8,2.5,1.8h1.2c0.6,0,0.8-0.3,0.8-0.9v-8.5c0-12-7.3-21.6-19.7-26.3c-12.9-5.1-43.5-3.2-55.8,0.1 c-2,0.5-4.7,1.5-4.7,5.2v19.7l0.1,1.9C23.6,63.9,23.7,64.3,24,64.6z M73.8,44c0-0.6,0.2-0.9,0.9-0.9h3.8c9.2,0,15.5,6.3,19,15.6 c0.2,0.5,0.1,1.3-0.9,1.3H74.7c-0.6,0-0.9-0.6-0.9-0.9V44z M51.4,44c0-0.1,0-0.3,0.1-0.4c0-0.1,0.1-0.2,0.2-0.3 c0.1-0.1,0.2-0.2,0.3-0.2c0.1,0,0.2-0.1,0.4-0.1h16.2c0.6,0,1,0.4,1,0.9v14.8c0,0.5-0.4,1-1,1H52.3c-0.5,0-0.9-0.2-0.9-1V44z M28.8,44c0-0.2,0-0.9,0.9-0.9h16.6c0.6,0,0.9,0.4,0.9,0.9v15c0,0.3-0.2,0.9-0.9,0.9H29.6c-0.7,0-0.9-0.6-0.9-0.9V44z" class="st0"/></g></svg>