<svg xmlns="http://www.w3.org/2000/svg" xmlns:xlink="http://www.w3.org/1999/xlink" viewBox="0 0 900 430"><defs><style>.a,.ac{fill:#4b4b4b;}.b,.n,.o{fill:#5abd80;}.c{fill:#66d38d;}.d{fill:#50b5c9;}.e{fill:#262626;}.f{fill:#333;}.g{fill:#969696;}.h{fill:#eae9e9;}.i{fill:#c2c2c2;}.j{fill:#d7d7d7;stroke:#e8e8e8;}.aa,.ab,.ac,.ad,.j,.l,.m,.n,.o,.p,.q{stroke-miterlimit:10;}.k,.p,.s{fill:#fff;}.ab,.l,.w{fill:#ed2627;}.l,.m,.n{stroke:#f1e5ce;}.l,.m,.n,.p,.q{stroke-width:0.5px;}.m,.t{fill:#fec75e;}.o,.p,.q{stroke:#eae9e9;}.o{stroke-width:0.8px;}.ad,.q{fill:none;}.r{fill:#eceaff;}.s{opacity:0.24;}.u{fill:#fedd9e;}.v{fill:#ce9851;}.x{fill:#72cee7;}.y{fill:#4baabd;}.z{fill:#3e8a99;}.aa,.af{fill:#e8f4ee;}.aa{stroke:#4b4b4b;}.ab,.ac{stroke:#3e8a99;stroke-width:0.25px;}.ad{stroke:#5abd80;stroke-width:2px;}.ae{fill:#e9f6fc;}</style><symbol id="b" viewBox="0 0 21.16 17.82"><polygon class="h" points="0 0 0.16 5.61 21.16 17.82 21.16 12.31 0 0"/><polygon class="b" points="0.49 0.87 0.64 5.25 15.38 13.77 15.38 9.47 0.49 0.87"/><polygon class="t" points="17.45 10.74 17.45 15.04 16.07 14.25 16.07 9.95 17.45 10.74"/><polygon class="w" points="19.56 12.02 19.56 16.31 18.18 15.52 18.18 11.22 19.56 12.02"/></symbol><symbol id="d" viewBox="0 0 6.67 7.71"><polygon class="t" points="0 0 0 3.85 6.67 7.71 6.67 3.85 0 0"/><polygon class="u" points="0 0.52 6.67 4.37 6.67 5.14 0 1.3 0 0.52"/><polygon class="v" points="0 3.43 6.67 7.29 6.67 7.43 0 3.58 0 3.43"/></symbol><symbol id="i" viewBox="0 0 8.15 5.95"><polygon class="a" points="0 0 0.06 1.73 5.88 5.09 5.88 3.39 0 0"/><ellipse class="b" cx="7.29" cy="4.96" rx="0.64" ry="1.14" transform="translate(-1.52 5.38) rotate(-36.95)"/><ellipse class="c" cx="7.29" cy="4.96" rx="0.43" ry="0.76" transform="translate(-1.52 5.38) rotate(-36.95)"/></symbol><symbol id="h" viewBox="0 0 10.6 18.87"><polygon class="d" points="0 0 10.46 6.04 10.6 18.87 0 12.75 0 0"/><use width="8.15" height="5.95" transform="translate(1.2 3.01) scale(1 1.05)" xlink:href="#i"/><use width="8.15" height="5.95" transform="translate(1.2 9.27)" xlink:href="#i"/><use width="8.15" height="5.95" transform="translate(1.2 6.21)" xlink:href="#i"/></symbol><symbol id="a" viewBox="0 0 231.21 171.61"><polygon class="x" points="0.21 57.3 132.21 133.51 132.21 171.61 0.21 95.4 0.21 57.3"/><polygon class="y" points="0 57.16 99 0 231 76.21 132 133.37 0 57.16"/><polygon class="z" points="231.21 114.46 231.21 76.35 132.21 133.51 132.21 171.61 231.21 114.46"/><polygon class="aa" points="127.85 135.22 127.85 152.81 98.5 135.87 98.5 118.92 127.85 135.22"/><polygon class="d" points="21.96 74.87 68.91 101.98 68.91 129.09 21.96 101.98 21.96 74.87"/><use width="21.16" height="17.82" transform="translate(24.28 88.22)" xlink:href="#b"/><use width="21.16" height="17.82" transform="translate(24.29 94.68)" xlink:href="#b"/><polygon class="a" points="17.54 73.14 17.54 100.04 5.89 93.32 5.86 66.39 17.54 73.14"/><polygon class="a" points="8.36 70.8 8.36 74.66 15.03 78.51 15.03 74.66 8.36 70.8"/><use width="6.67" height="7.71" transform="translate(8.36 71.32)" xlink:href="#d"/><use width="6.67" height="7.71" transform="translate(8.36 75.92)" xlink:href="#d"/><use width="6.67" height="7.71" transform="translate(8.36 83.62)" xlink:href="#d"/><use width="6.67" height="7.71" transform="translate(8.36 88.22)" xlink:href="#d"/><ellipse class="ab" cx="109.05" cy="150.34" rx="1.16" ry="2.05" transform="translate(-68.47 95.74) rotate(-36.95)"/><use width="10.6" height="18.87" transform="translate(71.49 103.47)" xlink:href="#h"/><use width="10.6" height="18.87" transform="translate(83.83 110.64)" xlink:href="#h"/><use width="10.6" height="18.87" transform="translate(71.49 118.09)" xlink:href="#h"/><use width="10.6" height="18.87" transform="translate(83.83 125.27)" xlink:href="#h"/><ellipse class="ac" cx="51.2" cy="112.58" rx="1.62" ry="2.87" transform="translate(-57.39 53.39) rotate(-36.95)"/><ellipse class="ac" cx="56.95" cy="115.9" rx="1.62" ry="2.87" transform="translate(-58.23 57.51) rotate(-36.95)"/><ellipse class="ac" cx="62.69" cy="118.92" rx="1.62" ry="2.87" transform="translate(-58.9 61.57) rotate(-36.95)"/></symbol><symbol id="y" viewBox="0 0 51.86 32.2"><polygon class="e" points="0 10.73 18.86 0 51.86 19.05 33 29.79 0 10.73"/><polygon class="f" points="33 32.2 33 29.79 51.86 19.05 51.86 21.47 33 32.2"/><polygon class="a" points="33 32.2 0 13.15 0 10.73 33 29.79 33 32.2"/></symbol><symbol id="ag" viewBox="0 0 66 40.52"><polygon class="e" points="0 19.05 33 0 66 19.05 33 38.1 0 19.05"/><polygon class="f" points="33 40.52 33 38.1 66 19.05 66 21.47 33 40.52"/><polygon class="a" points="33 40.52 0 21.47 0 19.05 33 38.1 33 40.52"/></symbol><symbol id="x" viewBox="0 0 299.9 323.56"><path class="g" d="M162.85,319.17v4.39c3,.13,127.44-69.8,127.44-69.8s2.27-5.84,1.31-8.44l-1.31,2.3L167.4,318.14Z"/><path class="h" d="M1.11,227.18l-1-2.06a11.09,11.09,0,0,0,1,5.88s157.36,93.54,161.74,92.56v-4.39L158.14,318Z"/><path class="i" d="M158.14,318l-155.93-90c-2.67-1.53-2.87-4-.44-5.4l124.64-70.32a10.19,10.19,0,0,1,9.27.18l153.78,90c2.67,1.54,2.87,4,.44,5.41L167.4,318.14A10.16,10.16,0,0,1,158.14,318Z"/><path class="j" d="M185.15,288.65,50.46,210.88c-2.3-1.32-2.47-3.43-.38-4.67l79-44.18a8.83,8.83,0,0,1,8,.16L269.89,240c2.31,1.32,2.48,3.42.39,4.67L193.15,288.8A8.79,8.79,0,0,1,185.15,288.65Z"/><use width="51.86" height="32.21" transform="translate(151.87 181.68) scale(0.33)" xlink:href="#y"/><use width="51.86" height="32.21" transform="translate(165.22 189.33) scale(0.33)" xlink:href="#y"/><use width="51.86" height="32.21" transform="translate(178.57 196.98) scale(0.33)" xlink:href="#y"/><use width="51.86" height="32.21" transform="translate(191.92 204.63) scale(0.33)" xlink:href="#y"/><use width="51.86" height="32.21" transform="translate(205.27 212.27) scale(0.33)" xlink:href="#y"/><use width="51.86" height="32.21" transform="translate(218.62 219.92) scale(0.33)" xlink:href="#y"/><use width="51.86" height="32.21" transform="translate(231.77 227.46) scale(0.33)" xlink:href="#y"/><use width="51.86" height="32.21" transform="translate(245.09 235.09) scale(0.33)" xlink:href="#y"/><use width="66" height="40.52" transform="translate(138.82 186.89) scale(0.33)" xlink:href="#ag"/><use width="66" height="40.52" transform="translate(152.14 194.53) scale(0.33)" xlink:href="#ag"/><use width="66" height="40.52" transform="translate(165.46 202.16) scale(0.33)" xlink:href="#ag"/><use width="66" height="40.52" transform="translate(178.79 209.79) scale(0.33)" xlink:href="#ag"/><use width="66" height="40.52" transform="translate(192.11 217.42) scale(0.33)" xlink:href="#ag"/><use width="66" height="40.52" transform="translate(205.43 225.05) scale(0.33)" xlink:href="#ag"/><polygon class="e" points="218.75 238.93 229.56 232.69 253.69 246.56 242.88 252.8 218.75 238.93"/><polygon class="f" points="242.88 253.59 242.88 252.8 253.69 246.56 253.69 247.35 242.88 253.59"/><polygon class="a" points="242.88 253.59 218.75 239.72 218.75 238.93 242.88 252.8 242.88 253.59"/><use width="66" height="40.52" transform="translate(125.6 194.53) scale(0.33)" xlink:href="#ag"/><use width="66" height="40.52" transform="translate(138.92 202.16) scale(0.33)" xlink:href="#ag"/><use width="66" height="40.52" transform="translate(152.24 209.79) scale(0.33)" xlink:href="#ag"/><use width="66" height="40.52" transform="translate(165.57 217.42) scale(0.33)" xlink:href="#ag"/><use width="66" height="40.52" transform="translate(178.89 225.05) scale(0.33)" xlink:href="#ag"/><use width="66" height="40.52" transform="translate(192.21 232.69) scale(0.33)" xlink:href="#ag"/><use width="66" height="40.52" transform="translate(205.53 240.32) scale(0.33)" xlink:href="#ag"/><polygon class="e" points="205.63 261.82 229.66 247.95 240.47 254.19 216.44 268.06 205.63 261.82"/><polygon class="f" points="216.44 268.86 216.44 268.06 240.47 254.19 240.47 254.98 216.44 268.86"/><polygon class="a" points="216.44 268.86 205.63 262.62 205.63 261.82 216.44 268.06 216.44 268.86"/><use width="66" height="40.52" transform="translate(112.38 202.16) scale(0.33)" xlink:href="#ag"/><use width="66" height="40.52" transform="translate(125.7 209.79) scale(0.33)" xlink:href="#ag"/><use width="66" height="40.52" transform="translate(139.02 217.42) scale(0.33)" xlink:href="#ag"/><use width="66" height="40.52" transform="translate(152.35 225.05) scale(0.33)" xlink:href="#ag"/><use width="66" height="40.52" transform="translate(165.67 232.69) scale(0.33)" xlink:href="#ag"/><use width="66" height="40.52" transform="translate(178.99 240.32) scale(0.33)" xlink:href="#ag"/><use width="66" height="40.52" transform="translate(192.31 247.95) scale(0.33)" xlink:href="#ag"/><use width="66" height="40.52" transform="translate(99.16 209.79) scale(0.33)" xlink:href="#ag"/><use width="66" height="40.52" transform="translate(112.48 217.42) scale(0.33)" xlink:href="#ag"/><use width="66" height="40.52" transform="translate(125.81 225.05) scale(0.33)" xlink:href="#ag"/><use width="66" height="40.52" transform="translate(139.13 232.69) scale(0.33)" xlink:href="#ag"/><use width="66" height="40.52" transform="translate(152.45 240.32) scale(0.33)" xlink:href="#ag"/><polygon class="e" points="165.77 254.19 176.58 247.95 214.03 269.46 203.22 275.7 165.77 254.19"/><polygon class="f" points="203.22 276.49 203.22 275.7 214.03 269.46 214.03 270.25 203.22 276.49"/><polygon class="a" points="203.22 276.49 165.77 254.98 165.77 254.19 203.22 275.7 203.22 276.49"/><use width="66" height="40.52" transform="translate(85.94 217.42) scale(0.33)" xlink:href="#ag"/><use width="51.86" height="32.21" transform="translate(138.73 174.04) scale(0.33)" xlink:href="#y"/><use width="66" height="40.52" transform="translate(125.7 179.26) scale(0.33)" xlink:href="#ag"/><use width="66" height="40.52" transform="translate(86.04 202.16) scale(0.33)" xlink:href="#ag"/><use width="66" height="40.52" transform="translate(72.82 209.79) scale(0.33)" xlink:href="#ag"/><use width="51.86" height="32.21" transform="translate(125.81 166.32) scale(0.33)" xlink:href="#y"/><use width="66" height="40.52" transform="translate(112.59 171.63) scale(0.33)" xlink:href="#ag"/><polygon class="e" points="99.16 185.5 109.97 179.26 134.1 193.13 123.29 199.38 99.16 185.5"/><polygon class="f" points="123.29 200.17 123.29 199.38 134.1 193.13 134.1 193.93 123.29 200.17"/><polygon class="a" points="123.29 200.17 99.16 186.29 99.16 185.5 123.29 199.38 123.29 200.17"/><polygon class="e" points="86.15 193.13 96.96 186.89 120.88 200.77 110.07 207.01 86.15 193.13"/><polygon class="f" points="110.07 207.8 110.07 207.01 120.88 200.77 120.88 201.56 110.07 207.8"/><polygon class="a" points="110.07 207.8 86.15 193.93 86.15 193.13 110.07 207.01 110.07 207.8"/><use width="66" height="40.52" transform="translate(72.93 194.53) scale(0.33)" xlink:href="#ag"/><use width="66" height="40.52" transform="translate(59.71 202.16) scale(0.33)" xlink:href="#ag"/><polygon class="e" points="99.26 231.3 110.07 225.06 160.85 254.19 150.04 260.43 99.26 231.3"/><polygon class="f" points="150.04 261.23 150.04 260.43 160.85 254.19 160.85 254.98 150.04 261.23"/><polygon class="a" points="150.04 261.23 99.26 232.09 99.26 231.3 150.04 260.43 150.04 261.23"/><use width="66" height="40.52" transform="translate(152.55 255.58) scale(0.33)" xlink:href="#ag"/><use width="66" height="40.52" transform="translate(165.87 263.22) scale(0.33)" xlink:href="#ag"/><use width="66" height="40.52" transform="translate(179.2 270.85) scale(0.33)" xlink:href="#ag"/><polygon class="j" points="92.04 241.84 128.44 262.85 104.18 276.86 67.78 255.85 92.04 241.84"/><path class="i" d="M296.81,91.38l-156-91c-1.83-1.06-3.43.17-3.56,2.74l-7.16,141.63c-.13,2.57,1.25,5.55,3.08,6.61l156,91c1.82,1.07,3.43-.17,3.56-2.74L299.89,98C300,95.42,298.63,92.45,296.81,91.38Z"/><path class="k" d="M285,233.55a1.92,1.92,0,0,1-.94-.29L139.36,148.88c-1.53-.89-2.73-3.5-2.62-5.69l6.55-127.93c.08-1.47.71-2.43,1.62-2.43a1.92,1.92,0,0,1,.94.29L290.51,97.51c1.53.89,2.73,3.49,2.62,5.69l-6.55,127.92c-.08,1.48-.71,2.43-1.62,2.43Z"/><path class="h" d="M144.91,13.33a1.42,1.42,0,0,1,.68.22L290.26,97.94c1.36.79,2.47,3.24,2.37,5.23L286.08,231.1c-.06,1.17-.51,2-1.12,2a1.42,1.42,0,0,1-.68-.22L139.61,148.45c-1.36-.8-2.47-3.24-2.37-5.23l6.55-127.93c.06-1.17.51-2,1.12-2m0-1c-1.16,0-2,1.1-2.12,2.91l-6.55,127.92c-.12,2.39,1.17,5.16,2.87,6.15l144.66,84.38a2.32,2.32,0,0,0,1.19.36c1.15,0,2-1.09,2.12-2.9l6.55-127.93c.12-2.39-1.17-5.16-2.87-6.15L146.1,12.69a2.42,2.42,0,0,0-1.19-.36Z"/><ellipse class="l" cx="149.78" cy="24.74" rx="1.6" ry="2.6" transform="translate(1.63 57.87) rotate(-21.99)"/><ellipse class="m" cx="155.13" cy="27.85" rx="1.6" ry="2.6" transform="translate(0.86 60.1) rotate(-21.99)"/><ellipse class="n" cx="160.47" cy="30.96" rx="1.6" ry="2.6" transform="translate(0.08 62.33) rotate(-21.99)"/><polygon class="o" points="278.12 218.05 144.92 141.36 150.44 47.73 281.46 123.93 278.12 218.05"/><polygon class="p" points="281.8 119.11 150.78 42.91 151.31 35.09 282.33 111.29 281.8 119.11"/><path class="q" d="M279.65,113.72a2.11,2.11,0,0,1-.14,1c-.35.8-1.22.8-1.95,0a3,3,0,0,1-.69-2.91.88.88,0,0,1,.94-.59"/><polygon class="h" points="277.93 112.14 278.54 111.23 277.51 110.26 277.93 112.14"/><path class="r" d="M155.78,42.11l-.08,1.19-.2-.11.21-3,.19.11-.09,1.32a.32.32,0,0,1,.21-.15.5.5,0,0,1,.31.08,1,1,0,0,1,.39.45,1.19,1.19,0,0,1,.1.6l-.09,1.28-.19-.11.09-1.24a.93.93,0,0,0-.08-.45.69.69,0,0,0-.3-.35.27.27,0,0,0-.32,0A.5.5,0,0,0,155.78,42.11Z"/><path class="r" d="M157.71,41.78l0,.62.4.23,0,.23-.39-.23-.09,1.18a.52.52,0,0,0,.24.51.34.34,0,0,0,.14,0v.21a.36.36,0,0,1-.2-.07.7.7,0,0,1-.28-.31.94.94,0,0,1-.08-.48l.08-1.21-.32-.19V42.1l.12.07c.15.08.23,0,.24-.16l0-.34Z"/><path class="r" d="M158.81,42.42l0,.62.4.23v.23l-.4-.23-.08,1.18a.49.49,0,0,0,.23.51.39.39,0,0,0,.14,0v.21a.32.32,0,0,1-.19-.07.67.67,0,0,1-.29-.31.94.94,0,0,1-.08-.48l.08-1.21-.32-.18v-.23l.12.07c.15.08.23,0,.24-.16l0-.34Z"/><path class="r" d="M159.57,46.36l-.19-.11.19-2.75.18.11,0,.39a.37.37,0,0,1,.21-.18.51.51,0,0,1,.38.07,1.22,1.22,0,0,1,.49.59,1.86,1.86,0,0,1,.13.84.88.88,0,0,1-.24.63.43.43,0,0,1-.53,0,1,1,0,0,1-.35-.34,1.59,1.59,0,0,1-.18-.4Zm1-.65a.7.7,0,0,0,.18-.5,1.44,1.44,0,0,0-.1-.66.88.88,0,0,0-.37-.46.31.31,0,0,0-.4,0,.72.72,0,0,0-.19.49,1.5,1.5,0,0,0,.11.67.91.91,0,0,0,.37.46A.31.31,0,0,0,160.56,45.71Z"/><path class="r" d="M161.17,45.94l.19,0a.88.88,0,0,0,.1.4.74.74,0,0,0,.29.29.31.31,0,0,0,.25.05.22.22,0,0,0,.12-.2.6.6,0,0,0-.24-.49l-.26-.22a.88.88,0,0,1-.33-.74.34.34,0,0,1,.18-.32.41.41,0,0,1,.38,0,1,1,0,0,1,.38.41,1.19,1.19,0,0,1,.13.44l-.18,0a.73.73,0,0,0-.08-.33.67.67,0,0,0-.27-.28.26.26,0,0,0-.23,0,.21.21,0,0,0-.12.19.54.54,0,0,0,.22.45l.25.22a1,1,0,0,1,.36.78.37.37,0,0,1-.17.32.38.38,0,0,1-.41,0,1,1,0,0,1-.41-.43A1.16,1.16,0,0,1,161.17,45.94Z"/><path class="r" d="M163,47.48a.11.11,0,0,1-.12,0,.3.3,0,0,1-.12-.13.29.29,0,0,1,0-.18.15.15,0,0,1,.06-.13.11.11,0,0,1,.12,0s.08.07.12.13a.29.29,0,0,1,0,.18C163,47.42,163,47.46,163,47.48Zm0-1.58a.36.36,0,0,1-.11-.13.39.39,0,0,1,0-.18c0-.07,0-.11.06-.13a.11.11,0,0,1,.12,0,.3.3,0,0,1,.12.13.39.39,0,0,1,0,.18c0,.06,0,.11-.06.13A.12.12,0,0,1,162.94,45.9Z"/><path class="r" d="M164.79,45.54l-1.31,2.29-.19-.11,1.31-2.29Z"/><path class="r" d="M166,46.24l-1.3,2.28-.19-.11,1.3-2.28Z"/><path class="r" d="M167,47.81l.2.12.35,1.93.52-1.42.2.11-.64,1.68-.21-.12-.35-1.94-.57,1.4-.21-.12-.38-2.27.22.13.3,1.9Z"/><path class="r" d="M169.45,49.25l.21.12L170,51.3l.52-1.43.21.12-.65,1.67-.2-.12-.35-1.93L169,51l-.21-.12-.37-2.27.21.12.3,1.91Z"/><path class="r" d="M171.92,50.69l.21.12.34,1.93.53-1.43.2.12-.65,1.67-.2-.12L172,51.05l-.57,1.4-.21-.12-.38-2.27.21.12.3,1.91Z"/><path class="r" d="M173.36,53.59a.3.3,0,0,1-.12-.13.46.46,0,0,1,0-.19.17.17,0,0,1,.06-.12s.08,0,.13,0a.31.31,0,0,1,.11.14.3.3,0,0,1,0,.18.15.15,0,0,1-.06.13S173.41,53.61,173.36,53.59Z"/><path class="r" d="M174.21,54.06,174,54l.21-3,.19.11Z"/><path class="r" d="M175.91,54.39l.17.18a.51.51,0,0,1-.27.3.52.52,0,0,1-.45-.08,1.25,1.25,0,0,1-.5-.58,1.71,1.71,0,0,1-.17-.9.84.84,0,0,1,.26-.62.43.43,0,0,1,.52,0,1.22,1.22,0,0,1,.51.58,1.8,1.8,0,0,1,.14.83.54.54,0,0,0,0,.08l-1.23-.71v0a1.29,1.29,0,0,0,.13.64.88.88,0,0,0,.37.43.4.4,0,0,0,.34.06A.4.4,0,0,0,175.91,54.39Zm-1-1.11,1,.59a1.24,1.24,0,0,0-.11-.54,1,1,0,0,0-.36-.41.34.34,0,0,0-.37,0A.51.51,0,0,0,174.91,53.28Z"/><path class="r" d="M177.43,53.89l.21.12.34,1.93.52-1.42.21.11-.65,1.68-.2-.12-.35-1.94-.57,1.4-.21-.12-.38-2.27.21.13.3,1.9Z"/><path class="r" d="M178.92,56.68a.9.9,0,0,1-.11-.47c0-.31.19-.42.51-.31l.41.16c.11,0,.17,0,.18-.1a.84.84,0,0,0-.08-.38.78.78,0,0,0-.28-.29.34.34,0,0,0-.31,0,.32.32,0,0,0-.15.26l-.18-.16a.41.41,0,0,1,.22-.34.5.5,0,0,1,.43.07,1.19,1.19,0,0,1,.43.46,1.24,1.24,0,0,1,.11.57l-.07,1c0,.11,0,.23,0,.35l-.18-.11a2,2,0,0,1,0-.35.32.32,0,0,1-.21.15.47.47,0,0,1-.35-.07A1,1,0,0,1,178.92,56.68Zm.09-.36a.69.69,0,0,0,.07.3.58.58,0,0,0,.24.25.37.37,0,0,0,.37,0,.48.48,0,0,0,.18-.39v-.24h-.08a.33.33,0,0,1-.13,0l-.34-.13C179.13,56,179,56.1,179,56.32Z"/><path class="r" d="M180.36,57.76l.19.05a1,1,0,0,0,.13.49.94.94,0,0,0,.32.36c.19.11.34.12.43,0a.64.64,0,0,0,.15-.46l0-.36a.31.31,0,0,1-.2.16.44.44,0,0,1-.35-.07,1.2,1.2,0,0,1-.47-.56,1.53,1.53,0,0,1-.15-.79.74.74,0,0,1,.24-.57.42.42,0,0,1,.51,0,.87.87,0,0,1,.33.3,1.22,1.22,0,0,1,.17.39l0-.35.19.11-.12,1.83a.91.91,0,0,1-.2.57c-.14.14-.34.14-.59,0a1.16,1.16,0,0,1-.45-.48A1.24,1.24,0,0,1,180.36,57.76Zm.38-.45a.92.92,0,0,0,.36.43.31.31,0,0,0,.39,0,.63.63,0,0,0,.17-.45,1.36,1.36,0,0,0-.1-.6.84.84,0,0,0-.36-.42c-.15-.09-.28-.1-.38,0a.55.55,0,0,0-.18.44A1.25,1.25,0,0,0,180.74,57.31Z"/><path class="r" d="M182.49,57.08a.48.48,0,0,1,.55,0,1.24,1.24,0,0,1,.52.6,1.78,1.78,0,0,1,.17.88.76.76,0,0,1-.27.62.5.5,0,0,1-.56,0,1.39,1.39,0,0,1-.51-.6,1.69,1.69,0,0,1-.17-.88A.76.76,0,0,1,182.49,57.08Zm0,1.43a.93.93,0,0,0,.38.44.35.35,0,0,0,.4,0,.6.6,0,0,0,.21-.5,1.39,1.39,0,0,0-.12-.7.93.93,0,0,0-.38-.44.35.35,0,0,0-.41,0,.64.64,0,0,0-.2.51A1.35,1.35,0,0,0,182.54,58.51Z"/><path class="r" d="M184.35,58.74l-.08,1.17-.2-.11.14-2,.19.11,0,.34c.12-.2.29-.23.53-.1a.94.94,0,0,1,.39.46,1.17,1.17,0,0,1,.1.59l-.09,1.29-.19-.12.09-1.24a1,1,0,0,0-.08-.45.66.66,0,0,0-.3-.34.27.27,0,0,0-.33,0A.51.51,0,0,0,184.35,58.74Z"/><path class="r" d="M186,60.91a.36.36,0,0,1-.11-.13.39.39,0,0,1,0-.18.15.15,0,0,1,.06-.13.11.11,0,0,1,.12,0,.3.3,0,0,1,.12.13.46.46,0,0,1,0,.19c0,.06,0,.1-.06.12A.12.12,0,0,1,186,60.91Z"/><path class="r" d="M187.62,60.16a.84.84,0,0,0-.32-.35.35.35,0,0,0-.41,0,.69.69,0,0,0-.21.51,1.43,1.43,0,0,0,.13.68.89.89,0,0,0,.37.45.35.35,0,0,0,.36,0,.39.39,0,0,0,.18-.23l.16.19a.46.46,0,0,1-.25.29.49.49,0,0,1-.46-.06,1.32,1.32,0,0,1-.52-.61,1.62,1.62,0,0,1-.16-.87.77.77,0,0,1,.26-.62.5.5,0,0,1,.56,0,1.21,1.21,0,0,1,.43.44,1.42,1.42,0,0,1,.18.56h-.17A1.31,1.31,0,0,0,187.62,60.16Z"/><path class="r" d="M188.42,60.53a.5.5,0,0,1,.56,0,1.28,1.28,0,0,1,.51.6,1.68,1.68,0,0,1,.17.88.76.76,0,0,1-.27.62.5.5,0,0,1-.56,0,1.39,1.39,0,0,1-.51-.6,1.8,1.8,0,0,1-.17-.88A.76.76,0,0,1,188.42,60.53Zm.05,1.43a.93.93,0,0,0,.38.44.36.36,0,0,0,.41,0,.67.67,0,0,0,.21-.5,1.51,1.51,0,0,0-.13-.7.92.92,0,0,0-.38-.44.33.33,0,0,0-.4,0,.61.61,0,0,0-.21.51A1.35,1.35,0,0,0,188.47,62Z"/><path class="r" d="M190.2,63.36l-.19-.11.13-2,.19.11,0,.33a.27.27,0,0,1,.2-.16.42.42,0,0,1,.31.07.86.86,0,0,1,.3.3,1,1,0,0,1,.15.42c.12-.24.31-.28.56-.13a.9.9,0,0,1,.37.4,1.22,1.22,0,0,1,.11.62l-.09,1.3-.19-.11.09-1.27a1,1,0,0,0-.08-.44.67.67,0,0,0-.28-.32.27.27,0,0,0-.32,0,.48.48,0,0,0-.15.35l-.08,1.2-.19-.11.09-1.27a.93.93,0,0,0-.08-.44.73.73,0,0,0-.28-.32.27.27,0,0,0-.32,0,.44.44,0,0,0-.15.35Z"/><polygon class="s" points="176.68 169.09 287.76 123.19 247.8 165.59 243.54 166.32 176.68 169.09"/></symbol></defs><title>websocket_connect</title><line class="ad" x1="295.28" y1="308.37" x2="402.99" y2="172.96"/><line class="ad" x1="164.1" y1="141.2" x2="351.54" y2="118.8"/><line class="ad" x1="731.3" y1="111.86" x2="533.57" y2="109.82"/><circle class="ae" cx="442.7" cy="102.43" r="92.09"/><path class="k" d="M423.51,39a4,4,0,0,0-4-4l-.33,0a5,5,0,0,0-8.58-1.37,2,2,0,0,0-1.1-.33,2,2,0,0,0-2,1.64h0a4,4,0,0,0-.46,8l12.86,0A4,4,0,0,0,423.51,39Z"/><path class="k" d="M511.23,63.22a7,7,0,0,0-7-7l-.57,0a8.84,8.84,0,0,0-15.19-2.42,3.52,3.52,0,0,0-1.95-.58A3.58,3.58,0,0,0,483,56.14h-.07a7.09,7.09,0,0,0-.82,14.13l22.77-.05A7,7,0,0,0,511.23,63.22Z"/><path class="x" d="M526,108.48l.13-1.58c1.74-.81,3.45-1.67,5.18-2.58,1.65,1.05,3.34,2.16,5,3.33l-.14,1.77c-1.68-1.17-3.33-2.29-5.08-3.35C529.39,106.92,527.66,107.73,526,108.48Z"/><path class="x" d="M525.31,114.69l.2-1.57c1.79-.68,3.64-1.4,5.4-2.18,1.61,1.17,3.12,2.4,4.67,3.68l-.23,1.77c-1.61-1.3-3.22-2.55-4.85-3.73C528.77,113.39,527,114.06,525.31,114.69Z"/><path class="x" d="M524.15,120.83l.37-1.55c1.82-.54,3.66-1.13,5.5-1.77,1.48,1.28,3,2.63,4.42,4l-.41,1.73c-1.48-1.41-2.95-2.76-4.53-4.08C527.76,119.8,526,120.34,524.15,120.83Z"/><path class="x" d="M522.57,126.86l.44-1.52c1.87-.4,3.81-.83,5.66-1.34,1.42,1.4,2.72,2.83,4.06,4.34l-.49,1.71q-2.09-2.3-4.23-4.42Q525.26,126.32,522.57,126.86Z"/><path class="x" d="M520.51,132.76l.59-1.48c1.9-.25,3.79-.56,5.71-.92,1.27,1.49,2.55,3,3.75,4.64l-.65,1.66c-1.26-1.63-2.5-3.18-3.87-4.71C524.23,132.28,522.35,132.54,520.51,132.76Z"/><path class="x" d="M518,138.49l.66-1.44c1.91-.11,3.88-.26,5.8-.48,1.18,1.59,2.27,3.21,3.37,4.9l-.75,1.62c-1.14-1.72-2.32-3.39-3.52-5C521.73,138.27,519.87,138.4,518,138.49Z"/><path class="x" d="M515.12,144l.79-1.38c1.94.05,3.84,0,5.79,0,1,1.66,2.09,3.41,3,5.15l-.9,1.54c-1-1.8-2-3.52-3.11-5.23C518.87,144.09,517,144.06,515.12,144Z"/><path class="x" d="M511.82,149.31c.3-.43.58-.89.87-1.33,1.91.18,3.84.31,5.81.4q1.35,2.6,2.59,5.34c-.33.5-.63,1-1,1.49-.84-1.85-1.79-3.7-2.73-5.47C515.49,149.64,513.66,149.51,511.82,149.31Z"/><path class="x" d="M508.1,154.33l1-1.25c1.92.35,3.8.6,5.74.82.78,1.81,1.55,3.67,2.2,5.54l-1.1,1.39c-.73-1.92-1.48-3.79-2.29-5.63C511.77,155,509.91,154.66,508.1,154.33Z"/><path class="x" d="M504,159.08c.38-.38.73-.77,1.07-1.18q2.79.69,5.68,1.25.94,2.78,1.78,5.68c-.38.46-.79.89-1.21,1.31-.55-1.94-1.21-3.91-1.88-5.8C507.63,160,505.86,159.57,504,159.08Z"/><path class="x" d="M499.63,163.5l1.15-1.09c.92.3,1.85.6,2.78.88s1.85.53,2.79.78q.78,2.88,1.35,5.8l-1.29,1.22q-.65-3-1.44-5.91C503.16,164.65,501.38,164.1,499.63,163.5Z"/><path class="x" d="M494.91,167.59c.41-.33.84-.64,1.24-1q2.64,1.08,5.42,2.06.53,2.9.93,5.89c-.46.39-.93.74-1.4,1.11-.14-1-.28-2-.44-3s-.36-2-.56-3C498.35,169,496.63,168.34,494.91,167.59Z"/><path class="x" d="M489.9,171.32l1.29-.92c1.72.87,3.5,1.73,5.26,2.48.24,2,.37,3.92.48,5.93l-1.45,1c-.14-2.06-.32-4.09-.56-6.08C493.21,173,491.53,172.16,489.9,171.32Z"/><path class="x" d="M484.61,174.65l1.38-.78q2.46,1.45,5.05,2.83c.06,2,.09,4,0,6l-1.55.88c0-2,0-4-.09-6.09C487.82,176.59,486.19,175.63,484.61,174.65Z"/><path class="x" d="M479.11,177.6l1.42-.72c1.56,1.1,3.19,2.22,4.83,3.24-.07,2-.22,3.92-.41,5.93l-1.59.81c.17-2.07.29-4.1.35-6.11Q481.34,179.21,479.11,177.6Z"/><path class="x" d="M473.39,180.1l1.48-.58c1.48,1.24,3,2.39,4.56,3.56-.23,1.94-.49,4-.85,5.91l-1.65.65c.32-2,.62-4,.82-6C476.27,182.51,474.79,181.28,473.39,180.1Z"/><path class="x" d="M467.51,182.2l1.5-.51c1.39,1.33,2.82,2.65,4.3,3.93-.37,1.93-.81,3.85-1.3,5.8-.56.18-1.12.39-1.69.55.48-2,.9-4,1.26-6Q469.48,184.12,467.51,182.2Z"/><path class="x" d="M461.48,183.8l1.54-.35c1.29,1.46,2.6,2.81,4,4.21-.52,1.88-1.08,3.85-1.73,5.71l-1.74.39c.63-2,1.22-3.86,1.72-5.83C464,186.6,462.69,185.18,461.48,183.8Z"/><path class="x" d="M455.35,185l1.56-.27q1.75,2.28,3.66,4.53c-.66,1.84-1.38,3.68-2.16,5.54-.58.09-1.16.21-1.75.29.78-1.9,1.49-3.83,2.15-5.73Q457,187.19,455.35,185Z"/><path class="x" d="M449.14,185.67l1.58-.11c1.06,1.63,2.15,3.17,3.31,4.75-.8,1.79-1.64,3.65-2.56,5.39l-1.78.13c.92-1.84,1.78-3.63,2.58-5.51C451.18,188.82,450.13,187.22,449.14,185.67Z"/><path class="x" d="M442.89,185.94l1.59,0c.93,1.68,1.92,3.37,2.95,5-.93,1.73-1.91,3.43-2.95,5.15l-1.78,0q1.57-2.69,3-5.35C444.69,189.16,443.77,187.55,442.89,185.94Z"/><path class="x" d="M436.65,185.7l1.58.13c.8,1.74,1.66,3.45,2.57,5.18-1.05,1.65-2.16,3.34-3.32,5l-1.78-.14c1.18-1.68,2.3-3.32,3.36-5.08C438.2,189.12,437.4,187.39,436.65,185.7Z"/><path class="x" d="M430.44,185l1.57.2c.67,1.79,1.39,3.64,2.18,5.4-1.18,1.61-2.4,3.12-3.69,4.67l-1.76-.23c1.3-1.61,2.54-3.22,3.73-4.85C431.74,188.5,431.06,186.76,430.44,185Z"/><path class="x" d="M424.3,183.89l1.55.36c.53,1.82,1.12,3.66,1.77,5.5-1.29,1.48-2.63,3-4,4.42l-1.73-.41c1.41-1.48,2.76-2.95,4.07-4.53C425.33,187.49,424.79,185.68,424.3,183.89Z"/><path class="x" d="M418.26,182.3l1.53.44c.39,1.87.83,3.81,1.34,5.66-1.4,1.42-2.84,2.72-4.34,4.07l-1.71-.5q2.3-2.08,4.41-4.23C419,185.92,418.62,184.1,418.26,182.3Z"/><path class="x" d="M412.37,180.24l1.48.59c.25,1.9.56,3.79.92,5.71-1.49,1.27-3,2.55-4.64,3.76l-1.66-.66c1.62-1.26,3.18-2.5,4.71-3.86C412.85,184,412.59,182.08,412.37,180.24Z"/><path class="x" d="M406.64,177.78l1.44.65c.11,1.91.26,3.88.48,5.8-1.6,1.18-3.22,2.27-4.9,3.37l-1.62-.74q2.58-1.73,5-3.53C406.86,181.46,406.72,179.61,406.64,177.78Z"/><path class="x" d="M401.12,174.85l1.37.79c0,1.94,0,3.84.06,5.8-1.66,1-3.41,2.08-5.15,3l-1.54-.9c1.79-1,3.51-2,5.23-3.1C401,178.6,401.07,176.68,401.12,174.85Z"/><path class="x" d="M395.82,171.55c.43.3.88.58,1.33.87-.18,1.91-.32,3.85-.4,5.81q-2.61,1.35-5.35,2.59c-.49-.33-1-.63-1.48-1,1.85-.85,3.69-1.8,5.47-2.74C395.49,175.22,395.62,173.39,395.82,171.55Z"/><path class="x" d="M390.8,167.83l1.24,1c-.34,1.92-.59,3.8-.81,5.74-1.81.78-3.68,1.55-5.54,2.21l-1.4-1.11c1.93-.73,3.8-1.48,5.64-2.29C390.17,171.5,390.47,169.65,390.8,167.83Z"/><path class="x" d="M386.05,163.77c.37.38.77.73,1.17,1.07-.45,1.86-.87,3.75-1.24,5.68q-2.78.94-5.69,1.78c-.45-.38-.88-.79-1.31-1.21,1.95-.54,3.91-1.21,5.81-1.88C385.17,167.36,385.56,165.59,386.05,163.77Z"/><path class="x" d="M381.62,159.36l1.1,1.16c-.31.91-.6,1.84-.89,2.77s-.53,1.85-.77,2.79c-1.93.52-3.85,1-5.8,1.35L374,166.14c2-.43,4-.91,5.92-1.43Q380.73,162,381.62,159.36Z"/><path class="x" d="M377.54,154.64c.33.41.63.85,1,1.24q-1.08,2.64-2.06,5.42-2.89.52-5.9.93c-.38-.46-.74-.93-1.1-1.4,1-.13,2-.28,3-.44s2-.36,3-.56C376.11,158.08,376.79,156.36,377.54,154.64Z"/><path class="x" d="M373.81,149.63l.91,1.3c-.86,1.71-1.72,3.49-2.47,5.26-2,.23-3.93.36-5.93.47l-1-1.45c2.06-.14,4.09-.32,6.08-.56C372.15,152.94,373,151.26,373.81,149.63Z"/><path class="x" d="M370.48,144.35l.78,1.38c-1,1.63-1.92,3.31-2.83,5-2,.06-4,.09-6,0l-.89-1.55c2.05,0,4.05,0,6.09-.09C368.54,147.55,369.5,145.92,370.48,144.35Z"/><path class="x" d="M367.52,138.84l.72,1.42c-1.1,1.56-2.21,3.19-3.23,4.83-2-.06-3.93-.22-5.93-.41l-.81-1.59q3.09.25,6.11.35Q365.91,141.07,367.52,138.84Z"/><path class="x" d="M365,133.12l.58,1.48c-1.24,1.48-2.4,3-3.56,4.57-1.95-.24-4-.5-5.91-.85l-.65-1.66c2,.33,4,.62,6,.82C362.62,136,363.84,134.52,365,133.12Z"/><path class="x" d="M362.93,127.24l.5,1.51c-1.32,1.38-2.65,2.81-3.93,4.29-1.92-.37-3.84-.81-5.79-1.3-.19-.56-.39-1.12-.56-1.69,2,.48,4,.9,6,1.26Q361,129.21,362.93,127.24Z"/><path class="x" d="M361.33,121.21l.35,1.54c-1.46,1.29-2.82,2.6-4.21,4-1.89-.52-3.85-1.08-5.71-1.73l-.4-1.74c2,.63,3.87,1.22,5.84,1.72C358.53,123.69,359.94,122.42,361.33,121.21Z"/><path class="x" d="M360.14,115.08l.27,1.56c-1.52,1.17-3,2.39-4.54,3.66-1.83-.66-3.68-1.38-5.53-2.16-.09-.58-.22-1.16-.29-1.75,1.89.78,3.83,1.49,5.73,2.15Q357.94,116.73,360.14,115.08Z"/><path class="x" d="M359.46,108.87l.11,1.58c-1.64,1.06-3.17,2.15-4.76,3.31-1.78-.8-3.65-1.64-5.38-2.56l-.14-1.78c1.85.92,3.64,1.78,5.52,2.58C356.31,110.91,357.91,109.86,359.46,108.87Z"/><path class="x" d="M359.19,102.62l0,1.59c-1.67.93-3.36,1.92-5,3-1.73-.92-3.43-1.91-5.15-3l0-1.78c1.78,1,3.57,2,5.35,3Q356.78,103.95,359.19,102.62Z"/><path class="x" d="M359.43,96.38,359.3,98c-1.74.81-3.45,1.66-5.18,2.58-1.66-1.06-3.35-2.17-5-3.33l.13-1.78c1.69,1.18,3.33,2.3,5.09,3.36C356,97.93,357.74,97.13,359.43,96.38Z"/><path class="x" d="M360.09,90.17l-.21,1.57c-1.79.67-3.64,1.39-5.4,2.18-1.6-1.18-3.11-2.4-4.66-3.69l.23-1.76c1.6,1.3,3.22,2.54,4.84,3.73Q357.5,91.1,360.09,90.17Z"/><path class="x" d="M361.24,84l-.36,1.55c-1.83.53-3.66,1.13-5.51,1.77-1.48-1.29-3-2.63-4.41-4l.4-1.73c1.49,1.41,3,2.76,4.53,4.07C357.64,85.06,359.45,84.52,361.24,84Z"/><path class="x" d="M362.82,78l-.43,1.53c-1.87.39-3.81.83-5.67,1.34-1.41-1.4-2.72-2.83-4.06-4.34l.49-1.71q2.1,2.3,4.23,4.41Q360.13,78.53,362.82,78Z"/><path class="x" d="M364.89,72.1l-.59,1.48c-1.9.25-3.79.56-5.72.92-1.26-1.49-2.55-3-3.75-4.64l.66-1.66c1.26,1.62,2.5,3.18,3.86,4.71C361.17,72.58,363.05,72.32,364.89,72.1Z"/><path class="x" d="M367.35,66.37l-.66,1.44c-1.91.11-3.87.26-5.8.48-1.17-1.59-2.26-3.22-3.36-4.9l.74-1.62q1.73,2.58,3.53,5C363.67,66.59,365.52,66.45,367.35,66.37Z"/><path class="x" d="M370.28,60.85l-.8,1.37c-1.94,0-3.83,0-5.79.06-1-1.66-2.08-3.41-3-5.15l.89-1.54c1,1.79,2,3.51,3.11,5.23C366.53,60.76,368.44,60.8,370.28,60.85Z"/><path class="x" d="M373.58,55.55c-.31.43-.58.88-.87,1.33-1.91-.18-3.85-.32-5.81-.4-.9-1.73-1.76-3.52-2.59-5.35.32-.49.63-1,1-1.48.85,1.85,1.79,3.7,2.73,5.47C369.9,55.22,371.74,55.35,373.58,55.55Z"/><path class="x" d="M377.29,50.53l-1,1.24c-1.92-.34-3.8-.59-5.74-.81-.79-1.81-1.55-3.68-2.21-5.54L369.47,44c.72,1.92,1.48,3.79,2.29,5.63C373.62,49.9,375.48,50.2,377.29,50.53Z"/><path class="x" d="M381.35,45.78c-.37.37-.72.77-1.07,1.17-1.85-.45-3.75-.87-5.67-1.24C374,43.86,373.38,42,372.83,40c.38-.46.79-.89,1.2-1.31.55,1.94,1.21,3.91,1.89,5.8C377.76,44.9,379.54,45.29,381.35,45.78Z"/><path class="x" d="M385.76,41.35l-1.15,1.1c-.92-.31-1.84-.6-2.78-.89s-1.84-.52-2.78-.77c-.53-1.93-1-3.85-1.36-5.8L379,33.76q.66,3,1.44,5.92Q383.15,40.46,385.76,41.35Z"/><path class="x" d="M390.49,37.27c-.41.33-.85.63-1.24,1-1.77-.72-3.57-1.41-5.42-2.06q-.54-2.89-.93-5.9c.45-.38.93-.73,1.39-1.1.14,1,.29,2,.45,3s.36,2,.55,3C387.05,35.84,388.77,36.52,390.49,37.27Z"/><path class="x" d="M395.5,33.54l-1.3.91c-1.71-.86-3.49-1.72-5.26-2.47-.24-2-.37-3.93-.48-5.93l1.46-1c.13,2.06.32,4.09.55,6.08C392.19,31.88,393.86,32.7,395.5,33.54Z"/><path class="x" d="M400.78,30.21,399.4,31c-1.63-1-3.32-1.92-5-2.83-.07-2-.09-4-.05-6l1.55-.89c0,2.05,0,4.05.09,6.1C397.58,28.27,399.2,29.23,400.78,30.21Z"/><path class="x" d="M406.28,27.25l-1.41.72c-1.56-1.1-3.2-2.21-4.84-3.23.07-2,.23-3.93.42-5.93L402,18q-.26,3.09-.36,6.11C403.26,25.13,404.8,26.18,406.28,27.25Z"/><path class="x" d="M412,24.76l-1.48.58c-1.49-1.24-3-2.4-4.57-3.56.23-2,.49-4,.85-5.91l1.66-.65c-.33,2-.63,4-.82,6C409.12,22.35,410.6,23.57,412,24.76Z"/><path class="x" d="M417.89,22.66l-1.51.5c-1.38-1.32-2.82-2.65-4.3-3.93.38-1.92.82-3.84,1.31-5.79.56-.19,1.12-.39,1.69-.56-.49,2-.9,4-1.27,6Q415.93,20.75,417.89,22.66Z"/><path class="x" d="M423.92,21.06l-1.55.35c-1.28-1.46-2.6-2.82-4-4.21.52-1.88,1.08-3.85,1.73-5.71l1.74-.39c-.64,2-1.22,3.86-1.73,5.83C421.43,18.26,422.71,19.68,423.92,21.06Z"/><path class="x" d="M430.05,19.87l-1.57.27c-1.16-1.52-2.38-3-3.66-4.54q1-2.74,2.16-5.53c.59-.09,1.17-.22,1.76-.29-.78,1.89-1.49,3.83-2.15,5.73Q428.39,17.67,430.05,19.87Z"/><path class="x" d="M436.26,19.19l-1.59.11c-1.05-1.64-2.15-3.17-3.3-4.75.79-1.79,1.64-3.66,2.56-5.39L435.7,9c-.91,1.84-1.78,3.63-2.57,5.51C434.22,16,435.27,17.64,436.26,19.19Z"/><path class="x" d="M442.5,18.92l-1.59,0c-.93-1.67-1.91-3.36-3-5,.93-1.73,1.92-3.43,3-5.15l1.78,0c-1.05,1.78-2,3.57-3,5.35C440.7,15.7,441.63,17.31,442.5,18.92Z"/><path class="x" d="M448.75,19.16,447.16,19c-.8-1.74-1.66-3.45-2.57-5.18,1.05-1.66,2.16-3.35,3.33-5l1.77.14c-1.17,1.68-2.29,3.32-3.35,5.08C447.19,15.74,448,17.47,448.75,19.16Z"/><path class="x" d="M455,19.82l-1.58-.21c-.67-1.79-1.39-3.64-2.17-5.39,1.17-1.61,2.4-3.12,3.68-4.67l1.77.23c-1.3,1.61-2.55,3.22-3.73,4.84C453.66,16.36,454.33,18.09,455,19.82Z"/><path class="x" d="M461.09,21l-1.54-.36c-.54-1.83-1.13-3.66-1.77-5.51,1.28-1.48,2.63-3,4-4.41l1.73.41c-1.41,1.48-2.77,3-4.08,4.52C460.07,17.37,460.6,19.18,461.09,21Z"/><path class="x" d="M467.13,22.55l-1.52-.43c-.4-1.87-.83-3.81-1.35-5.66,1.41-1.42,2.84-2.73,4.35-4.07l1.71.49Q468,15,465.9,17.11C466.36,18.94,466.77,20.76,467.13,22.55Z"/><path class="x" d="M473,24.62,471.55,24c-.25-1.9-.56-3.79-.92-5.71,1.49-1.27,3.05-2.56,4.64-3.76l1.66.66c-1.63,1.26-3.18,2.5-4.71,3.86C472.55,20.9,472.81,22.78,473,24.62Z"/><path class="x" d="M478.76,27.08l-1.44-.66c-.11-1.9-.26-3.87-.48-5.8,1.59-1.17,3.21-2.26,4.9-3.36l1.62.74q-2.58,1.72-5,3.53C478.54,23.4,478.67,25.25,478.76,27.08Z"/><path class="x" d="M484.27,30l-1.37-.8c.05-1.93,0-3.83,0-5.79,1.66-1,3.41-2.08,5.15-3l1.54.89c-1.8,1-3.52,2-5.23,3.11C484.36,26.26,484.33,28.17,484.27,30Z"/><path class="x" d="M489.58,33.31c-.43-.31-.89-.58-1.33-.87q.27-2.86.4-5.81,2.6-1.35,5.34-2.59c.5.32,1,.63,1.49,1-1.85.85-3.7,1.79-5.47,2.74C489.91,29.64,489.78,31.47,489.58,33.31Z"/><path class="x" d="M494.6,37l-1.25-1c.35-1.92.59-3.8.82-5.74,1.81-.79,3.67-1.55,5.53-2.21l1.4,1.11c-1.92.72-3.79,1.48-5.63,2.29C495.23,33.35,494.93,35.21,494.6,37Z"/><path class="x" d="M499.35,41.08c-.38-.37-.77-.72-1.18-1.06q.69-2.79,1.25-5.68c1.85-.63,3.74-1.23,5.68-1.78.45.38.89.79,1.31,1.2-1.94.55-3.91,1.22-5.81,1.89C500.22,37.5,499.84,39.27,499.35,41.08Z"/><path class="x" d="M503.77,45.49l-1.09-1.15c.3-.91.6-1.84.88-2.78s.53-1.84.78-2.78c1.92-.53,3.85-1,5.8-1.36l1.22,1.3q-3,.64-5.91,1.43Q504.66,42.88,503.77,45.49Z"/><path class="x" d="M507.86,50.22c-.33-.41-.64-.85-1-1.24.72-1.77,1.41-3.57,2.06-5.42q2.9-.53,5.89-.93c.39.45.74.93,1.11,1.4-1,.13-2,.28-3,.44s-2,.36-3,.56C509.28,46.78,508.61,48.5,507.86,50.22Z"/><path class="x" d="M511.59,55.23l-.92-1.3c.87-1.71,1.73-3.49,2.48-5.26,2-.24,3.92-.37,5.93-.47l1,1.45q-3.09.21-6.07.55Q512.85,52.78,511.59,55.23Z"/><path class="x" d="M514.92,60.51l-.79-1.38c1-1.63,1.92-3.32,2.84-5,2-.07,4-.09,6-.05l.88,1.55c-2,0-4,0-6.09.09C516.86,57.31,515.9,58.93,514.92,60.51Z"/><path class="x" d="M517.87,66l-.72-1.41c1.1-1.56,2.22-3.19,3.24-4.84,2,.07,3.92.23,5.93.42l.8,1.59q-3.09-.26-6.1-.36C520,63,518.94,64.53,517.87,66Z"/><path class="x" d="M520.37,71.74l-.58-1.48c1.24-1.49,2.39-3,3.56-4.57,1.94.23,4,.5,5.91.85l.65,1.66c-2-.33-4-.63-6-.82C522.78,68.86,521.55,70.33,520.37,71.74Z"/><path class="x" d="M522.47,77.62,522,76.11c1.33-1.38,2.65-2.82,3.93-4.3,1.93.38,3.85.82,5.8,1.31.18.56.39,1.12.55,1.69-2-.49-4-.9-6-1.27Q524.39,75.66,522.47,77.62Z"/><path class="x" d="M524.07,83.65l-.35-1.55c1.46-1.28,2.81-2.6,4.2-4,1.89.52,3.86,1.08,5.71,1.73l.4,1.74c-2-.64-3.86-1.22-5.84-1.73C526.87,81.17,525.45,82.44,524.07,83.65Z"/><path class="x" d="M525.26,89.78,525,88.21q2.28-1.74,4.53-3.66,2.76,1,5.53,2.16c.1.59.22,1.17.3,1.76-1.9-.78-3.83-1.49-5.73-2.15C528.17,87.52,526.73,88.68,525.26,89.78Z"/><path class="x" d="M525.94,96l-.11-1.59c1.63-1.05,3.17-2.15,4.75-3.3,1.79.79,3.65,1.64,5.39,2.56l.13,1.77c-1.84-.91-3.64-1.78-5.51-2.57C529.09,94,527.49,95,525.94,96Z"/><path class="x" d="M526.21,102.23l0-1.59c1.68-.93,3.37-1.91,5-2.94,1.73.92,3.43,1.91,5.15,3l0,1.78q-2.68-1.58-5.35-3C529.43,100.43,527.82,101.36,526.21,102.23Z"/><use width="231.21" height="171.61" transform="translate(375.77 58.35) rotate(-0.05) scale(0.58)" xlink:href="#a"/><circle class="af" cx="792.15" cy="113.65" r="64.19"/><use width="299.9" height="323.56" transform="translate(748.16 67.25) scale(0.26 0.26)" xlink:href="#x"/><path class="b" d="M856.6,115.75l0,1.18c-1.18.6-2.36,1.18-3.54,1.71-1.08-.77-2.14-1.49-3.23-2.19l0-1.06c1.16.66,2.32,1.36,3.43,2.1C854.39,116.94,855.49,116.36,856.6,115.75Z"/><path class="b" d="M856.21,121.05l-.15,1.17c-1.21.51-2.41,1-3.66,1.42-1-.85-2-1.67-3-2.45l.14-1q1.62,1.13,3.24,2.37C853.89,122.06,855,121.57,856.21,121.05Z"/><path class="b" d="M855.39,126.31c-.06.39-.17.77-.26,1.15-1.25.41-2.51.78-3.75,1.12-.94-.94-1.89-1.84-2.84-2.7.08-.34.17-.68.22-1,1,.84,2,1.71,3,2.62C853,127.12,854.2,126.73,855.39,126.31Z"/><path class="b" d="M854.12,131.48l-.33,1.13c-1.29.3-2.58.56-3.85.79-.86-1-1.7-2-2.6-2.91l.3-1c1,.92,1.92,1.89,2.81,2.87C851.69,132.09,852.89,131.8,854.12,131.48Z"/><path class="b" d="M852.43,136.52l-.43,1.1c-1.3.2-2.58.36-3.89.48-.74-1.07-1.54-2.12-2.36-3.13l.39-1c.87,1,1.73,2,2.56,3.09C849.94,136.93,851.18,136.74,852.43,136.52Z"/><path class="b" d="M850.34,141.42l-.53,1.05c-1.32.09-2.62.14-3.91.16-.68-1.14-1.38-2.25-2.09-3.32.15-.31.33-.62.47-.94.8,1.07,1.54,2.15,2.28,3.28C847.81,141.6,849.08,141.53,850.34,141.42Z"/><path class="b" d="M847.83,146.11c-.2.34-.39.69-.6,1-1.32,0-2.63-.09-3.92-.18-.58-1.19-1.18-2.34-1.79-3.47l.53-.91c.7,1.13,1.38,2.29,2,3.47C845.32,146.1,846.58,146.13,847.83,146.11Z"/><path class="b" d="M845,150.58l-.69,1c-1.3-.12-2.61-.31-3.9-.51-.46-1.22-1-2.41-1.5-3.6l.61-.86c.6,1.18,1.18,2.39,1.73,3.63C842.44,150.36,843.69,150.49,845,150.58Z"/><path class="b" d="M841.73,154.81l-.78.89c-1.3-.24-2.55-.49-3.83-.81-.35-1.25-.78-2.51-1.21-3.72l.69-.8q.75,1.83,1.41,3.75Q839.84,154.5,841.73,154.81Z"/><path class="b" d="M838.15,158.75c-.27.29-.55.56-.84.83-1.27-.35-2.52-.73-3.75-1.13-.27-1.29-.57-2.56-.9-3.8q.39-.36.75-.75c.42,1.28.76,2.54,1.09,3.85C835.7,158.11,836.94,158.47,838.15,158.75Z"/><path class="b" d="M834.27,162.38l-.9.77c-1.24-.45-2.47-.94-3.66-1.44-.16-1.32-.34-2.58-.58-3.86l.81-.69c.29,1.28.57,2.63.78,3.94C831.9,161.57,833.06,162,834.27,162.38Z"/><path class="b" d="M830.1,165.68l-1,.69c-1.19-.54-2.36-1.11-3.52-1.73,0-1.3-.13-2.61-.26-3.91l.87-.61c.18,1.31.33,2.64.45,4C827.79,164.66,828.93,165.18,830.1,165.68Z"/><path class="b" d="M825.68,168.65l-1,.58c-1.15-.65-2.26-1.31-3.35-2,.05-1.32.06-2.63.05-3.92.3-.18.62-.34.91-.53.08,1.32.11,2.65.12,4C823.45,167.42,824.55,168,825.68,168.65Z"/><path class="b" d="M821,171.21c-.35.17-.69.36-1.06.52-1.09-.75-2.15-1.51-3.19-2.29.17-1.31.3-2.61.39-3.88l1-.48c0,1.34-.09,2.68-.21,4C818.91,169.83,820,170.54,821,171.21Z"/><path class="b" d="M816.16,173.38l-1.1.43c-1-.8-2-1.67-3-2.54.28-1.28.52-2.55.71-3.85l1-.38c-.14,1.31-.32,2.65-.53,4C814.17,171.83,815.15,172.61,816.16,173.38Z"/><path class="b" d="M811.14,175.16l-1.14.32c-1-.91-1.86-1.81-2.76-2.77.39-1.25.72-2.53,1-3.78l1-.29c-.25,1.29-.54,2.59-.87,3.91Q809.73,173.87,811.14,175.16Z"/><path class="b" d="M806,176.5c-.38.09-.77.18-1.16.24-.87-1-1.71-2-2.52-3,.48-1.22.93-2.45,1.34-3.66.34-.06.68-.15,1-.23-.35,1.3-.75,2.57-1.19,3.83C804.29,174.63,805.13,175.6,806,176.5Z"/><path class="b" d="M800.75,177.41l-1.18.14c-.78-1-1.54-2.12-2.26-3.2.58-1.17,1.13-2.34,1.63-3.55l1-.13c-.46,1.24-1,2.49-1.5,3.73C799.21,175.41,800,176.41,800.75,177.41Z"/><path class="b" d="M795.45,177.9l-1.18,0c-.7-1.12-1.36-2.24-2-3.36.67-1.14,1.31-2.28,1.91-3.43l1.06,0q-.84,1.78-1.8,3.57C794.08,175.76,794.75,176.83,795.45,177.9Z"/><path class="b" d="M790.14,177.93l-1.18,0c-.61-1.18-1.18-2.36-1.72-3.54.77-1.08,1.5-2.14,2.19-3.23l1.06,0c-.66,1.16-1.36,2.32-2.09,3.43C788.94,175.72,789.52,176.82,790.14,177.93Z"/><path class="b" d="M784.83,177.54l-1.17-.15c-.51-1.21-1-2.41-1.42-3.66.85-1,1.67-2,2.45-3l1,.14c-.75,1.08-1.54,2.17-2.37,3.24C783.83,175.22,784.31,176.38,784.83,177.54Z"/><path class="b" d="M779.58,176.72c-.39-.06-.77-.17-1.16-.26-.4-1.25-.78-2.5-1.11-3.75.93-.94,1.83-1.88,2.69-2.84.35.08.69.17,1,.22-.85,1-1.71,2-2.63,3C778.77,174.31,779.15,175.53,779.58,176.72Z"/><path class="b" d="M774.41,175.45l-1.14-.33c-.3-1.28-.56-2.58-.79-3.85,1-.86,2-1.7,2.92-2.59l1,.29c-.92.95-1.88,1.92-2.87,2.81C773.79,173,774.09,174.22,774.41,175.45Z"/><path class="b" d="M769.36,173.76l-1.1-.43c-.2-1.3-.36-2.58-.47-3.89,1.06-.74,2.11-1.54,3.12-2.36l1,.4c-1,.86-2,1.72-3.1,2.56C769,171.27,769.14,172.51,769.36,173.76Z"/><path class="b" d="M764.46,171.68l-1.05-.54c-.08-1.32-.13-2.62-.15-3.91,1.14-.68,2.24-1.38,3.31-2.09.32.16.62.33.95.47-1.07.8-2.16,1.54-3.29,2.28C764.28,169.14,764.35,170.41,764.46,171.68Z"/><path class="b" d="M759.77,169.16c-.34-.2-.68-.38-1-.6,0-1.32.1-2.63.19-3.92,1.18-.58,2.34-1.18,3.46-1.79l.92.53q-1.71,1.06-3.48,2C759.78,166.65,759.76,167.91,759.77,169.16Z"/><path class="b" d="M755.3,166.29l-1-.69c.12-1.29.3-2.61.5-3.89,1.22-.47,2.42-1,3.61-1.51l.86.61c-1.18.6-2.4,1.18-3.64,1.73C755.52,163.77,755.4,165,755.3,166.29Z"/><path class="b" d="M751.07,163.06l-.89-.78c.25-1.3.49-2.55.81-3.83,1.25-.35,2.52-.78,3.73-1.21l.8.7c-1.23.49-2.48,1-3.75,1.4C751.51,160.56,751.28,161.8,751.07,163.06Z"/><path class="b" d="M747.13,159.48c-.29-.26-.56-.55-.83-.84.35-1.27.73-2.52,1.13-3.75q1.94-.4,3.81-.9c.23.26.49.51.75.75-1.29.42-2.55.76-3.86,1.1C747.78,157,747.42,158.27,747.13,159.48Z"/><path class="b" d="M743.5,155.6l-.77-.9c.45-1.24.95-2.47,1.45-3.66,1.31-.16,2.58-.34,3.86-.57l.69.8c-1.29.29-2.63.57-3.94.78C744.31,153.23,743.91,154.39,743.5,155.6Z"/><path class="b" d="M740.2,151.43l-.68-1c.53-1.19,1.11-2.36,1.73-3.51,1.29,0,2.6-.14,3.9-.27l.61.87q-2,.27-4,.45C741.23,149.12,740.7,150.26,740.2,151.43Z"/><path class="b" d="M737.24,147l-.59-1c.65-1.15,1.31-2.26,2-3.35,1.32.05,2.64.06,3.92.05.18.3.35.62.53.92-1.32.07-2.64.1-4,.11C738.47,144.78,737.84,145.88,737.24,147Z"/><path class="b" d="M734.68,142.35c-.18-.36-.37-.7-.53-1.07.75-1.09,1.52-2.15,2.3-3.18,1.31.16,2.6.29,3.88.38l.47,1c-1.34,0-2.68-.09-4-.21C736.06,140.24,735.34,141.29,734.68,142.35Z"/><path class="b" d="M732.5,137.49l-.43-1.1c.8-1,1.68-2,2.55-3,1.28.28,2.54.52,3.84.71l.38,1c-1.31-.14-2.65-.32-4-.53C734.05,135.51,733.27,136.48,732.5,137.49Z"/><path class="b" d="M730.72,132.47l-.32-1.14c.91-1,1.82-1.86,2.77-2.75,1.25.38,2.54.71,3.79,1l.28,1q-1.93-.37-3.9-.87C732.46,130.62,731.58,131.53,730.72,132.47Z"/><path class="b" d="M729.38,127.32c-.08-.38-.18-.77-.24-1.16,1-.87,2-1.71,3-2.52,1.23.48,2.45.93,3.67,1.34,0,.35.15.69.22,1-1.3-.35-2.56-.75-3.83-1.19C731.25,125.62,730.29,126.46,729.38,127.32Z"/><path class="b" d="M728.48,122.08l-.15-1.17c1-.79,2.12-1.55,3.21-2.27,1.17.58,2.33,1.13,3.55,1.63l.13,1c-1.24-.46-2.49-1-3.74-1.5C730.47,120.54,729.47,121.29,728.48,122.08Z"/><path class="b" d="M728,116.78l0-1.18c1.11-.7,2.23-1.36,3.35-2,1.15.67,2.29,1.31,3.43,1.92l0,1.06c-1.19-.57-2.37-1.17-3.56-1.81C730.13,115.41,729.05,116.08,728,116.78Z"/><path class="b" d="M728,111.47l0-1.18c1.19-.61,2.37-1.18,3.55-1.72,1.07.77,2.13,1.5,3.22,2.19l0,1.06c-1.15-.66-2.32-1.36-3.43-2.09C730.16,110.27,729.06,110.85,728,111.47Z"/><path class="b" d="M728.34,106.16l.16-1.17c1.2-.51,2.41-1,3.65-1.42,1,.85,2,1.67,3.05,2.45l-.13,1c-1.09-.75-2.17-1.54-3.25-2.37C730.67,105.16,729.51,105.65,728.34,106.16Z"/><path class="b" d="M729.16,100.91c.07-.39.17-.77.26-1.16q1.89-.6,3.75-1.11c.94.93,1.89,1.83,2.84,2.69-.08.35-.16.69-.22,1-1-.85-2-1.71-3-2.63C731.57,100.1,730.35,100.48,729.16,100.91Z"/><path class="b" d="M730.44,95.74l.32-1.14c1.29-.3,2.58-.56,3.86-.79.85,1,1.69,2,2.59,2.92l-.29,1c-.95-.92-1.92-1.88-2.81-2.87C732.86,95.12,731.66,95.42,730.44,95.74Z"/><path class="b" d="M732.12,90.69l.44-1.1c1.29-.2,2.58-.36,3.89-.47.74,1.06,1.54,2.11,2.35,3.12l-.39,1c-.87-1-1.72-2-2.56-3.1C734.62,90.29,733.37,90.47,732.12,90.69Z"/><path class="b" d="M734.21,85.8l.54-1.06c1.31-.08,2.62-.13,3.9-.15.68,1.14,1.38,2.24,2.1,3.31-.16.32-.34.63-.48.95-.79-1.07-1.54-2.16-2.28-3.29C736.75,85.61,735.48,85.68,734.21,85.8Z"/><path class="b" d="M736.72,81.1c.2-.34.39-.68.6-1,1.33,0,2.64.1,3.93.19.57,1.18,1.17,2.34,1.79,3.46l-.54.92c-.7-1.14-1.38-2.3-2-3.47C739.23,81.11,738,81.09,736.72,81.1Z"/><path class="b" d="M739.6,76.63l.69-1c1.29.12,2.6.3,3.89.5.47,1.23,1,2.42,1.51,3.61l-.62.86c-.6-1.18-1.18-2.4-1.73-3.64C742.11,76.85,740.86,76.73,739.6,76.63Z"/><path class="b" d="M742.83,72.4l.77-.89c1.3.25,2.55.5,3.83.81.36,1.25.79,2.52,1.21,3.73l-.69.8q-.74-1.83-1.41-3.75C745.33,72.84,744.09,72.61,742.83,72.4Z"/><path class="b" d="M746.4,68.46c.27-.28.55-.56.84-.83,1.28.35,2.53.73,3.75,1.13.28,1.3.58,2.56.9,3.81-.26.24-.5.49-.75.75-.41-1.29-.76-2.55-1.09-3.86C748.86,69.11,747.61,68.75,746.4,68.46Z"/><path class="b" d="M750.29,64.84l.89-.78c1.24.45,2.47,1,3.66,1.45.17,1.31.34,2.58.58,3.86l-.8.69c-.29-1.29-.58-2.63-.79-3.94C752.65,65.64,751.49,65.24,750.29,64.84Z"/><path class="b" d="M754.45,61.53l1-.68c1.19.54,2.36,1.11,3.52,1.73,0,1.29.13,2.6.26,3.9l-.86.61c-.19-1.31-.34-2.64-.46-4C756.77,62.56,755.62,62,754.45,61.53Z"/><path class="b" d="M758.87,58.57l1-.59c1.15.65,2.27,1.31,3.36,2-.06,1.32-.07,2.64-.06,3.92l-.91.53c-.08-1.32-.11-2.64-.12-4C761.1,59.8,760,59.17,758.87,58.57Z"/><path class="b" d="M763.54,56c.35-.18.7-.37,1.06-.53,1.09.75,2.16,1.52,3.19,2.3-.17,1.31-.3,2.6-.39,3.88l-.95.47c0-1.34.1-2.67.21-4C765.64,57.39,764.6,56.68,763.54,56Z"/><path class="b" d="M768.39,53.83l1.11-.43c1,.81,2,1.68,3,2.55-.27,1.28-.52,2.54-.7,3.84l-1,.39q.21-2,.54-4C770.38,55.39,769.4,54.6,768.39,53.83Z"/><path class="b" d="M773.41,52.05l1.14-.32c1,.92,1.87,1.82,2.76,2.77-.38,1.25-.72,2.54-1,3.79l-1,.28c.25-1.29.55-2.59.87-3.9C775.26,53.79,774.35,52.91,773.41,52.05Z"/><path class="b" d="M778.56,50.71c.39-.08.77-.18,1.16-.24.88,1,1.72,2,2.52,3-.48,1.23-.92,2.45-1.33,3.67-.35.05-.69.15-1,.22.36-1.3.76-2.56,1.2-3.83C780.26,52.58,779.42,51.62,778.56,50.71Z"/><path class="b" d="M783.8,49.81l1.18-.15c.78,1,1.54,2.12,2.26,3.21-.58,1.17-1.13,2.33-1.63,3.55l-1.05.13c.46-1.24,1-2.49,1.5-3.74C785.34,51.8,784.59,50.8,783.8,49.81Z"/><path class="b" d="M789.1,49.31l1.18,0c.7,1.12,1.37,2.23,2,3.35-.68,1.15-1.32,2.29-1.92,3.43l-1.06,0c.56-1.18,1.17-2.37,1.81-3.56C790.47,51.46,789.8,50.39,789.1,49.31Z"/><path class="b" d="M794.42,49.29l1.18,0c.6,1.19,1.17,2.37,1.71,3.55-.77,1.07-1.5,2.14-2.19,3.22l-1.06,0c.66-1.15,1.36-2.32,2.1-3.42C795.61,51.49,795,50.39,794.42,49.29Z"/><path class="b" d="M799.72,49.68l1.17.15c.51,1.21,1,2.41,1.42,3.65-.85,1-1.67,2-2.45,3.05l-1.05-.13c.75-1.09,1.54-2.17,2.37-3.25C800.72,52,800.24,50.84,799.72,49.68Z"/><path class="b" d="M805,50.49c.39.07.77.18,1.15.26q.61,1.89,1.11,3.75c-.93.94-1.83,1.89-2.69,2.84-.34-.07-.68-.16-1-.22.84-1,1.71-2,2.62-3C805.78,52.91,805.4,51.68,805,50.49Z"/><path class="b" d="M810.14,51.77l1.14.32c.3,1.29.56,2.59.79,3.86-1,.85-2,1.69-2.91,2.59l-1-.29c.92-1,1.89-1.92,2.87-2.81C810.76,54.19,810.47,53,810.14,51.77Z"/><path class="b" d="M815.19,53.45l1.1.44c.2,1.29.36,2.58.47,3.89-1.06.74-2.11,1.54-3.12,2.35l-1-.39c1-.87,2-1.72,3.09-2.56C815.59,56,815.41,54.7,815.19,53.45Z"/><path class="b" d="M820.09,55.54l1,.54c.08,1.31.14,2.62.16,3.9-1.14.68-2.25,1.38-3.32,2.1-.32-.16-.62-.34-1-.48,1.07-.79,2.16-1.53,3.29-2.28C820.27,58.08,820.2,56.81,820.09,55.54Z"/><path class="b" d="M824.78,58.05c.34.2.69.39,1,.6,0,1.33-.09,2.64-.19,3.93-1.18.57-2.34,1.17-3.46,1.79l-.91-.53c1.13-.71,2.29-1.39,3.47-2C824.77,60.56,824.8,59.31,824.78,58.05Z"/><path class="b" d="M829.25,60.93l1,.69c-.12,1.29-.3,2.61-.5,3.89-1.22.47-2.41,1-3.6,1.51l-.86-.62c1.18-.6,2.39-1.18,3.63-1.73C829,63.44,829.16,62.2,829.25,60.93Z"/><path class="b" d="M833.48,64.16l.89.77c-.24,1.3-.49,2.55-.81,3.83-1.25.36-2.51.79-3.73,1.22l-.79-.7q1.83-.73,3.75-1.41C833,66.66,833.27,65.42,833.48,64.16Z"/><path class="b" d="M837.42,67.73c.29.27.56.55.83.84-.35,1.28-.73,2.53-1.13,3.75-1.29.28-2.56.58-3.8.9-.24-.26-.5-.5-.75-.75,1.28-.41,2.54-.76,3.85-1.09C836.78,70.19,837.14,68.94,837.42,67.73Z"/><path class="b" d="M841.05,71.62l.77.9c-.45,1.23-.94,2.46-1.45,3.65-1.31.17-2.57.34-3.85.58l-.7-.8c1.29-.29,2.64-.58,3.94-.79C840.24,74,840.64,72.82,841.05,71.62Z"/><path class="b" d="M844.35,75.79l.69,1c-.54,1.19-1.11,2.36-1.73,3.52-1.3,0-2.61.13-3.91.26l-.61-.86c1.31-.18,2.64-.34,4-.46C843.33,78.1,843.85,77,844.35,75.79Z"/><path class="b" d="M847.31,80.21l.59,1c-.65,1.15-1.31,2.27-2,3.36-1.32,0-2.63-.07-3.92,0-.18-.31-.34-.62-.53-.92,1.32-.08,2.64-.11,4-.12C846.09,82.43,846.71,81.33,847.31,80.21Z"/><path class="b" d="M849.88,84.87c.17.35.36.7.52,1.06-.75,1.09-1.51,2.16-2.29,3.19-1.31-.16-2.61-.29-3.88-.39l-.48-.94c1.34,0,2.68.09,4,.21C848.5,87,849.21,85.93,849.88,84.87Z"/><path class="b" d="M852.05,89.72l.43,1.11c-.8,1-1.68,2-2.54,3-1.28-.27-2.55-.51-3.85-.7l-.38-1c1.31.14,2.65.32,4,.54C850.5,91.71,851.28,90.73,852.05,89.72Z"/><path class="b" d="M853.83,94.74l.32,1.14c-.91,1-1.81,1.87-2.77,2.76-1.25-.38-2.53-.72-3.78-1l-.29-1c1.29.25,2.59.55,3.91.87C852.1,96.6,853,95.68,853.83,94.74Z"/><path class="b" d="M855.17,99.89c.09.39.18.77.24,1.16-1,.88-2,1.72-3,2.52-1.23-.48-2.45-.92-3.66-1.33-.06-.35-.15-.69-.23-1,1.3.36,2.57.76,3.83,1.2C853.3,101.59,854.26,100.75,855.17,99.89Z"/><path class="b" d="M856.08,105.14l.14,1.17c-1,.79-2.12,1.54-3.2,2.26-1.17-.58-2.34-1.13-3.55-1.63l-.13-1c1.24.46,2.48,1,3.73,1.51C854.08,106.67,855.08,105.92,856.08,105.14Z"/><path class="b" d="M856.57,110.43l0,1.18c-1.12.7-2.24,1.37-3.36,2-1.14-.68-2.29-1.32-3.43-1.92l0-1.06c1.19.56,2.37,1.17,3.56,1.81C854.43,111.8,855.5,111.13,856.57,110.43Z"/><circle class="af" cx="252.13" cy="351.06" r="64.19"/><use width="299.9" height="323.56" transform="translate(208.14 304.66) scale(0.26 0.26)" xlink:href="#x"/><path class="b" d="M316.57,353.15l0,1.19c-1.19.6-2.37,1.17-3.55,1.71-1.07-.77-2.13-1.5-3.22-2.19l0-1.06c1.15.66,2.32,1.36,3.43,2.09C314.37,354.35,315.47,353.77,316.57,353.15Z"/><path class="b" d="M316.19,358.46l-.16,1.17c-1.2.51-2.41,1-3.65,1.42-1-.85-2-1.67-3.05-2.45l.13-1.05c1.09.75,2.17,1.54,3.25,2.37C313.86,359.46,315,359,316.19,358.46Z"/><path class="b" d="M315.37,363.71c-.07.39-.17.77-.26,1.16q-1.89.61-3.75,1.11c-.94-.93-1.89-1.83-2.84-2.69.08-.34.16-.69.22-1,1.05.85,2,1.72,3,2.63C313,364.52,314.18,364.14,315.37,363.71Z"/><path class="b" d="M314.09,368.88l-.32,1.14c-1.29.3-2.58.56-3.86.79-.85-1-1.69-2-2.59-2.92l.29-1c.95.92,1.92,1.88,2.81,2.87C311.67,369.5,312.87,369.2,314.09,368.88Z"/><path class="b" d="M312.41,373.93,312,375c-1.29.2-2.58.36-3.89.47-.74-1.06-1.54-2.11-2.35-3.12l.39-1c.87,1,1.72,2,2.56,3.1C309.91,374.33,311.16,374.15,312.41,373.93Z"/><path class="b" d="M310.32,378.83l-.54,1.05c-1.31.08-2.62.13-3.9.15-.68-1.13-1.38-2.24-2.1-3.31.16-.32.34-.62.48-1,.79,1.07,1.54,2.16,2.28,3.29C307.78,379,309.05,378.94,310.32,378.83Z"/><path class="b" d="M307.81,383.52c-.2.34-.39.68-.6,1-1.33,0-2.64-.1-3.93-.19-.57-1.18-1.17-2.34-1.79-3.46L302,380c.7,1.14,1.38,2.3,2,3.48C305.3,383.51,306.56,383.53,307.81,383.52Z"/><path class="b" d="M304.93,388l-.69,1c-1.29-.12-2.6-.3-3.89-.5-.47-1.22-1-2.42-1.51-3.61l.62-.86c.6,1.18,1.18,2.4,1.73,3.64C302.42,387.77,303.67,387.89,304.93,388Z"/><path class="b" d="M301.7,392.22l-.77.89c-1.3-.25-2.55-.49-3.83-.81-.36-1.25-.79-2.52-1.21-3.73l.69-.79c.49,1.22,1,2.47,1.41,3.74C299.2,391.78,300.44,392,301.7,392.22Z"/><path class="b" d="M298.13,396.16c-.27.29-.55.56-.84.83-1.28-.35-2.53-.73-3.75-1.13q-.42-1.94-.9-3.81c.26-.23.5-.49.75-.74.41,1.28.76,2.54,1.09,3.85C295.67,395.51,296.92,395.87,298.13,396.16Z"/><path class="b" d="M294.24,399.79l-.89.77c-1.24-.45-2.47-.94-3.66-1.45-.17-1.31-.34-2.57-.58-3.86l.8-.69c.29,1.29.58,2.63.79,3.94C291.88,399,293,399.38,294.24,399.79Z"/><path class="b" d="M290.08,403.09l-1,.68c-1.19-.53-2.36-1.11-3.52-1.73,0-1.29-.13-2.6-.26-3.9l.86-.61c.19,1.31.34,2.64.46,4C287.76,402.06,288.91,402.59,290.08,403.09Z"/><path class="b" d="M285.66,406.05l-1,.59c-1.15-.65-2.27-1.31-3.36-2,.06-1.32.07-2.63.06-3.92l.91-.53c.08,1.32.11,2.64.12,4C283.43,404.82,284.53,405.45,285.66,406.05Z"/><path class="b" d="M281,408.61c-.35.18-.7.37-1.06.53-1.09-.75-2.16-1.52-3.19-2.3.17-1.31.3-2.6.39-3.88l.95-.47c0,1.34-.1,2.68-.21,4C278.89,407.24,279.93,408,281,408.61Z"/><path class="b" d="M276.14,410.79l-1.11.43c-1-.8-2-1.68-3-2.55.27-1.28.52-2.54.7-3.84l1-.38c-.14,1.31-.32,2.65-.54,4C274.15,409.24,275.13,410,276.14,410.79Z"/><path class="b" d="M271.12,412.57l-1.14.32c-1-.91-1.87-1.82-2.76-2.77.38-1.25.72-2.54,1-3.79l1-.28c-.25,1.29-.55,2.59-.87,3.9C269.27,410.83,270.18,411.71,271.12,412.57Z"/><path class="b" d="M266,413.91c-.39.08-.77.18-1.16.24-.87-1-1.72-2-2.52-3,.48-1.23.92-2.45,1.33-3.67.35-.05.69-.15,1-.22-.36,1.3-.76,2.56-1.2,3.83C264.27,412,265.11,413,266,413.91Z"/><path class="b" d="M260.73,414.81l-1.18.15c-.78-1-1.54-2.12-2.26-3.21.58-1.17,1.13-2.33,1.63-3.55l1.05-.13c-.46,1.24-1,2.49-1.5,3.74C259.19,412.82,259.94,413.82,260.73,414.81Z"/><path class="b" d="M255.43,415.31l-1.18,0c-.7-1.11-1.37-2.23-2-3.35.68-1.15,1.32-2.29,1.92-3.43l1.06,0c-.56,1.19-1.17,2.37-1.81,3.56C254.06,413.16,254.73,414.24,255.43,415.31Z"/><path class="b" d="M250.11,415.33l-1.18,0c-.6-1.18-1.17-2.37-1.71-3.55.77-1.07,1.5-2.13,2.19-3.22l1.06,0c-.66,1.15-1.36,2.32-2.1,3.43C248.92,413.13,249.5,414.23,250.11,415.33Z"/><path class="b" d="M244.81,415l-1.17-.16c-.51-1.2-1-2.41-1.42-3.65.85-1,1.67-2,2.45-3.05l1.05.13c-.75,1.09-1.54,2.17-2.37,3.25C243.81,412.62,244.29,413.78,244.81,415Z"/><path class="b" d="M239.55,414.13c-.39-.07-.77-.17-1.15-.26q-.61-1.89-1.11-3.75c.93-.94,1.83-1.89,2.69-2.84.34.08.68.17,1,.22-.84,1.05-1.71,2-2.62,3C238.75,411.72,239.13,412.94,239.55,414.13Z"/><path class="b" d="M234.39,412.85l-1.14-.32c-.3-1.29-.56-2.58-.79-3.86,1-.85,2-1.69,2.91-2.59l1,.29c-.92.95-1.89,1.93-2.87,2.81C233.77,410.43,234.06,411.63,234.39,412.85Z"/><path class="b" d="M229.34,411.17l-1.1-.44c-.2-1.29-.36-2.58-.47-3.89,1.06-.74,2.11-1.54,3.12-2.35l1,.39c-1,.87-2,1.72-3.09,2.56C228.94,408.67,229.12,409.92,229.34,411.17Z"/><path class="b" d="M224.44,409.08l-1.05-.54c-.08-1.31-.14-2.61-.16-3.9,1.14-.68,2.25-1.38,3.32-2.1.32.16.62.34.95.48-1.07.79-2.16,1.54-3.29,2.28C224.26,406.55,224.33,407.81,224.44,409.08Z"/><path class="b" d="M219.75,406.57c-.34-.2-.69-.39-1-.6,0-1.33.09-2.64.19-3.93,1.18-.57,2.34-1.17,3.46-1.78l.91.53c-1.13.7-2.29,1.38-3.47,2C219.76,404.06,219.73,405.32,219.75,406.57Z"/><path class="b" d="M215.28,403.69l-1-.69c.12-1.29.3-2.6.5-3.89,1.22-.47,2.41-.95,3.6-1.51l.86.62c-1.18.6-2.39,1.18-3.63,1.73C215.5,401.18,215.37,402.43,215.28,403.69Z"/><path class="b" d="M211.05,400.47l-.89-.78c.24-1.3.49-2.55.81-3.83,1.25-.36,2.51-.79,3.73-1.21l.79.69q-1.83.74-3.75,1.41C211.49,398,211.26,399.2,211.05,400.47Z"/><path class="b" d="M207.11,396.89c-.29-.27-.56-.55-.83-.84.35-1.28.73-2.53,1.13-3.75,1.29-.28,2.56-.58,3.8-.9.24.26.5.51.75.75-1.28.41-2.54.76-3.85,1.09C207.75,394.43,207.39,395.68,207.11,396.89Z"/><path class="b" d="M203.48,393l-.77-.89c.45-1.24.94-2.47,1.45-3.66,1.31-.17,2.57-.34,3.85-.58l.7.8c-1.29.29-2.64.58-3.94.79C204.29,390.64,203.89,391.8,203.48,393Z"/><path class="b" d="M200.18,388.84l-.69-1c.54-1.19,1.11-2.36,1.73-3.52,1.3,0,2.61-.13,3.91-.26l.61.86c-1.31.19-2.64.34-4,.46C201.2,386.52,200.68,387.67,200.18,388.84Z"/><path class="b" d="M197.22,384.42l-.59-1c.65-1.15,1.31-2.27,2-3.36,1.32.06,2.63.07,3.92.06.18.3.34.61.53.91-1.32.08-2.64.11-4,.12Q198.12,382.73,197.22,384.42Z"/><path class="b" d="M194.65,379.75c-.17-.35-.36-.7-.52-1.06.75-1.09,1.51-2.16,2.29-3.19,1.31.17,2.61.3,3.88.39l.48.95c-1.34,0-2.68-.1-4-.21C196,377.65,195.32,378.69,194.65,379.75Z"/><path class="b" d="M192.48,374.9l-.43-1.11c.8-1,1.68-2,2.54-3,1.28.27,2.55.52,3.85.7l.38,1c-1.31-.14-2.65-.32-4-.54C194,372.91,193.25,373.89,192.48,374.9Z"/><path class="b" d="M190.7,369.88l-.32-1.14c.91-.95,1.81-1.87,2.77-2.76,1.25.38,2.53.72,3.78,1l.29,1c-1.29-.25-2.59-.54-3.91-.87Q192,368.47,190.7,369.88Z"/><path class="b" d="M189.36,364.73c-.09-.39-.18-.77-.24-1.16,1-.87,2-1.72,3-2.52,1.23.48,2.45.93,3.66,1.33.06.35.15.69.23,1-1.3-.36-2.57-.76-3.83-1.2C191.23,363,190.27,363.87,189.36,364.73Z"/><path class="b" d="M188.45,359.49l-.14-1.18c1-.78,2.12-1.54,3.2-2.26,1.17.58,2.34,1.13,3.55,1.63l.13,1.05c-1.24-.46-2.48-1-3.73-1.5C190.45,358,189.45,358.7,188.45,359.49Z"/><path class="b" d="M188,354.19l0-1.18c1.12-.7,2.24-1.37,3.36-2,1.14.68,2.29,1.32,3.43,1.92l0,1.06c-1.19-.56-2.37-1.17-3.56-1.81C190.1,352.82,189,353.49,188,354.19Z"/><path class="b" d="M187.93,348.87l0-1.18q1.77-.9,3.54-1.71c1.08.77,2.14,1.5,3.23,2.19l0,1.06c-1.16-.66-2.32-1.36-3.43-2.09C190.14,347.68,189,348.26,187.93,348.87Z"/><path class="b" d="M188.32,343.57l.16-1.17c1.2-.51,2.4-1,3.65-1.42,1,.85,2,1.67,3.05,2.45l-.14,1.05q-1.62-1.12-3.24-2.37C190.64,342.57,189.49,343.05,188.32,343.57Z"/><path class="b" d="M189.14,338.31c.06-.39.17-.77.26-1.15,1.25-.41,2.51-.78,3.75-1.11.94.93,1.89,1.83,2.84,2.69-.08.34-.17.69-.22,1-1.05-.84-2-1.71-3-2.62C191.55,337.51,190.33,337.89,189.14,338.31Z"/><path class="b" d="M190.41,333.15l.33-1.14c1.29-.3,2.58-.56,3.85-.79.86,1,1.7,2,2.6,2.91l-.3,1c-.95-.92-1.92-1.89-2.81-2.87C192.84,332.53,191.64,332.82,190.41,333.15Z"/><path class="b" d="M192.1,328.1l.43-1.1c1.3-.2,2.58-.36,3.89-.47.74,1.06,1.54,2.11,2.36,3.12l-.39,1c-.87-1-1.73-2-2.56-3.09C194.59,327.7,193.35,327.88,192.1,328.1Z"/><path class="b" d="M194.19,323.2l.53-1.05c1.32-.08,2.62-.14,3.91-.16.68,1.14,1.38,2.25,2.09,3.32-.15.32-.33.62-.47.95-.8-1.07-1.54-2.16-2.28-3.29C196.72,323,195.45,323.09,194.19,323.2Z"/><path class="b" d="M196.7,318.51c.2-.34.39-.69.6-1,1.32,0,2.63.09,3.92.19.58,1.18,1.18,2.34,1.79,3.46l-.53.91c-.7-1.13-1.38-2.29-2-3.47C199.21,318.52,198,318.49,196.7,318.51Z"/><path class="b" d="M199.57,314l.69-1c1.3.12,2.61.3,3.9.5.46,1.22,1,2.41,1.5,3.6l-.61.87c-.6-1.18-1.18-2.4-1.73-3.64C202.09,314.26,200.84,314.14,199.57,314Z"/><path class="b" d="M202.8,309.81l.78-.89c1.3.24,2.55.49,3.83.81.35,1.25.78,2.51,1.21,3.73l-.69.79q-.75-1.83-1.41-3.75Q204.69,310.13,202.8,309.81Z"/><path class="b" d="M206.38,305.87c.27-.29.55-.56.84-.83,1.27.35,2.52.73,3.75,1.13.27,1.29.57,2.56.9,3.8-.26.24-.51.5-.75.75-.42-1.28-.76-2.54-1.09-3.85C208.83,306.51,207.59,306.16,206.38,305.87Z"/><path class="b" d="M210.27,302.24l.89-.77c1.24.45,2.47.94,3.66,1.45.16,1.31.34,2.57.58,3.86l-.81.69c-.29-1.29-.57-2.64-.78-3.94C212.63,303.05,211.47,302.65,210.27,302.24Z"/><path class="b" d="M214.43,298.94l1-.69c1.19.54,2.36,1.12,3.52,1.73,0,1.3.13,2.61.26,3.91l-.87.61q-.27-2-.45-4C216.74,300,215.6,299.44,214.43,298.94Z"/><path class="b" d="M218.85,296l1-.59c1.15.65,2.26,1.31,3.35,2,0,1.32-.06,2.63,0,3.92-.3.18-.62.34-.91.53-.08-1.32-.11-2.64-.12-4Q220.55,296.88,218.85,296Z"/><path class="b" d="M223.52,293.41c.35-.17.69-.36,1.06-.52,1.09.75,2.15,1.52,3.19,2.29-.17,1.31-.3,2.61-.39,3.88l-.95.48c0-1.34.1-2.68.21-4C225.62,294.79,224.58,294.08,223.52,293.41Z"/><path class="b" d="M228.37,291.24l1.1-.43c1,.8,2,1.68,3,2.55-.28,1.28-.52,2.54-.71,3.84l-1,.38c.14-1.31.32-2.65.53-4C230.36,292.79,229.38,292,228.37,291.24Z"/><path class="b" d="M233.39,289.46l1.14-.32c.95.91,1.86,1.81,2.76,2.77-.39,1.25-.72,2.53-1,3.78l-1,.29q.38-1.94.87-3.9C235.24,291.19,234.33,290.32,233.39,289.46Z"/><path class="b" d="M238.54,288.12c.38-.09.77-.18,1.16-.24.87,1,1.71,2,2.52,3-.48,1.23-.93,2.45-1.34,3.66-.34.06-.68.16-1,.23.35-1.3.75-2.57,1.19-3.83C240.24,290,239.4,289,238.54,288.12Z"/><path class="b" d="M243.78,287.21l1.18-.14c.78,1,1.54,2.12,2.26,3.2-.58,1.17-1.13,2.34-1.63,3.55l-1.05.13c.46-1.24,1-2.48,1.5-3.73C245.32,289.21,244.57,288.21,243.78,287.21Z"/><path class="b" d="M249.08,286.72l1.18,0c.7,1.12,1.36,2.24,2,3.36-.67,1.14-1.31,2.29-1.91,3.43l-1.06,0c.56-1.19,1.16-2.37,1.8-3.56C250.45,288.86,249.78,287.79,249.08,286.72Z"/><path class="b" d="M254.39,286.69l1.19,0c.6,1.18,1.17,2.37,1.71,3.54-.77,1.08-1.5,2.14-2.19,3.23l-1.06,0c.66-1.16,1.36-2.32,2.09-3.43C255.59,288.9,255,287.8,254.39,286.69Z"/><path class="b" d="M259.7,287.08l1.17.16c.51,1.2,1,2.4,1.42,3.65-.85,1-1.67,2-2.45,3.05l-1-.14q1.13-1.62,2.37-3.24C260.7,289.41,260.22,288.25,259.7,287.08Z"/><path class="b" d="M265,287.9c.39.06.77.17,1.16.26q.61,1.89,1.11,3.75c-.93.94-1.83,1.89-2.69,2.84-.35-.08-.69-.17-1-.22.85-1,1.71-2,2.63-3C265.76,290.31,265.38,289.09,265,287.9Z"/><path class="b" d="M270.12,289.17l1.14.33c.3,1.29.56,2.58.79,3.86-1,.85-2,1.69-2.92,2.59l-1-.3c.92-.95,1.88-1.92,2.87-2.81C270.74,291.6,270.44,290.4,270.12,289.17Z"/><path class="b" d="M275.17,290.86l1.1.43c.2,1.3.36,2.59.47,3.89-1.06.74-2.11,1.54-3.12,2.36l-1-.39c1-.87,2-1.72,3.1-2.56C275.57,293.36,275.39,292.11,275.17,290.86Z"/><path class="b" d="M280.07,293l1.05.53c.08,1.32.13,2.62.15,3.91-1.14.68-2.24,1.38-3.31,2.09-.32-.15-.62-.33-.95-.47,1.07-.8,2.16-1.54,3.29-2.28C280.25,295.48,280.18,294.21,280.07,293Z"/><path class="b" d="M284.76,295.46l1,.6c0,1.32-.1,2.63-.19,3.92-1.18.58-2.34,1.18-3.46,1.79l-.92-.53c1.14-.7,2.3-1.38,3.48-2C284.75,298,284.77,296.71,284.76,295.46Z"/><path class="b" d="M289.23,298.34l1,.68c-.12,1.3-.3,2.61-.5,3.9-1.22.46-2.42.95-3.61,1.5l-.86-.61c1.18-.6,2.4-1.18,3.64-1.73C289,300.85,289.13,299.6,289.23,298.34Z"/><path class="b" d="M293.46,301.56l.89.78c-.25,1.3-.49,2.55-.81,3.83-1.25.35-2.52.78-3.73,1.21l-.8-.69q1.85-.75,3.75-1.41C293,304.06,293.25,302.82,293.46,301.56Z"/><path class="b" d="M297.4,305.14c.29.27.56.55.83.84-.35,1.27-.73,2.53-1.13,3.75q-1.94.4-3.81.9c-.23-.26-.49-.51-.74-.75,1.28-.42,2.54-.76,3.85-1.09C296.75,307.59,297.11,306.35,297.4,305.14Z"/><path class="b" d="M301,309l.77.89c-.45,1.24-.95,2.47-1.45,3.66-1.31.16-2.57.34-3.86.58l-.69-.81c1.29-.29,2.63-.57,3.94-.78C300.22,311.39,300.62,310.23,301,309Z"/><path class="b" d="M304.33,313.19l.68,1c-.53,1.19-1.11,2.36-1.73,3.52-1.29,0-2.6.13-3.9.26l-.61-.87q2-.27,4-.45C303.3,315.5,303.83,314.36,304.33,313.19Z"/><path class="b" d="M307.29,317.61l.59,1c-.65,1.15-1.31,2.27-2,3.35-1.32-.05-2.63-.06-3.92-.05-.18-.3-.35-.62-.53-.91,1.32-.08,2.64-.11,4-.12C306.06,319.84,306.69,318.74,307.29,317.61Z"/><path class="b" d="M309.85,322.28c.18.35.37.69.53,1.06-.75,1.09-1.52,2.16-2.3,3.19-1.31-.17-2.6-.3-3.88-.39l-.47-.95c1.34,0,2.68.1,4,.21C308.47,324.38,309.19,323.34,309.85,322.28Z"/><path class="b" d="M312,327.13l.43,1.1c-.8,1-1.68,2-2.55,3-1.28-.28-2.54-.52-3.84-.71l-.38-1c1.31.14,2.65.32,4,.53C310.48,329.12,311.26,328.14,312,327.13Z"/><path class="b" d="M313.81,332.15l.32,1.14c-.91.95-1.82,1.86-2.77,2.76-1.25-.39-2.54-.72-3.79-1l-.28-1q1.93.38,3.9.87C312.07,334,313,333.09,313.81,332.15Z"/><path class="b" d="M315.15,337.3c.08.38.18.77.24,1.16-1,.87-2,1.71-3,2.52-1.23-.48-2.45-.93-3.67-1.33,0-.35-.15-.69-.22-1,1.3.36,2.56.76,3.83,1.19C313.28,339,314.24,338.16,315.15,337.3Z"/><path class="b" d="M316.05,342.54l.15,1.18c-1,.78-2.12,1.54-3.21,2.26-1.17-.58-2.33-1.13-3.55-1.63l-.13-1.05c1.24.46,2.49,1,3.74,1.5C314.06,344.08,315.06,343.33,316.05,342.54Z"/><path class="b" d="M316.55,347.84l0,1.18c-1.11.7-2.23,1.36-3.35,2-1.15-.67-2.29-1.31-3.43-1.91l0-1.06c1.19.56,2.37,1.16,3.56,1.8C314.4,349.21,315.48,348.54,316.55,347.84Z"/><circle class="af" cx="102.3" cy="152.05" r="64.19"/><use width="299.9" height="323.56" transform="translate(58.31 105.65) scale(0.26 0.26)" xlink:href="#x"/><path class="b" d="M166.74,154.15l0,1.18c-1.19.61-2.37,1.18-3.55,1.71-1.07-.76-2.13-1.49-3.22-2.19l0-1.06c1.15.67,2.32,1.36,3.43,2.1C164.54,155.34,165.64,154.76,166.74,154.15Z"/><path class="b" d="M166.35,159.45l-.15,1.17c-1.2.51-2.41,1-3.65,1.42-1-.85-2-1.66-3.05-2.45l.13-1.05c1.09.76,2.17,1.54,3.25,2.37C164,160.46,165.19,160,166.35,159.45Z"/><path class="b" d="M165.54,164.71c-.07.39-.18.77-.26,1.15-1.26.41-2.51.78-3.75,1.12-.94-.94-1.89-1.84-2.84-2.7.08-.34.16-.68.22-1,1.05.84,2,1.71,3,2.62C163.12,165.52,164.35,165.13,165.54,164.71Z"/><path class="b" d="M164.26,169.88l-.32,1.13c-1.29.3-2.58.56-3.86.79-.85-1-1.69-2-2.59-2.91l.29-1c.95.92,1.92,1.89,2.81,2.87C161.84,170.49,163,170.2,164.26,169.88Z"/><path class="b" d="M162.58,174.93l-.44,1.09c-1.29.2-2.58.36-3.89.48-.74-1.07-1.54-2.12-2.35-3.13l.39-1c.87,1,1.72,2,2.56,3.09C160.08,175.33,161.33,175.14,162.58,174.93Z"/><path class="b" d="M160.49,179.82l-.54,1.05c-1.31.09-2.62.14-3.9.16-.68-1.14-1.38-2.25-2.1-3.32.16-.31.34-.62.48-.94.79,1.07,1.54,2.15,2.28,3.28C158,180,159.22,179.93,160.49,179.82Z"/><path class="b" d="M158,184.51c-.2.34-.39.69-.6,1q-2,0-3.93-.18c-.57-1.19-1.17-2.34-1.79-3.47l.53-.91c.71,1.13,1.39,2.3,2,3.47C155.47,184.51,156.72,184.53,158,184.51Z"/><path class="b" d="M155.1,189l-.69,1c-1.29-.12-2.61-.31-3.89-.51-.47-1.22-1-2.41-1.51-3.6l.62-.86c.6,1.18,1.18,2.39,1.73,3.63C152.59,188.77,153.84,188.89,155.1,189Z"/><path class="b" d="M151.87,193.21l-.77.89c-1.3-.24-2.55-.49-3.83-.81-.36-1.25-.79-2.51-1.21-3.72l.69-.8q.74,1.83,1.41,3.75C149.37,192.77,150.61,193,151.87,193.21Z"/><path class="b" d="M148.3,197.15c-.27.29-.55.56-.84.83-1.28-.35-2.53-.73-3.75-1.13-.28-1.29-.58-2.56-.9-3.8.26-.24.5-.49.75-.75.41,1.28.76,2.55,1.09,3.85C145.84,196.51,147.09,196.87,148.3,197.15Z"/><path class="b" d="M144.41,200.78l-.89.77c-1.24-.45-2.47-.94-3.66-1.44-.17-1.31-.34-2.58-.58-3.86l.8-.69c.29,1.29.58,2.63.79,3.94C142.05,200,143.21,200.38,144.41,200.78Z"/><path class="b" d="M140.25,204.09l-1,.68c-1.19-.54-2.36-1.11-3.52-1.73,0-1.3-.13-2.61-.26-3.9l.86-.61c.19,1.3.34,2.63.46,4C137.93,203.06,139.08,203.58,140.25,204.09Z"/><path class="b" d="M135.83,207.05l-1,.59q-1.73-1-3.36-2c.05-1.32.07-2.63.06-3.92.3-.18.61-.34.91-.53.08,1.32.11,2.65.12,4C133.6,205.82,134.7,206.44,135.83,207.05Z"/><path class="b" d="M131.16,209.61c-.35.17-.7.37-1.06.52-1.09-.75-2.16-1.51-3.19-2.29.17-1.31.29-2.61.39-3.88l1-.48c0,1.34-.1,2.68-.21,4C129.06,208.23,130.1,208.94,131.16,209.61Z"/><path class="b" d="M126.31,211.79l-1.11.43c-1-.81-2-1.68-3-2.55.27-1.28.52-2.55.7-3.85l1-.38c-.14,1.31-.32,2.65-.54,4C124.32,210.23,125.3,211,126.31,211.79Z"/><path class="b" d="M121.29,213.56l-1.14.33c-1-.92-1.87-1.82-2.76-2.78.38-1.25.72-2.53,1-3.78l1-.29c-.25,1.29-.55,2.6-.87,3.91Q119.88,212.27,121.29,213.56Z"/><path class="b" d="M116.14,214.9c-.39.09-.77.18-1.16.24-.88-1-1.72-2-2.52-3,.48-1.23.92-2.46,1.33-3.67.35-.06.69-.15,1-.23-.36,1.3-.76,2.57-1.2,3.83C114.44,213,115.28,214,116.14,214.9Z"/><path class="b" d="M110.9,215.81l-1.18.14c-.78-1-1.54-2.12-2.26-3.2.58-1.17,1.13-2.34,1.63-3.55l1-.13c-.46,1.24-1,2.49-1.5,3.73C109.36,213.81,110.11,214.81,110.9,215.81Z"/><path class="b" d="M105.6,216.3l-1.18,0c-.7-1.12-1.37-2.24-2-3.36q1-1.71,1.92-3.42l1.06,0c-.56,1.19-1.17,2.38-1.81,3.57Q104.55,214.7,105.6,216.3Z"/><path class="b" d="M100.28,216.33l-1.18,0q-.9-1.77-1.71-3.54c.77-1.08,1.49-2.14,2.19-3.23l1.06,0c-.66,1.16-1.36,2.32-2.1,3.43C99.09,214.13,99.67,215.23,100.28,216.33Z"/><path class="b" d="M95,215.94l-1.17-.15c-.51-1.21-1-2.41-1.42-3.65.85-1,1.67-2,2.45-3.06l1,.14c-.75,1.08-1.54,2.17-2.37,3.24C94,213.62,94.46,214.78,95,215.94Z"/><path class="b" d="M89.72,215.12c-.39-.06-.77-.17-1.15-.25-.41-1.26-.78-2.51-1.11-3.76.93-.93,1.83-1.88,2.69-2.84.34.08.68.17,1,.22-.84,1-1.71,2-2.62,3C88.92,212.71,89.3,213.93,89.72,215.12Z"/><path class="b" d="M84.56,213.85l-1.14-.33c-.3-1.28-.56-2.58-.79-3.85,1-.86,2-1.7,2.91-2.59l1,.29c-.92.95-1.89,1.92-2.87,2.81C83.94,211.43,84.23,212.62,84.56,213.85Z"/><path class="b" d="M79.51,212.17l-1.1-.44c-.2-1.29-.36-2.58-.47-3.89,1.06-.74,2.11-1.54,3.12-2.36l1,.4c-1,.86-2,1.72-3.09,2.56C79.1,209.67,79.29,210.91,79.51,212.17Z"/><path class="b" d="M74.61,210.08l-1-.54c-.09-1.32-.14-2.62-.16-3.91,1.14-.68,2.25-1.38,3.32-2.09.32.16.62.33.94.47-1.07.8-2.15,1.54-3.28,2.28C74.43,207.54,74.5,208.81,74.61,210.08Z"/><path class="b" d="M69.92,207.57c-.34-.21-.69-.39-1-.6q0-2,.18-3.93c1.19-.58,2.35-1.18,3.47-1.79l.91.53c-1.13.71-2.29,1.39-3.47,2C69.93,205.05,69.9,206.31,69.92,207.57Z"/><path class="b" d="M65.45,204.69l-1-.69c.12-1.29.31-2.61.51-3.89,1.22-.47,2.41-1,3.6-1.51l.86.62c-1.18.59-2.39,1.17-3.63,1.72C65.67,202.18,65.54,203.42,65.45,204.69Z"/><path class="b" d="M61.22,201.46l-.89-.78c.24-1.3.49-2.55.81-3.83,1.25-.35,2.51-.78,3.72-1.21l.8.7c-1.22.49-2.47,1-3.75,1.4Q61.54,199.57,61.22,201.46Z"/><path class="b" d="M57.28,197.89c-.29-.27-.56-.56-.83-.85.35-1.27.73-2.52,1.13-3.75,1.29-.27,2.56-.57,3.8-.9.24.26.5.51.75.75-1.28.42-2.54.76-3.85,1.1C57.92,195.43,57.56,196.67,57.28,197.89Z"/><path class="b" d="M53.65,194l-.77-.9c.45-1.24.94-2.47,1.45-3.66,1.31-.16,2.57-.34,3.85-.57l.7.8c-1.29.29-2.64.57-4,.78C54.46,191.63,54.06,192.79,53.65,194Z"/><path class="b" d="M50.35,189.83l-.69-1c.54-1.18,1.11-2.35,1.73-3.51,1.3,0,2.61-.14,3.91-.27l.61.87q-2,.27-4,.45C51.37,187.52,50.85,188.66,50.35,189.83Z"/><path class="b" d="M47.39,185.41l-.59-1c.65-1.15,1.31-2.26,2-3.35,1.32.05,2.63.07,3.92.05.18.31.34.62.53.92-1.32.07-2.64.11-4,.11Q48.29,183.72,47.39,185.41Z"/><path class="b" d="M44.82,180.75c-.17-.36-.36-.7-.52-1.06.75-1.1,1.51-2.16,2.29-3.19,1.31.16,2.61.29,3.88.39l.48.94c-1.34,0-2.68-.09-4-.21C46.2,178.64,45.49,179.69,44.82,180.75Z"/><path class="b" d="M42.65,175.89l-.43-1.1c.8-1,1.67-2,2.54-3,1.28.28,2.55.52,3.85.71l.38,1c-1.31-.14-2.65-.32-4-.53C44.2,173.91,43.42,174.88,42.65,175.89Z"/><path class="b" d="M40.87,170.88l-.32-1.14c.91-1,1.81-1.87,2.77-2.76,1.25.38,2.53.71,3.78,1l.29,1c-1.29-.26-2.59-.55-3.91-.88C42.6,169,41.73,169.93,40.87,170.88Z"/><path class="b" d="M39.53,165.72c-.09-.38-.18-.76-.24-1.16,1-.87,2-1.71,3-2.52,1.23.48,2.45.93,3.66,1.34.06.35.15.69.23,1-1.3-.35-2.57-.75-3.83-1.19C41.4,164,40.44,164.86,39.53,165.72Z"/><path class="b" d="M38.62,160.48l-.14-1.17c1-.79,2.12-1.55,3.2-2.27,1.17.59,2.34,1.13,3.55,1.64l.13,1c-1.24-.47-2.48-1-3.73-1.51C40.62,158.94,39.62,159.69,38.62,160.48Z"/><path class="b" d="M38.13,155.18l0-1.18c1.12-.7,2.24-1.36,3.36-2,1.14.67,2.29,1.31,3.43,1.92l0,1.06c-1.19-.57-2.38-1.17-3.56-1.81C40.27,153.81,39.2,154.48,38.13,155.18Z"/><path class="b" d="M38.1,149.87l0-1.18c1.18-.61,2.36-1.18,3.54-1.72,1.08.77,2.14,1.5,3.23,2.19l0,1.06c-1.16-.66-2.32-1.36-3.43-2.09C40.31,148.68,39.21,149.26,38.1,149.87Z"/><path class="b" d="M38.49,144.57l.15-1.18c1.21-.51,2.41-1,3.66-1.42,1,.85,2,1.67,3.05,2.45l-.14,1.05c-1.08-.75-2.16-1.54-3.24-2.36C40.81,143.56,39.65,144.05,38.49,144.57Z"/><path class="b" d="M39.31,139.31c.06-.39.17-.77.26-1.16,1.25-.4,2.51-.77,3.75-1.11.94.93,1.89,1.83,2.84,2.69-.08.35-.17.69-.22,1-1-.85-2-1.71-3-2.63C41.72,138.5,40.5,138.88,39.31,139.31Z"/><path class="b" d="M40.58,134.14l.33-1.14c1.29-.3,2.58-.56,3.85-.79.86,1,1.7,2,2.6,2.92l-.3,1c-1-.92-1.92-1.89-2.81-2.87C43,133.52,41.81,133.82,40.58,134.14Z"/><path class="b" d="M42.27,129.09l.43-1.1c1.3-.2,2.58-.36,3.89-.47.74,1.06,1.54,2.11,2.36,3.13l-.39,1c-.87-1-1.73-2-2.56-3.1C44.76,128.69,43.52,128.88,42.27,129.09Z"/><path class="b" d="M44.36,124.2l.53-1.06c1.32-.08,2.62-.13,3.91-.15.68,1.14,1.38,2.24,2.09,3.31-.15.32-.33.63-.47,1-.8-1.07-1.54-2.16-2.28-3.29C46.89,124,45.62,124.08,44.36,124.2Z"/><path class="b" d="M46.87,119.51c.2-.34.39-.69.6-1,1.32,0,2.63.09,3.92.18.58,1.19,1.18,2.34,1.79,3.46l-.53.92c-.71-1.14-1.38-2.3-2-3.47C49.38,119.51,48.12,119.49,46.87,119.51Z"/><path class="b" d="M49.74,115l.69-1c1.3.12,2.61.3,3.9.5.46,1.23,1,2.42,1.5,3.61l-.61.86c-.6-1.18-1.18-2.4-1.73-3.63C52.26,115.25,51,115.13,49.74,115Z"/><path class="b" d="M53,110.8l.78-.89c1.3.25,2.55.5,3.83.81.35,1.25.78,2.52,1.21,3.73l-.7.8c-.49-1.22-1-2.47-1.4-3.75C55.47,111.24,54.23,111,53,110.8Z"/><path class="b" d="M56.55,106.87q.41-.44.84-.84c1.27.36,2.52.73,3.75,1.13q.4,1.95.9,3.81-.39.36-.75.75c-.42-1.29-.76-2.55-1.09-3.86C59,107.51,57.76,107.15,56.55,106.87Z"/><path class="b" d="M60.43,103.24l.9-.77c1.24.44,2.47.94,3.66,1.44.16,1.31.34,2.58.58,3.86l-.81.69c-.29-1.29-.57-2.63-.78-3.94C62.8,104,61.64,103.64,60.43,103.24Z"/><path class="b" d="M64.6,99.93l1-.68c1.19.54,2.36,1.11,3.51,1.73,0,1.29.14,2.6.27,3.9l-.87.61q-.27-2-.45-4C66.91,101,65.77,100.43,64.6,99.93Z"/><path class="b" d="M69,97l1-.59c1.15.65,2.26,1.32,3.35,2-.05,1.33-.06,2.64-.05,3.93-.3.17-.62.34-.91.53-.08-1.33-.11-2.65-.12-4C71.25,98.2,70.15,97.57,69,97Z"/><path class="b" d="M73.69,94.41c.35-.18.69-.37,1.06-.53,1.09.75,2.15,1.52,3.19,2.3-.17,1.31-.3,2.6-.39,3.88l-1,.47c0-1.34.09-2.67.21-4C75.79,95.79,74.75,95.08,73.69,94.41Z"/><path class="b" d="M78.54,92.23l1.1-.43c1,.81,2,1.68,3,2.55-.28,1.28-.52,2.54-.71,3.84l-1,.39c.14-1.32.32-2.65.53-4C80.53,93.79,79.55,93,78.54,92.23Z"/><path class="b" d="M83.56,90.45l1.14-.32c1,.92,1.86,1.82,2.76,2.77-.39,1.25-.72,2.54-1,3.79l-1,.28q.38-1.93.87-3.9C85.41,92.19,84.5,91.31,83.56,90.45Z"/><path class="b" d="M88.71,89.11c.38-.08.77-.18,1.16-.24.87,1,1.71,2,2.52,3-.48,1.23-.93,2.45-1.34,3.67-.34,0-.69.15-1,.22.35-1.3.75-2.56,1.19-3.82C90.41,91,89.57,90,88.71,89.11Z"/><path class="b" d="M94,88.21l1.18-.15c.78,1,1.54,2.13,2.26,3.21-.58,1.17-1.13,2.34-1.63,3.55L94.71,95c.46-1.24,1-2.49,1.5-3.74C95.49,90.21,94.74,89.21,94,88.21Z"/><path class="b" d="M99.25,87.72l1.18,0c.7,1.12,1.36,2.24,2,3.35-.67,1.15-1.31,2.29-1.91,3.43l-1.06,0c.56-1.18,1.16-2.37,1.8-3.56C100.62,89.86,100,88.79,99.25,87.72Z"/><path class="b" d="M104.56,87.69l1.18,0c.61,1.19,1.18,2.37,1.72,3.55-.77,1.07-1.5,2.14-2.19,3.22l-1.06,0c.66-1.15,1.36-2.32,2.09-3.42C105.76,89.89,105.18,88.79,104.56,87.69Z"/><path class="b" d="M109.87,88.08l1.17.15c.51,1.21,1,2.41,1.42,3.65-.85,1-1.67,2-2.45,3.06L109,94.8c.75-1.09,1.54-2.17,2.37-3.25C110.87,90.4,110.39,89.24,109.87,88.08Z"/><path class="b" d="M115.12,88.9c.39.06.77.17,1.16.25.4,1.26.78,2.51,1.11,3.75-.93.94-1.83,1.89-2.69,2.85-.35-.08-.69-.17-1-.23.85-1,1.71-2,2.63-3C115.93,91.31,115.55,90.08,115.12,88.9Z"/><path class="b" d="M120.29,90.17l1.14.33c.3,1.28.56,2.58.79,3.85-1,.85-2,1.69-2.92,2.59l-1-.29c.92-1,1.88-1.92,2.87-2.81C120.91,92.59,120.61,91.4,120.29,90.17Z"/><path class="b" d="M125.34,91.85l1.1.44c.2,1.29.36,2.58.47,3.89-1.06.74-2.11,1.54-3.12,2.35l-1-.39c1-.87,2-1.72,3.1-2.56C125.74,94.35,125.56,93.11,125.34,91.85Z"/><path class="b" d="M130.23,93.94l1.06.54q.12,2,.15,3.9c-1.14.68-2.24,1.38-3.31,2.1-.32-.16-.62-.34-.95-.48,1.07-.79,2.16-1.53,3.29-2.28C130.42,96.48,130.35,95.21,130.23,93.94Z"/><path class="b" d="M134.93,96.45c.34.2.68.39,1,.6,0,1.33-.1,2.64-.19,3.93-1.18.57-2.34,1.17-3.46,1.79l-.92-.53c1.14-.71,2.3-1.39,3.48-2C134.92,99,134.94,97.71,134.93,96.45Z"/><path class="b" d="M139.4,99.33l1,.69c-.12,1.29-.3,2.61-.5,3.89-1.22.47-2.42,1-3.61,1.51l-.86-.62c1.18-.6,2.4-1.18,3.64-1.73C139.18,101.84,139.3,100.6,139.4,99.33Z"/><path class="b" d="M143.63,102.56l.89.77c-.25,1.3-.49,2.56-.81,3.83-1.25.36-2.52.79-3.73,1.22l-.8-.7c1.22-.49,2.47-1,3.75-1.4C143.19,105.06,143.42,103.82,143.63,102.56Z"/><path class="b" d="M147.57,106.13c.29.27.56.55.83.84-.35,1.28-.73,2.53-1.13,3.75q-1.94.42-3.81.9a10.49,10.49,0,0,0-.75-.74c1.29-.42,2.55-.77,3.86-1.1C146.92,108.59,147.28,107.35,147.57,106.13Z"/><path class="b" d="M151.2,110l.77.9c-.45,1.23-.95,2.46-1.45,3.65-1.31.17-2.58.34-3.86.58l-.69-.8c1.29-.29,2.63-.58,3.94-.79C150.39,112.39,150.79,111.22,151.2,110Z"/><path class="b" d="M154.5,114.19l.68,1c-.53,1.19-1.11,2.36-1.73,3.52-1.29,0-2.6.13-3.9.26l-.61-.86c1.31-.18,2.64-.34,4-.46C153.47,116.5,154,115.35,154.5,114.19Z"/><path class="b" d="M157.46,118.61l.59,1c-.65,1.15-1.31,2.27-2,3.36-1.32,0-2.64-.07-3.92,0-.18-.31-.35-.62-.53-.92,1.32-.08,2.64-.11,4-.12C156.23,120.83,156.86,119.73,157.46,118.61Z"/><path class="b" d="M160,123.27c.18.35.37.7.53,1.06-.75,1.1-1.52,2.16-2.3,3.19-1.31-.16-2.6-.29-3.88-.39l-.47-.94c1.34,0,2.68.09,4,.21C158.64,125.37,159.35,124.33,160,123.27Z"/><path class="b" d="M162.2,128.13l.43,1.1c-.8,1-1.68,2-2.55,3-1.28-.27-2.54-.51-3.84-.7l-.39-1c1.32.15,2.66.32,4,.54C160.65,130.11,161.43,129.13,162.2,128.13Z"/><path class="b" d="M164,133.14l.32,1.14c-.92,1-1.82,1.87-2.77,2.76-1.25-.38-2.54-.72-3.79-1l-.28-1c1.29.26,2.59.55,3.9.88C162.24,135,163.12,134.08,164,133.14Z"/><path class="b" d="M165.32,138.29c.08.39.18.77.24,1.16-1,.88-2,1.72-3,2.52-1.23-.48-2.45-.92-3.67-1.33,0-.35-.15-.69-.22-1,1.3.36,2.56.76,3.83,1.2C163.45,140,164.41,139.15,165.32,138.29Z"/><path class="b" d="M166.22,143.54l.15,1.17c-1,.79-2.12,1.54-3.21,2.26-1.17-.58-2.33-1.12-3.55-1.63l-.13-1.05c1.24.46,2.49,1,3.74,1.51C164.23,145.08,165.23,144.32,166.22,143.54Z"/><path class="b" d="M166.72,148.83l0,1.18c-1.11.7-2.23,1.37-3.35,2-1.15-.68-2.29-1.32-3.43-1.92l0-1.06c1.18.57,2.37,1.17,3.56,1.81C164.57,150.2,165.65,149.53,166.72,148.83Z"/></svg>