<svg xmlns="http://www.w3.org/2000/svg" xmlns:xlink="http://www.w3.org/1999/xlink" viewBox="0 0 900 340"><defs><style>.a,.ac{fill:#4b4b4b;}.b,.n,.o{fill:#5abd80;}.c{fill:#66d38d;}.d{fill:#50b5c9;}.e{fill:#262626;}.f{fill:#333;}.g{fill:#969696;}.h{fill:#eae9e9;}.i{fill:#c2c2c2;}.j{fill:#d7d7d7;stroke:#e8e8e8;}.aa,.ab,.ac,.ad,.ae,.af,.ag,.j,.l,.m,.n,.o,.p,.q{stroke-miterlimit:10;}.k,.p,.s{fill:#fff;}.ab,.l,.w{fill:#ed2627;}.l,.m,.n{stroke:#f1e5ce;}.l,.m,.n,.p,.q{stroke-width:0.5px;}.m,.t{fill:#fec75e;}.o,.p,.q{stroke:#eae9e9;}.o{stroke-width:0.8px;}.ad,.ae,.q{fill:none;}.r{fill:#eceaff;}.s{opacity:0.24;}.u{fill:#fedd9e;}.v{fill:#ce9851;}.x{fill:#72cee7;}.y{fill:#4baabd;}.z{fill:#3e8a99;}.aa,.ag{fill:#e8f4ee;}.aa{stroke:#4b4b4b;}.ab,.ac{stroke:#3e8a99;stroke-width:0.25px;}.ad,.ag{stroke:#5abd80;}.ae,.af{stroke:#72cee7;}.af{fill:#e9f6fc;}.af,.ag{stroke-width:4px;}.ah{fill:#cdebd9;}.ai{fill:#130d0d;}</style><symbol id="b" viewBox="0 0 21.16 17.82"><polygon class="h" points="0 0 0.16 5.61 21.16 17.82 21.16 12.31 0 0"/><polygon class="b" points="0.49 0.87 0.64 5.25 15.38 13.77 15.38 9.47 0.49 0.87"/><polygon class="t" points="17.45 10.74 17.45 15.04 16.07 14.25 16.07 9.95 17.45 10.74"/><polygon class="w" points="19.56 12.02 19.56 16.31 18.18 15.52 18.18 11.22 19.56 12.02"/></symbol><symbol id="d" viewBox="0 0 6.67 7.71"><polygon class="t" points="0 0 0 3.85 6.67 7.71 6.67 3.85 0 0"/><polygon class="u" points="0 0.52 6.67 4.37 6.67 5.14 0 1.3 0 0.52"/><polygon class="v" points="0 3.43 6.67 7.29 6.67 7.43 0 3.58 0 3.43"/></symbol><symbol id="i" viewBox="0 0 8.15 5.95"><polygon class="a" points="0 0 0.06 1.73 5.88 5.09 5.88 3.39 0 0"/><ellipse class="b" cx="7.29" cy="4.96" rx="0.64" ry="1.14" transform="translate(-1.52 5.38) rotate(-36.95)"/><ellipse class="c" cx="7.29" cy="4.96" rx="0.43" ry="0.76" transform="translate(-1.52 5.38) rotate(-36.95)"/></symbol><symbol id="h" viewBox="0 0 10.6 18.87"><polygon class="d" points="0 0 10.46 6.04 10.6 18.87 0 12.75 0 0"/><use width="8.15" height="5.95" transform="translate(1.2 3.01) scale(1 1.05)" xlink:href="#i"/><use width="8.15" height="5.95" transform="translate(1.2 9.27)" xlink:href="#i"/><use width="8.15" height="5.95" transform="translate(1.2 6.21)" xlink:href="#i"/></symbol><symbol id="a" viewBox="0 0 231.21 171.61"><polygon class="x" points="0.21 57.3 132.21 133.51 132.21 171.61 0.21 95.4 0.21 57.3"/><polygon class="y" points="0 57.16 99 0 231 76.21 132 133.37 0 57.16"/><polygon class="z" points="231.21 114.46 231.21 76.35 132.21 133.51 132.21 171.61 231.21 114.46"/><polygon class="aa" points="127.85 135.22 127.85 152.81 98.5 135.87 98.5 118.92 127.85 135.22"/><polygon class="d" points="21.96 74.87 68.91 101.98 68.91 129.09 21.96 101.98 21.96 74.87"/><use width="21.16" height="17.82" transform="translate(24.28 88.22)" xlink:href="#b"/><use width="21.16" height="17.82" transform="translate(24.29 94.68)" xlink:href="#b"/><polygon class="a" points="17.54 73.14 17.54 100.04 5.89 93.32 5.86 66.39 17.54 73.14"/><polygon class="a" points="8.36 70.8 8.36 74.66 15.03 78.51 15.03 74.66 8.36 70.8"/><use width="6.67" height="7.71" transform="translate(8.36 71.32)" xlink:href="#d"/><use width="6.67" height="7.71" transform="translate(8.36 75.92)" xlink:href="#d"/><use width="6.67" height="7.71" transform="translate(8.36 83.62)" xlink:href="#d"/><use width="6.67" height="7.71" transform="translate(8.36 88.22)" xlink:href="#d"/><ellipse class="ab" cx="109.05" cy="150.34" rx="1.16" ry="2.05" transform="translate(-68.47 95.74) rotate(-36.95)"/><use width="10.6" height="18.87" transform="translate(71.49 103.47)" xlink:href="#h"/><use width="10.6" height="18.87" transform="translate(83.83 110.64)" xlink:href="#h"/><use width="10.6" height="18.87" transform="translate(71.49 118.09)" xlink:href="#h"/><use width="10.6" height="18.87" transform="translate(83.83 125.27)" xlink:href="#h"/><ellipse class="ac" cx="51.2" cy="112.58" rx="1.62" ry="2.87" transform="translate(-57.39 53.39) rotate(-36.95)"/><ellipse class="ac" cx="56.95" cy="115.9" rx="1.62" ry="2.87" transform="translate(-58.23 57.51) rotate(-36.95)"/><ellipse class="ac" cx="62.69" cy="118.92" rx="1.62" ry="2.87" transform="translate(-58.9 61.57) rotate(-36.95)"/></symbol><symbol id="y" viewBox="0 0 51.86 32.2"><polygon class="e" points="0 10.73 18.86 0 51.86 19.05 33 29.79 0 10.73"/><polygon class="f" points="33 32.2 33 29.79 51.86 19.05 51.86 21.47 33 32.2"/><polygon class="a" points="33 32.2 0 13.15 0 10.73 33 29.79 33 32.2"/></symbol><symbol id="ag" viewBox="0 0 66 40.52"><polygon class="e" points="0 19.05 33 0 66 19.05 33 38.1 0 19.05"/><polygon class="f" points="33 40.52 33 38.1 66 19.05 66 21.47 33 40.52"/><polygon class="a" points="33 40.52 0 21.47 0 19.05 33 38.1 33 40.52"/></symbol><symbol id="x" viewBox="0 0 299.9 323.56"><path class="g" d="M162.85,319.17v4.39c3,.13,127.44-69.8,127.44-69.8s2.27-5.84,1.31-8.44l-1.31,2.3L167.4,318.14Z"/><path class="h" d="M1.11,227.18l-1-2.06a11.09,11.09,0,0,0,1,5.88s157.36,93.54,161.74,92.56v-4.39L158.14,318Z"/><path class="i" d="M158.14,318l-155.93-90c-2.67-1.53-2.87-4-.44-5.4l124.64-70.32a10.19,10.19,0,0,1,9.27.18l153.78,90c2.67,1.54,2.87,4,.44,5.41L167.4,318.14A10.16,10.16,0,0,1,158.14,318Z"/><path class="j" d="M185.15,288.65,50.46,210.88c-2.3-1.32-2.47-3.43-.38-4.67l79-44.18a8.83,8.83,0,0,1,8,.16L269.89,240c2.31,1.32,2.48,3.42.39,4.67L193.15,288.8A8.79,8.79,0,0,1,185.15,288.65Z"/><use width="51.86" height="32.21" transform="translate(151.87 181.68) scale(0.33)" xlink:href="#y"/><use width="51.86" height="32.21" transform="translate(165.22 189.33) scale(0.33)" xlink:href="#y"/><use width="51.86" height="32.21" transform="translate(178.57 196.98) scale(0.33)" xlink:href="#y"/><use width="51.86" height="32.21" transform="translate(191.92 204.63) scale(0.33)" xlink:href="#y"/><use width="51.86" height="32.21" transform="translate(205.27 212.27) scale(0.33)" xlink:href="#y"/><use width="51.86" height="32.21" transform="translate(218.62 219.92) scale(0.33)" xlink:href="#y"/><use width="51.86" height="32.21" transform="translate(231.77 227.46) scale(0.33)" xlink:href="#y"/><use width="51.86" height="32.21" transform="translate(245.09 235.09) scale(0.33)" xlink:href="#y"/><use width="66" height="40.52" transform="translate(138.82 186.89) scale(0.33)" xlink:href="#ag"/><use width="66" height="40.52" transform="translate(152.14 194.53) scale(0.33)" xlink:href="#ag"/><use width="66" height="40.52" transform="translate(165.46 202.16) scale(0.33)" xlink:href="#ag"/><use width="66" height="40.52" transform="translate(178.79 209.79) scale(0.33)" xlink:href="#ag"/><use width="66" height="40.52" transform="translate(192.11 217.42) scale(0.33)" xlink:href="#ag"/><use width="66" height="40.52" transform="translate(205.43 225.05) scale(0.33)" xlink:href="#ag"/><polygon class="e" points="218.75 238.93 229.56 232.69 253.69 246.56 242.88 252.8 218.75 238.93"/><polygon class="f" points="242.88 253.59 242.88 252.8 253.69 246.56 253.69 247.35 242.88 253.59"/><polygon class="a" points="242.88 253.59 218.75 239.72 218.75 238.93 242.88 252.8 242.88 253.59"/><use width="66" height="40.52" transform="translate(125.6 194.53) scale(0.33)" xlink:href="#ag"/><use width="66" height="40.52" transform="translate(138.92 202.16) scale(0.33)" xlink:href="#ag"/><use width="66" height="40.52" transform="translate(152.24 209.79) scale(0.33)" xlink:href="#ag"/><use width="66" height="40.52" transform="translate(165.57 217.42) scale(0.33)" xlink:href="#ag"/><use width="66" height="40.52" transform="translate(178.89 225.05) scale(0.33)" xlink:href="#ag"/><use width="66" height="40.52" transform="translate(192.21 232.69) scale(0.33)" xlink:href="#ag"/><use width="66" height="40.52" transform="translate(205.53 240.32) scale(0.33)" xlink:href="#ag"/><polygon class="e" points="205.63 261.82 229.66 247.95 240.47 254.19 216.44 268.06 205.63 261.82"/><polygon class="f" points="216.44 268.86 216.44 268.06 240.47 254.19 240.47 254.98 216.44 268.86"/><polygon class="a" points="216.44 268.86 205.63 262.62 205.63 261.82 216.44 268.06 216.44 268.86"/><use width="66" height="40.52" transform="translate(112.38 202.16) scale(0.33)" xlink:href="#ag"/><use width="66" height="40.52" transform="translate(125.7 209.79) scale(0.33)" xlink:href="#ag"/><use width="66" height="40.52" transform="translate(139.02 217.42) scale(0.33)" xlink:href="#ag"/><use width="66" height="40.52" transform="translate(152.35 225.05) scale(0.33)" xlink:href="#ag"/><use width="66" height="40.52" transform="translate(165.67 232.69) scale(0.33)" xlink:href="#ag"/><use width="66" height="40.52" transform="translate(178.99 240.32) scale(0.33)" xlink:href="#ag"/><use width="66" height="40.52" transform="translate(192.31 247.95) scale(0.33)" xlink:href="#ag"/><use width="66" height="40.52" transform="translate(99.16 209.79) scale(0.33)" xlink:href="#ag"/><use width="66" height="40.52" transform="translate(112.48 217.42) scale(0.33)" xlink:href="#ag"/><use width="66" height="40.52" transform="translate(125.81 225.05) scale(0.33)" xlink:href="#ag"/><use width="66" height="40.52" transform="translate(139.13 232.69) scale(0.33)" xlink:href="#ag"/><use width="66" height="40.52" transform="translate(152.45 240.32) scale(0.33)" xlink:href="#ag"/><polygon class="e" points="165.77 254.19 176.58 247.95 214.03 269.46 203.22 275.7 165.77 254.19"/><polygon class="f" points="203.22 276.49 203.22 275.7 214.03 269.46 214.03 270.25 203.22 276.49"/><polygon class="a" points="203.22 276.49 165.77 254.98 165.77 254.19 203.22 275.7 203.22 276.49"/><use width="66" height="40.52" transform="translate(85.94 217.42) scale(0.33)" xlink:href="#ag"/><use width="51.86" height="32.21" transform="translate(138.73 174.04) scale(0.33)" xlink:href="#y"/><use width="66" height="40.52" transform="translate(125.7 179.26) scale(0.33)" xlink:href="#ag"/><use width="66" height="40.52" transform="translate(86.04 202.16) scale(0.33)" xlink:href="#ag"/><use width="66" height="40.52" transform="translate(72.82 209.79) scale(0.33)" xlink:href="#ag"/><use width="51.86" height="32.21" transform="translate(125.81 166.32) scale(0.33)" xlink:href="#y"/><use width="66" height="40.52" transform="translate(112.59 171.63) scale(0.33)" xlink:href="#ag"/><polygon class="e" points="99.16 185.5 109.97 179.26 134.1 193.13 123.29 199.38 99.16 185.5"/><polygon class="f" points="123.29 200.17 123.29 199.38 134.1 193.13 134.1 193.93 123.29 200.17"/><polygon class="a" points="123.29 200.17 99.16 186.29 99.16 185.5 123.29 199.38 123.29 200.17"/><polygon class="e" points="86.15 193.13 96.96 186.89 120.88 200.77 110.07 207.01 86.15 193.13"/><polygon class="f" points="110.07 207.8 110.07 207.01 120.88 200.77 120.88 201.56 110.07 207.8"/><polygon class="a" points="110.07 207.8 86.15 193.93 86.15 193.13 110.07 207.01 110.07 207.8"/><use width="66" height="40.52" transform="translate(72.93 194.53) scale(0.33)" xlink:href="#ag"/><use width="66" height="40.52" transform="translate(59.71 202.16) scale(0.33)" xlink:href="#ag"/><polygon class="e" points="99.26 231.3 110.07 225.06 160.85 254.19 150.04 260.43 99.26 231.3"/><polygon class="f" points="150.04 261.23 150.04 260.43 160.85 254.19 160.85 254.98 150.04 261.23"/><polygon class="a" points="150.04 261.23 99.26 232.09 99.26 231.3 150.04 260.43 150.04 261.23"/><use width="66" height="40.52" transform="translate(152.55 255.58) scale(0.33)" xlink:href="#ag"/><use width="66" height="40.52" transform="translate(165.87 263.22) scale(0.33)" xlink:href="#ag"/><use width="66" height="40.52" transform="translate(179.2 270.85) scale(0.33)" xlink:href="#ag"/><polygon class="j" points="92.04 241.84 128.44 262.85 104.18 276.86 67.78 255.85 92.04 241.84"/><path class="i" d="M296.81,91.38l-156-91c-1.83-1.06-3.43.17-3.56,2.74l-7.16,141.63c-.13,2.57,1.25,5.55,3.08,6.61l156,91c1.82,1.07,3.43-.17,3.56-2.74L299.89,98C300,95.42,298.63,92.45,296.81,91.38Z"/><path class="k" d="M285,233.55a1.92,1.92,0,0,1-.94-.29L139.36,148.88c-1.53-.89-2.73-3.5-2.62-5.69l6.55-127.93c.08-1.47.71-2.43,1.62-2.43a1.92,1.92,0,0,1,.94.29L290.51,97.51c1.53.89,2.73,3.49,2.62,5.69l-6.55,127.92c-.08,1.48-.71,2.43-1.62,2.43Z"/><path class="h" d="M144.91,13.33a1.42,1.42,0,0,1,.68.22L290.26,97.94c1.36.79,2.47,3.24,2.37,5.23L286.08,231.1c-.06,1.17-.51,2-1.12,2a1.42,1.42,0,0,1-.68-.22L139.61,148.45c-1.36-.8-2.47-3.24-2.37-5.23l6.55-127.93c.06-1.17.51-2,1.12-2m0-1c-1.16,0-2,1.1-2.12,2.91l-6.55,127.92c-.12,2.39,1.17,5.16,2.87,6.15l144.66,84.38a2.32,2.32,0,0,0,1.19.36c1.15,0,2-1.09,2.12-2.9l6.55-127.93c.12-2.39-1.17-5.16-2.87-6.15L146.1,12.69a2.42,2.42,0,0,0-1.19-.36Z"/><ellipse class="l" cx="149.78" cy="24.74" rx="1.6" ry="2.6" transform="translate(1.63 57.87) rotate(-21.99)"/><ellipse class="m" cx="155.13" cy="27.85" rx="1.6" ry="2.6" transform="translate(0.86 60.1) rotate(-21.99)"/><ellipse class="n" cx="160.47" cy="30.96" rx="1.6" ry="2.6" transform="translate(0.08 62.33) rotate(-21.99)"/><polygon class="o" points="278.12 218.05 144.92 141.36 150.44 47.73 281.46 123.93 278.12 218.05"/><polygon class="p" points="281.8 119.11 150.78 42.91 151.31 35.09 282.33 111.29 281.8 119.11"/><path class="q" d="M279.65,113.72a2.11,2.11,0,0,1-.14,1c-.35.8-1.22.8-1.95,0a3,3,0,0,1-.69-2.91.88.88,0,0,1,.94-.59"/><polygon class="h" points="277.93 112.14 278.54 111.23 277.51 110.26 277.93 112.14"/><path class="r" d="M155.78,42.11l-.08,1.19-.2-.11.21-3,.19.11-.09,1.32a.32.32,0,0,1,.21-.15.5.5,0,0,1,.31.08,1,1,0,0,1,.39.45,1.19,1.19,0,0,1,.1.6l-.09,1.28-.19-.11.09-1.24a.93.93,0,0,0-.08-.45.69.69,0,0,0-.3-.35.27.27,0,0,0-.32,0A.5.5,0,0,0,155.78,42.11Z"/><path class="r" d="M157.71,41.78l0,.62.4.23,0,.23-.39-.23-.09,1.18a.52.52,0,0,0,.24.51.34.34,0,0,0,.14,0v.21a.36.36,0,0,1-.2-.07.7.7,0,0,1-.28-.31.94.94,0,0,1-.08-.48l.08-1.21-.32-.19V42.1l.12.07c.15.08.23,0,.24-.16l0-.34Z"/><path class="r" d="M158.81,42.42l0,.62.4.23v.23l-.4-.23-.08,1.18a.49.49,0,0,0,.23.51.39.39,0,0,0,.14,0v.21a.32.32,0,0,1-.19-.07.67.67,0,0,1-.29-.31.94.94,0,0,1-.08-.48l.08-1.21-.32-.18v-.23l.12.07c.15.08.23,0,.24-.16l0-.34Z"/><path class="r" d="M159.57,46.36l-.19-.11.19-2.75.18.11,0,.39a.37.37,0,0,1,.21-.18.51.51,0,0,1,.38.07,1.22,1.22,0,0,1,.49.59,1.86,1.86,0,0,1,.13.84.88.88,0,0,1-.24.63.43.43,0,0,1-.53,0,1,1,0,0,1-.35-.34,1.59,1.59,0,0,1-.18-.4Zm1-.65a.7.7,0,0,0,.18-.5,1.44,1.44,0,0,0-.1-.66.88.88,0,0,0-.37-.46.31.31,0,0,0-.4,0,.72.72,0,0,0-.19.49,1.5,1.5,0,0,0,.11.67.91.91,0,0,0,.37.46A.31.31,0,0,0,160.56,45.71Z"/><path class="r" d="M161.17,45.94l.19,0a.88.88,0,0,0,.1.4.74.74,0,0,0,.29.29.31.31,0,0,0,.25.05.22.22,0,0,0,.12-.2.6.6,0,0,0-.24-.49l-.26-.22a.88.88,0,0,1-.33-.74.34.34,0,0,1,.18-.32.41.41,0,0,1,.38,0,1,1,0,0,1,.38.41,1.19,1.19,0,0,1,.13.44l-.18,0a.73.73,0,0,0-.08-.33.67.67,0,0,0-.27-.28.26.26,0,0,0-.23,0,.21.21,0,0,0-.12.19.54.54,0,0,0,.22.45l.25.22a1,1,0,0,1,.36.78.37.37,0,0,1-.17.32.38.38,0,0,1-.41,0,1,1,0,0,1-.41-.43A1.16,1.16,0,0,1,161.17,45.94Z"/><path class="r" d="M163,47.48a.11.11,0,0,1-.12,0,.3.3,0,0,1-.12-.13.29.29,0,0,1,0-.18.15.15,0,0,1,.06-.13.11.11,0,0,1,.12,0s.08.07.12.13a.29.29,0,0,1,0,.18C163,47.42,163,47.46,163,47.48Zm0-1.58a.36.36,0,0,1-.11-.13.39.39,0,0,1,0-.18c0-.07,0-.11.06-.13a.11.11,0,0,1,.12,0,.3.3,0,0,1,.12.13.39.39,0,0,1,0,.18c0,.06,0,.11-.06.13A.12.12,0,0,1,162.94,45.9Z"/><path class="r" d="M164.79,45.54l-1.31,2.29-.19-.11,1.31-2.29Z"/><path class="r" d="M166,46.24l-1.3,2.28-.19-.11,1.3-2.28Z"/><path class="r" d="M167,47.81l.2.12.35,1.93.52-1.42.2.11-.64,1.68-.21-.12-.35-1.94-.57,1.4-.21-.12-.38-2.27.22.13.3,1.9Z"/><path class="r" d="M169.45,49.25l.21.12L170,51.3l.52-1.43.21.12-.65,1.67-.2-.12-.35-1.93L169,51l-.21-.12-.37-2.27.21.12.3,1.91Z"/><path class="r" d="M171.92,50.69l.21.12.34,1.93.53-1.43.2.12-.65,1.67-.2-.12L172,51.05l-.57,1.4-.21-.12-.38-2.27.21.12.3,1.91Z"/><path class="r" d="M173.36,53.59a.3.3,0,0,1-.12-.13.46.46,0,0,1,0-.19.17.17,0,0,1,.06-.12s.08,0,.13,0a.31.31,0,0,1,.11.14.3.3,0,0,1,0,.18.15.15,0,0,1-.06.13S173.41,53.61,173.36,53.59Z"/><path class="r" d="M174.21,54.06,174,54l.21-3,.19.11Z"/><path class="r" d="M175.91,54.39l.17.18a.51.51,0,0,1-.27.3.52.52,0,0,1-.45-.08,1.25,1.25,0,0,1-.5-.58,1.71,1.71,0,0,1-.17-.9.84.84,0,0,1,.26-.62.43.43,0,0,1,.52,0,1.22,1.22,0,0,1,.51.58,1.8,1.8,0,0,1,.14.83.54.54,0,0,0,0,.08l-1.23-.71v0a1.29,1.29,0,0,0,.13.64.88.88,0,0,0,.37.43.4.4,0,0,0,.34.06A.4.4,0,0,0,175.91,54.39Zm-1-1.11,1,.59a1.24,1.24,0,0,0-.11-.54,1,1,0,0,0-.36-.41.34.34,0,0,0-.37,0A.51.51,0,0,0,174.91,53.28Z"/><path class="r" d="M177.43,53.89l.21.12.34,1.93.52-1.42.21.11-.65,1.68-.2-.12-.35-1.94-.57,1.4-.21-.12-.38-2.27.21.13.3,1.9Z"/><path class="r" d="M178.92,56.68a.9.9,0,0,1-.11-.47c0-.31.19-.42.51-.31l.41.16c.11,0,.17,0,.18-.1a.84.84,0,0,0-.08-.38.78.78,0,0,0-.28-.29.34.34,0,0,0-.31,0,.32.32,0,0,0-.15.26l-.18-.16a.41.41,0,0,1,.22-.34.5.5,0,0,1,.43.07,1.19,1.19,0,0,1,.43.46,1.24,1.24,0,0,1,.11.57l-.07,1c0,.11,0,.23,0,.35l-.18-.11a2,2,0,0,1,0-.35.32.32,0,0,1-.21.15.47.47,0,0,1-.35-.07A1,1,0,0,1,178.92,56.68Zm.09-.36a.69.69,0,0,0,.07.3.58.58,0,0,0,.24.25.37.37,0,0,0,.37,0,.48.48,0,0,0,.18-.39v-.24h-.08a.33.33,0,0,1-.13,0l-.34-.13C179.13,56,179,56.1,179,56.32Z"/><path class="r" d="M180.36,57.76l.19.05a1,1,0,0,0,.13.49.94.94,0,0,0,.32.36c.19.11.34.12.43,0a.64.64,0,0,0,.15-.46l0-.36a.31.31,0,0,1-.2.16.44.44,0,0,1-.35-.07,1.2,1.2,0,0,1-.47-.56,1.53,1.53,0,0,1-.15-.79.74.74,0,0,1,.24-.57.42.42,0,0,1,.51,0,.87.87,0,0,1,.33.3,1.22,1.22,0,0,1,.17.39l0-.35.19.11-.12,1.83a.91.91,0,0,1-.2.57c-.14.14-.34.14-.59,0a1.16,1.16,0,0,1-.45-.48A1.24,1.24,0,0,1,180.36,57.76Zm.38-.45a.92.92,0,0,0,.36.43.31.31,0,0,0,.39,0,.63.63,0,0,0,.17-.45,1.36,1.36,0,0,0-.1-.6.84.84,0,0,0-.36-.42c-.15-.09-.28-.1-.38,0a.55.55,0,0,0-.18.44A1.25,1.25,0,0,0,180.74,57.31Z"/><path class="r" d="M182.49,57.08a.48.48,0,0,1,.55,0,1.24,1.24,0,0,1,.52.6,1.78,1.78,0,0,1,.17.88.76.76,0,0,1-.27.62.5.5,0,0,1-.56,0,1.39,1.39,0,0,1-.51-.6,1.69,1.69,0,0,1-.17-.88A.76.76,0,0,1,182.49,57.08Zm0,1.43a.93.93,0,0,0,.38.44.35.35,0,0,0,.4,0,.6.6,0,0,0,.21-.5,1.39,1.39,0,0,0-.12-.7.93.93,0,0,0-.38-.44.35.35,0,0,0-.41,0,.64.64,0,0,0-.2.51A1.35,1.35,0,0,0,182.54,58.51Z"/><path class="r" d="M184.35,58.74l-.08,1.17-.2-.11.14-2,.19.11,0,.34c.12-.2.29-.23.53-.1a.94.94,0,0,1,.39.46,1.17,1.17,0,0,1,.1.59l-.09,1.29-.19-.12.09-1.24a1,1,0,0,0-.08-.45.66.66,0,0,0-.3-.34.27.27,0,0,0-.33,0A.51.51,0,0,0,184.35,58.74Z"/><path class="r" d="M186,60.91a.36.36,0,0,1-.11-.13.39.39,0,0,1,0-.18.15.15,0,0,1,.06-.13.11.11,0,0,1,.12,0,.3.3,0,0,1,.12.13.46.46,0,0,1,0,.19c0,.06,0,.1-.06.12A.12.12,0,0,1,186,60.91Z"/><path class="r" d="M187.62,60.16a.84.84,0,0,0-.32-.35.35.35,0,0,0-.41,0,.69.69,0,0,0-.21.51,1.43,1.43,0,0,0,.13.68.89.89,0,0,0,.37.45.35.35,0,0,0,.36,0,.39.39,0,0,0,.18-.23l.16.19a.46.46,0,0,1-.25.29.49.49,0,0,1-.46-.06,1.32,1.32,0,0,1-.52-.61,1.62,1.62,0,0,1-.16-.87.77.77,0,0,1,.26-.62.5.5,0,0,1,.56,0,1.21,1.21,0,0,1,.43.44,1.42,1.42,0,0,1,.18.56h-.17A1.31,1.31,0,0,0,187.62,60.16Z"/><path class="r" d="M188.42,60.53a.5.5,0,0,1,.56,0,1.28,1.28,0,0,1,.51.6,1.68,1.68,0,0,1,.17.88.76.76,0,0,1-.27.62.5.5,0,0,1-.56,0,1.39,1.39,0,0,1-.51-.6,1.8,1.8,0,0,1-.17-.88A.76.76,0,0,1,188.42,60.53Zm.05,1.43a.93.93,0,0,0,.38.44.36.36,0,0,0,.41,0,.67.67,0,0,0,.21-.5,1.51,1.51,0,0,0-.13-.7.92.92,0,0,0-.38-.44.33.33,0,0,0-.4,0,.61.61,0,0,0-.21.51A1.35,1.35,0,0,0,188.47,62Z"/><path class="r" d="M190.2,63.36l-.19-.11.13-2,.19.11,0,.33a.27.27,0,0,1,.2-.16.42.42,0,0,1,.31.07.86.86,0,0,1,.3.3,1,1,0,0,1,.15.42c.12-.24.31-.28.56-.13a.9.9,0,0,1,.37.4,1.22,1.22,0,0,1,.11.62l-.09,1.3-.19-.11.09-1.27a1,1,0,0,0-.08-.44.67.67,0,0,0-.28-.32.27.27,0,0,0-.32,0,.48.48,0,0,0-.15.35l-.08,1.2-.19-.11.09-1.27a.93.93,0,0,0-.08-.44.73.73,0,0,0-.28-.32.27.27,0,0,0-.32,0,.44.44,0,0,0-.15.35Z"/><polygon class="s" points="176.68 169.09 287.76 123.19 247.8 165.59 243.54 166.32 176.68 169.09"/></symbol></defs><title>websocket</title><polygon class="b" points="303.09 155.82 305.86 155.83 310.54 164.34 305.52 172.78 302.75 172.78 307.65 163.98 303.09 155.82"/><polygon class="b" points="312.83 155.82 315.6 155.83 320.27 164.34 315.25 172.78 312.48 172.78 317.39 163.98 312.83 155.82"/><polygon class="b" points="322.56 155.82 325.33 155.83 330.01 164.34 324.99 172.78 322.22 172.78 327.12 163.98 322.56 155.82"/><polygon class="b" points="332.3 155.82 335.07 155.83 339.74 164.34 334.72 172.78 331.95 172.78 336.86 163.98 332.3 155.82"/><polygon class="b" points="342.03 155.82 344.8 155.83 349.48 164.34 344.46 172.78 341.69 172.78 346.59 163.98 342.03 155.82"/><polygon class="b" points="351.76 155.82 354.54 155.83 359.21 164.34 354.19 172.78 351.42 172.78 356.32 163.98 351.76 155.82"/><polygon class="b" points="361.5 155.82 364.27 155.83 368.95 164.34 363.93 172.78 361.16 172.78 366.06 163.98 361.5 155.82"/><polygon class="b" points="371.24 155.82 374 155.83 378.68 164.34 373.66 172.78 370.89 172.78 375.8 163.98 371.24 155.82"/><polygon class="b" points="380.97 155.82 383.74 155.83 388.42 164.34 383.4 172.78 380.63 172.78 385.53 163.98 380.97 155.82"/><polygon class="b" points="390.7 155.82 393.48 155.83 398.15 164.34 393.13 172.78 390.36 172.78 395.26 163.98 390.7 155.82"/><polygon class="b" points="400.44 155.82 403.21 155.83 407.88 164.34 402.87 172.78 400.1 172.78 405 163.98 400.44 155.82"/><polygon class="b" points="410.17 155.82 412.94 155.83 417.62 164.34 412.6 172.78 409.83 172.78 414.73 163.98 410.17 155.82"/><polygon class="b" points="419.91 155.82 422.68 155.83 427.36 164.34 422.34 172.78 419.57 172.78 424.47 163.98 419.91 155.82"/><polygon class="b" points="429.64 155.82 432.41 155.83 437.09 164.34 432.07 172.78 429.3 172.78 434.2 163.98 429.64 155.82"/><polygon class="b" points="439.38 155.82 442.15 155.83 446.82 164.34 441.81 172.78 439.04 172.78 443.94 163.98 439.38 155.82"/><polygon class="b" points="449.11 155.82 451.88 155.83 456.56 164.34 451.54 172.78 448.77 172.78 453.67 163.98 449.11 155.82"/><polygon class="b" points="458.85 155.82 461.62 155.83 466.29 164.34 461.28 172.78 458.51 172.78 463.41 163.98 458.85 155.82"/><polygon class="b" points="468.58 155.82 471.35 155.83 476.03 164.34 471.01 172.78 468.24 172.78 473.14 163.98 468.58 155.82"/><polygon class="b" points="478.32 155.82 481.09 155.83 485.76 164.34 480.75 172.78 477.98 172.78 482.88 163.98 478.32 155.82"/><polygon class="b" points="488.05 155.82 490.82 155.83 495.5 164.34 490.48 172.78 487.71 172.78 492.61 163.98 488.05 155.82"/><polygon class="b" points="497.79 155.82 500.56 155.83 505.23 164.34 500.22 172.78 497.44 172.78 502.35 163.98 497.79 155.82"/><polygon class="b" points="507.52 155.82 510.29 155.83 514.97 164.34 509.95 172.78 507.18 172.78 512.08 163.98 507.52 155.82"/><polygon class="b" points="517.26 155.82 520.03 155.83 524.7 164.34 519.68 172.78 516.91 172.78 521.82 163.98 517.26 155.82"/><polygon class="b" points="526.99 155.82 529.76 155.83 534.44 164.34 529.42 172.78 526.65 172.78 531.55 163.98 526.99 155.82"/><polygon class="b" points="536.73 155.82 539.5 155.83 544.17 164.34 539.15 172.78 536.38 172.78 541.29 163.98 536.73 155.82"/><polygon class="b" points="546.46 155.82 549.23 155.83 553.91 164.34 548.89 172.78 546.12 172.78 551.02 163.98 546.46 155.82"/><polygon class="b" points="556.2 155.82 558.97 155.83 563.64 164.34 558.63 172.78 555.85 172.78 560.76 163.98 556.2 155.82"/><polygon class="b" points="565.93 155.82 568.7 155.83 573.38 164.34 568.36 172.78 565.59 172.78 570.49 163.98 565.93 155.82"/><polygon class="b" points="575.67 155.82 578.44 155.83 583.11 164.34 578.09 172.78 575.32 172.78 580.23 163.98 575.67 155.82"/><polygon class="b" points="585.4 155.82 588.17 155.83 592.85 164.34 587.83 172.78 585.06 172.78 589.96 163.98 585.4 155.82"/><polygon class="x" points="310.19 192.62 307.42 192.61 302.75 184.1 307.77 175.66 310.54 175.66 305.63 184.46 310.19 192.62"/><polygon class="x" points="319.93 192.62 317.16 192.61 312.48 184.1 317.5 175.66 320.27 175.66 315.37 184.46 319.93 192.62"/><polygon class="x" points="329.66 192.62 326.89 192.61 322.22 184.1 327.24 175.66 330.01 175.66 325.1 184.46 329.66 192.62"/><polygon class="x" points="339.4 192.62 336.63 192.61 331.95 184.1 336.97 175.66 339.74 175.66 334.84 184.46 339.4 192.62"/><polygon class="x" points="349.13 192.62 346.36 192.61 341.69 184.1 346.71 175.66 349.48 175.66 344.57 184.46 349.13 192.62"/><polygon class="x" points="358.87 192.62 356.1 192.61 351.42 184.1 356.44 175.66 359.21 175.66 354.31 184.46 358.87 192.62"/><polygon class="x" points="368.6 192.62 365.83 192.61 361.16 184.1 366.18 175.66 368.95 175.66 364.04 184.46 368.6 192.62"/><polygon class="x" points="378.34 192.62 375.57 192.61 370.89 184.1 375.91 175.66 378.68 175.66 373.78 184.46 378.34 192.62"/><polygon class="x" points="388.07 192.62 385.3 192.61 380.63 184.1 385.64 175.66 388.42 175.66 383.51 184.46 388.07 192.62"/><polygon class="x" points="397.81 192.62 395.04 192.61 390.36 184.1 395.38 175.66 398.15 175.66 393.25 184.46 397.81 192.62"/><polygon class="x" points="407.54 192.62 404.77 192.61 400.1 184.1 405.12 175.66 407.88 175.66 402.98 184.46 407.54 192.62"/><polygon class="x" points="417.28 192.62 414.51 192.61 409.83 184.1 414.85 175.66 417.62 175.66 412.72 184.46 417.28 192.62"/><polygon class="x" points="427.01 192.62 424.24 192.61 419.57 184.1 424.58 175.66 427.36 175.66 422.45 184.46 427.01 192.62"/><polygon class="x" points="436.75 192.62 433.98 192.61 429.3 184.1 434.32 175.66 437.09 175.66 432.19 184.46 436.75 192.62"/><polygon class="x" points="446.48 192.62 443.71 192.61 439.04 184.1 444.05 175.66 446.82 175.66 441.92 184.46 446.48 192.62"/><polygon class="x" points="456.22 192.62 453.45 192.61 448.77 184.1 453.79 175.66 456.56 175.66 451.66 184.46 456.22 192.62"/><polygon class="x" points="465.95 192.62 463.18 192.61 458.51 184.1 463.52 175.66 466.29 175.66 461.39 184.46 465.95 192.62"/><polygon class="x" points="475.69 192.62 472.92 192.61 468.24 184.1 473.26 175.66 476.03 175.66 471.13 184.46 475.69 192.62"/><polygon class="x" points="485.42 192.62 482.65 192.61 477.98 184.1 482.99 175.66 485.76 175.66 480.86 184.46 485.42 192.62"/><polygon class="x" points="495.16 192.62 492.39 192.61 487.71 184.1 492.73 175.66 495.5 175.66 490.6 184.46 495.16 192.62"/><polygon class="x" points="504.89 192.62 502.12 192.61 497.44 184.1 502.46 175.66 505.23 175.66 500.33 184.46 504.89 192.62"/><polygon class="x" points="514.63 192.62 511.86 192.61 507.18 184.1 512.2 175.66 514.97 175.66 510.07 184.46 514.63 192.62"/><polygon class="x" points="524.36 192.62 521.59 192.61 516.91 184.1 521.93 175.66 524.7 175.66 519.8 184.46 524.36 192.62"/><polygon class="x" points="534.1 192.62 531.33 192.61 526.65 184.1 531.67 175.66 534.44 175.66 529.54 184.46 534.1 192.62"/><polygon class="x" points="543.83 192.62 541.06 192.61 536.38 184.1 541.4 175.66 544.17 175.66 539.27 184.46 543.83 192.62"/><polygon class="x" points="553.57 192.62 550.79 192.61 546.12 184.1 551.14 175.66 553.91 175.66 549 184.46 553.57 192.62"/><polygon class="x" points="563.3 192.62 560.53 192.61 555.85 184.1 560.87 175.66 563.64 175.66 558.74 184.46 563.3 192.62"/><polygon class="x" points="573.03 192.62 570.26 192.61 565.59 184.1 570.61 175.66 573.38 175.66 568.48 184.46 573.03 192.62"/><polygon class="x" points="582.77 192.62 580 192.61 575.32 184.1 580.34 175.66 583.11 175.66 578.21 184.46 582.77 192.62"/><polygon class="x" points="592.5 192.62 589.73 192.61 585.06 184.1 590.08 175.66 592.85 175.66 587.95 184.46 592.5 192.62"/><line class="ad" x1="295.44" y1="152.61" x2="599.74" y2="152.61"/><line class="ae" x1="293.05" y1="195.27" x2="603.1" y2="195.27"/><circle class="af" cx="717.47" cy="164.87" r="117.96"/><circle class="ag" cx="178.13" cy="166.24" r="117.96"/><path class="k" d="M692.89,83.56a5.08,5.08,0,0,0-5.08-5.08l-.41,0a6.39,6.39,0,0,0-11-1.75,2.6,2.6,0,0,0-4,1.68h-.05a5.13,5.13,0,0,0-.59,10.22l16.48,0A5.06,5.06,0,0,0,692.89,83.56Z"/><path class="k" d="M805.26,114.64a9,9,0,0,0-9-9c-.25,0-.49,0-.73,0a11.33,11.33,0,0,0-19.46-3.1,4.57,4.57,0,0,0-2.5-.75,4.62,4.62,0,0,0-4.52,3.73H769a9.08,9.08,0,0,0-1.05,18.09l29.17-.07A9,9,0,0,0,805.26,114.64Z"/><use width="231.21" height="171.61" transform="matrix(0.74, 0, 0, 0.74, 631.73, 108.41)" xlink:href="#a"/><polygon class="ah" points="159.72 153.6 176.91 147.06 273.97 199.13 204.35 236.81 176.59 236.81 159.72 153.6"/><use width="299.9" height="323.56" transform="translate(97.29 80.97) scale(0.48 0.48)" xlink:href="#x"/><path class="ai" d="M349.32,121.05H349v3h-2.89V97.6h3v10.52h.28a6.54,6.54,0,0,1,5.94-3.33c4.81,0,7.94,3.85,7.94,9.81s-3.14,9.81-7.94,9.81A6.79,6.79,0,0,1,349.32,121.05Zm-.21-6.45c0,4.38,2.14,7.09,5.59,7.09s5.51-2.66,5.51-7.09-2-7.08-5.51-7.08S349.11,110.22,349.11,114.6Z"/><path class="ai" d="M367.56,99.36a2.11,2.11,0,1,1,2.11,2.11A2.12,2.12,0,0,1,367.56,99.36Zm.6,5.77h3v19h-3Z"/><path class="ai" d="M376,114.6c0-5.94,3.15-9.81,8-9.81a6.46,6.46,0,0,1,5.94,3.33h.27V97.6h3v26.48h-2.88v-3H390a6.8,6.8,0,0,1-6.07,3.36C379.11,124.41,376,120.56,376,114.6Zm3.13,0c0,4.43,2.07,7.09,5.54,7.09s5.57-2.71,5.57-7.09-2.15-7.08-5.57-7.08S379.13,110.19,379.13,114.6Z"/><path class="ai" d="M398.54,99.36a2.11,2.11,0,1,1,2.1,2.11A2.11,2.11,0,0,1,398.54,99.36Zm.59,5.77h3v19h-3Z"/><path class="ai" d="M407.92,105.13h2.88v2.81h.29c.56-1.85,2.74-3.15,5.25-3.15a13.48,13.48,0,0,1,1.51.09v3a12.14,12.14,0,0,0-1.93-.17,4.64,4.64,0,0,0-5,4.6v11.75h-3Z"/><path class="ai" d="M436.68,119.17c-.88,3.24-3.83,5.24-8,5.24-5.26,0-8.54-3.8-8.54-9.79s3.34-9.83,8.54-9.83,8.23,3.64,8.23,9.53v1.16H423.3v.14c.16,3.75,2.25,6.12,5.47,6.12,2.44,0,4.1-.9,4.89-2.57ZM423.3,113h10.44c-.07-3.36-2.07-5.58-5.08-5.58S423.53,109.68,423.3,113Z"/><path class="ai" d="M454.29,110.93a4.69,4.69,0,0,0-4.88-3.41c-3.41,0-5.56,2.72-5.56,7s2.18,7.16,5.56,7.16c2.55,0,4.32-1.18,4.88-3.33h3.06c-.54,3.48-3.37,6-7.93,6-5.3,0-8.7-3.85-8.7-9.88s3.38-9.74,8.69-9.74c4.6,0,7.41,2.76,7.94,6.14Z"/><path class="ai" d="M466.46,100.22v4.91h4.22v2.53h-4.22v10.72c0,2.23.84,3.18,2.81,3.18a13.72,13.72,0,0,0,1.41-.07V124a9.77,9.77,0,0,1-1.78.18c-3.9,0-5.47-1.44-5.47-5.07V107.66h-3.05v-2.53h3.05v-4.91Z"/><path class="ai" d="M474.72,99.36a2.11,2.11,0,1,1,2.11,2.11A2.12,2.12,0,0,1,474.72,99.36Zm.6,5.77h3v19h-3Z"/><path class="ai" d="M483.16,114.6c0-6.1,3.34-9.81,8.73-9.81s8.74,3.71,8.74,9.81-3.34,9.81-8.74,9.81S483.16,120.68,483.16,114.6Zm14.34,0c0-4.5-2-7.08-5.61-7.08s-5.6,2.58-5.6,7.08,2,7.09,5.6,7.09S497.5,119.08,497.5,114.6Z"/><path class="ai" d="M505.38,105.13h2.88v3h.28c.95-2.1,2.79-3.33,5.69-3.33,4.26,0,6.63,2.52,6.63,7v12.27h-3V112.54c0-3.41-1.44-5-4.47-5s-5,2-5,5.34v11.22h-3Z"/><path class="ai" d="M525.26,118.77c0-3.39,2.49-5.35,6.9-5.61l5.47-.33V111.1c0-2.33-1.46-3.62-4.29-3.62-2.27,0-3.85.86-4.27,2.36H526c.41-3,3.39-5,7.44-5,4.62,0,7.2,2.38,7.2,6.31v13h-2.88v-2.8h-.28a6.55,6.55,0,0,1-5.84,3.13C528,124.41,525.26,122.23,525.26,118.77ZM537.63,117v-1.74l-5.1.33c-2.88.2-4.15,1.2-4.15,3.1s1.64,3.06,3.84,3.06C535.33,121.76,537.63,119.72,537.63,117Z"/><path class="ai" d="M546.42,97.6h3v26.48h-3Z"/></svg>