<svg width="71" height="71" viewBox="0 0 71 71" fill="none" xmlns="http://www.w3.org/2000/svg">
<rect width="71" height="71" fill="#EEEEEE"/>
<mask id="path-2-inside-1_203_511" fill="white">
<path fill-rule="evenodd" clip-rule="evenodd" d="M35 36.5C38.5899 36.5 41.5 33.5899 41.5 30C41.5 26.4101 38.5899 23.5 35 23.5C31.4102 23.5 28.5 26.4101 28.5 30C28.5 33.5899 31.4102 36.5 35 36.5ZM46 23.5H43.875C45.211 25.321 46 27.5684 46 30C46 36.0751 41.0751 41 35 41C28.9249 41 24 36.0751 24 30C24 23.9249 28.9249 19 35 19H46V23.5ZM35 42.0001C41.0751 42.0001 46 46.925 46 53.0001H41.5C41.5 49.4103 38.5899 46.5001 35 46.5001C31.4102 46.5001 28.5 49.4103 28.5 53.0001H24C24 46.925 28.9249 42.0001 35 42.0001Z"/>
</mask>
<path fill-rule="evenodd" clip-rule="evenodd" d="M35 36.5C38.5899 36.5 41.5 33.5899 41.5 30C41.5 26.4101 38.5899 23.5 35 23.5C31.4102 23.5 28.5 26.4101 28.5 30C28.5 33.5899 31.4102 36.5 35 36.5ZM46 23.5H43.875C45.211 25.321 46 27.5684 46 30C46 36.0751 41.0751 41 35 41C28.9249 41 24 36.0751 24 30C24 23.9249 28.9249 19 35 19H46V23.5ZM35 42.0001C41.0751 42.0001 46 46.925 46 53.0001H41.5C41.5 49.4103 38.5899 46.5001 35 46.5001C31.4102 46.5001 28.5 49.4103 28.5 53.0001H24C24 46.925 28.9249 42.0001 35 42.0001Z" fill="black"/>
<path d="M43.875 23.5V22.5H41.9012L43.0688 24.0915L43.875 23.5ZM46 23.5V24.5H47V23.5H46ZM46 19H47V18H46V19ZM46 53.0001V54.0001H47V53.0001H46ZM41.5 53.0001H40.5V54.0001H41.5V53.0001ZM28.5 53.0001V54.0001H29.5V53.0001H28.5ZM24 53.0001H23V54.0001H24V53.0001ZM40.5 30C40.5 33.0376 38.0376 35.5 35 35.5V37.5C39.1421 37.5 42.5 34.1421 42.5 30H40.5ZM35 24.5C38.0376 24.5 40.5 26.9624 40.5 30H42.5C42.5 25.8579 39.1421 22.5 35 22.5V24.5ZM29.5 30C29.5 26.9624 31.9624 24.5 35 24.5V22.5C30.8579 22.5 27.5 25.8579 27.5 30H29.5ZM35 35.5C31.9624 35.5 29.5 33.0376 29.5 30H27.5C27.5 34.1421 30.8579 37.5 35 37.5V35.5ZM43.875 24.5H46V22.5H43.875V24.5ZM47 30C47 27.3485 46.1389 24.8952 44.6813 22.9085L43.0688 24.0915C44.2831 25.7468 45 27.7882 45 30H47ZM35 42C41.6274 42 47 36.6274 47 30H45C45 35.5228 40.5229 40 35 40V42ZM23 30C23 36.6274 28.3726 42 35 42V40C29.4772 40 25 35.5228 25 30H23ZM35 18C28.3726 18 23 23.3726 23 30H25C25 24.4772 29.4772 20 35 20V18ZM46 18H35V20H46V18ZM47 23.5V19H45V23.5H47ZM47 53.0001C47 46.3727 41.6274 41.0001 35 41.0001V43.0001C40.5229 43.0001 45 47.4773 45 53.0001H47ZM41.5 54.0001H46V52.0001H41.5V54.0001ZM35 47.5001C38.0376 47.5001 40.5 49.9626 40.5 53.0001H42.5C42.5 48.858 39.1421 45.5001 35 45.5001V47.5001ZM29.5 53.0001C29.5 49.9626 31.9624 47.5001 35 47.5001V45.5001C30.8579 45.5001 27.5 48.858 27.5 53.0001H29.5ZM24 54.0001H28.5V52.0001H24V54.0001ZM35 41.0001C28.3726 41.0001 23 46.3727 23 53.0001H25C25 47.4773 29.4772 43.0001 35 43.0001V41.0001Z" fill="black" mask="url(#path-2-inside-1_203_511)"/>
</svg>
