<svg width="71" height="71" viewBox="0 0 71 71" fill="none" xmlns="http://www.w3.org/2000/svg">
<rect width="71" height="71" fill="#EEEEEE"/>
<mask id="path-2-inside-1_292_499" fill="white">
<path fill-rule="evenodd" clip-rule="evenodd" d="M35 36.5C38.5899 36.5 41.5 33.5899 41.5 30C41.5 26.4101 38.5899 23.5 35 23.5C31.4101 23.5 28.5 26.4101 28.5 30C28.5 33.5899 31.4101 36.5 35 36.5ZM46 23.5H43.875C45.211 25.321 46 27.5684 46 30C46 36.0751 41.0751 41 35 41C28.9249 41 24 36.0751 24 30C24 23.9249 28.9249 19 35 19H46V23.5ZM35 53C28.9249 53 24 48.0751 24 42H28.5C28.5 45.5899 31.4101 48.5 35 48.5C38.5899 48.5 41.5 45.5899 41.5 42H46C46 48.0751 41.0751 53 35 53Z"/>
</mask>
<path fill-rule="evenodd" clip-rule="evenodd" d="M35 36.5C38.5899 36.5 41.5 33.5899 41.5 30C41.5 26.4101 38.5899 23.5 35 23.5C31.4101 23.5 28.5 26.4101 28.5 30C28.5 33.5899 31.4101 36.5 35 36.5ZM46 23.5H43.875C45.211 25.321 46 27.5684 46 30C46 36.0751 41.0751 41 35 41C28.9249 41 24 36.0751 24 30C24 23.9249 28.9249 19 35 19H46V23.5ZM35 53C28.9249 53 24 48.0751 24 42H28.5C28.5 45.5899 31.4101 48.5 35 48.5C38.5899 48.5 41.5 45.5899 41.5 42H46C46 48.0751 41.0751 53 35 53Z" fill="#C0C0C0"/>
<path d="M43.875 23.5V22.5H41.9012L43.0688 24.0915L43.875 23.5ZM46 23.5V24.5H47V23.5H46ZM46 19H47V18H46V19ZM24 42V41H23V42H24ZM28.5 42H29.5V41H28.5V42ZM41.5 42V41H40.5V42H41.5ZM46 42H47V41H46V42ZM40.5 30C40.5 33.0376 38.0376 35.5 35 35.5V37.5C39.1421 37.5 42.5 34.1421 42.5 30H40.5ZM35 24.5C38.0376 24.5 40.5 26.9624 40.5 30H42.5C42.5 25.8579 39.1421 22.5 35 22.5V24.5ZM29.5 30C29.5 26.9624 31.9624 24.5 35 24.5V22.5C30.8579 22.5 27.5 25.8579 27.5 30H29.5ZM35 35.5C31.9624 35.5 29.5 33.0376 29.5 30H27.5C27.5 34.1421 30.8579 37.5 35 37.5V35.5ZM43.875 24.5H46V22.5H43.875V24.5ZM47 30C47 27.3485 46.1389 24.8952 44.6813 22.9085L43.0688 24.0915C44.2831 25.7468 45 27.7882 45 30H47ZM35 42C41.6274 42 47 36.6274 47 30H45C45 35.5228 40.5228 40 35 40V42ZM23 30C23 36.6274 28.3726 42 35 42V40C29.4772 40 25 35.5228 25 30H23ZM35 18C28.3726 18 23 23.3726 23 30H25C25 24.4772 29.4772 20 35 20V18ZM46 18H35V20H46V18ZM47 23.5V19H45V23.5H47ZM23 42C23 48.6274 28.3726 54 35 54V52C29.4772 52 25 47.5228 25 42H23ZM28.5 41H24V43H28.5V41ZM35 47.5C31.9624 47.5 29.5 45.0376 29.5 42H27.5C27.5 46.1421 30.8579 49.5 35 49.5V47.5ZM40.5 42C40.5 45.0376 38.0376 47.5 35 47.5V49.5C39.1421 49.5 42.5 46.1421 42.5 42H40.5ZM46 41H41.5V43H46V41ZM35 54C41.6274 54 47 48.6274 47 42H45C45 47.5228 40.5228 52 35 52V54Z" fill="#C0C0C0" mask="url(#path-2-inside-1_292_499)"/>
</svg>
