<svg width="22" height="34" viewBox="0 0 22 34" fill="none" xmlns="http://www.w3.org/2000/svg">
<mask id="path-1-inside-1_66_405" fill="white">
<path fill-rule="evenodd" clip-rule="evenodd" d="M11 17.5C14.5899 17.5 17.5 14.5899 17.5 11C17.5 7.41015 14.5899 4.5 11 4.5C7.41015 4.5 4.5 7.41015 4.5 11C4.5 14.5899 7.41015 17.5 11 17.5ZM22 4.5H19.875C21.211 6.32102 22 8.56837 22 11C22 17.0751 17.0751 22 11 22C4.92487 22 0 17.0751 0 11C0 4.92487 4.92487 0 11 0H22V4.5ZM11 34C4.92487 34 0 29.0751 0 23H4.5C4.5 26.5899 7.41015 29.5 11 29.5C14.5899 29.5 17.5 26.5899 17.5 23H22C22 29.0751 17.0751 34 11 34Z"/>
</mask>
<path fill-rule="evenodd" clip-rule="evenodd" d="M11 17.5C14.5899 17.5 17.5 14.5899 17.5 11C17.5 7.41015 14.5899 4.5 11 4.5C7.41015 4.5 4.5 7.41015 4.5 11C4.5 14.5899 7.41015 17.5 11 17.5ZM22 4.5H19.875C21.211 6.32102 22 8.56837 22 11C22 17.0751 17.0751 22 11 22C4.92487 22 0 17.0751 0 11C0 4.92487 4.92487 0 11 0H22V4.5ZM11 34C4.92487 34 0 29.0751 0 23H4.5C4.5 26.5899 7.41015 29.5 11 29.5C14.5899 29.5 17.5 26.5899 17.5 23H22C22 29.0751 17.0751 34 11 34Z" fill="black"/>
<path d="M19.875 4.5V3.5H17.9012L19.0688 5.09152L19.875 4.5ZM22 4.5V5.5H23V4.5H22ZM22 0H23V-1H22V0ZM0 23V22H-1V23H0ZM4.5 23H5.5V22H4.5V23ZM17.5 23V22H16.5V23H17.5ZM22 23H23V22H22V23ZM16.5 11C16.5 14.0376 14.0376 16.5 11 16.5V18.5C15.1421 18.5 18.5 15.1421 18.5 11H16.5ZM11 5.5C14.0376 5.5 16.5 7.96243 16.5 11H18.5C18.5 6.85786 15.1421 3.5 11 3.5V5.5ZM5.5 11C5.5 7.96243 7.96243 5.5 11 5.5V3.5C6.85786 3.5 3.5 6.85786 3.5 11H5.5ZM11 16.5C7.96243 16.5 5.5 14.0376 5.5 11H3.5C3.5 15.1421 6.85786 18.5 11 18.5V16.5ZM19.875 5.5H22V3.5H19.875V5.5ZM23 11C23 8.34852 22.1389 5.89524 20.6813 3.90848L19.0688 5.09152C20.2831 6.7468 21 8.78822 21 11H23ZM11 23C17.6274 23 23 17.6274 23 11H21C21 16.5228 16.5228 21 11 21V23ZM-1 11C-1 17.6274 4.37258 23 11 23V21C5.47715 21 1 16.5228 1 11H-1ZM11 -1C4.37258 -1 -1 4.37258 -1 11H1C1 5.47715 5.47715 1 11 1V-1ZM22 -1H11V1H22V-1ZM23 4.5V0H21V4.5H23ZM-1 23C-1 29.6274 4.37258 35 11 35V33C5.47715 33 1 28.5228 1 23H-1ZM4.5 22H0V24H4.5V22ZM11 28.5C7.96243 28.5 5.5 26.0376 5.5 23H3.5C3.5 27.1421 6.85786 30.5 11 30.5V28.5ZM16.5 23C16.5 26.0376 14.0376 28.5 11 28.5V30.5C15.1421 30.5 18.5 27.1421 18.5 23H16.5ZM22 22H17.5V24H22V22ZM11 35C17.6274 35 23 29.6274 23 23H21C21 28.5228 16.5228 33 11 33V35Z" fill="black" mask="url(#path-1-inside-1_66_405)"/>
</svg>
