<svg width="71" height="71" viewBox="0 0 71 71" fill="none" xmlns="http://www.w3.org/2000/svg">
<rect width="71" height="71" fill="#EEEEEE"/>
<mask id="path-2-inside-1_292_499" fill="white">
<path fill-rule="evenodd" clip-rule="evenodd" d="M35 30.5C38.5899 30.5 41.5 27.5899 41.5 24C41.5 20.4101 38.5899 17.5 35 17.5C31.4101 17.5 28.5 20.4101 28.5 24C28.5 27.5899 31.4101 30.5 35 30.5ZM46 17.5H43.875C45.211 19.321 46 21.5684 46 24C46 30.0751 41.0751 35 35 35C28.9249 35 24 30.0751 24 24C24 17.9249 28.9249 13 35 13H46V17.5ZM35 47C28.9249 47 24 42.0751 24 36H28.5C28.5 39.5899 31.4101 42.5 35 42.5C38.5899 42.5 41.5 39.5899 41.5 36H46C46 42.0751 41.0751 47 35 47Z"/>
</mask>
<path fill-rule="evenodd" clip-rule="evenodd" d="M35 30.5C38.5899 30.5 41.5 27.5899 41.5 24C41.5 20.4101 38.5899 17.5 35 17.5C31.4101 17.5 28.5 20.4101 28.5 24C28.5 27.5899 31.4101 30.5 35 30.5ZM46 17.5H43.875C45.211 19.321 46 21.5684 46 24C46 30.0751 41.0751 35 35 35C28.9249 35 24 30.0751 24 24C24 17.9249 28.9249 13 35 13H46V17.5ZM35 47C28.9249 47 24 42.0751 24 36H28.5C28.5 39.5899 31.4101 42.5 35 42.5C38.5899 42.5 41.5 39.5899 41.5 36H46C46 42.0751 41.0751 47 35 47Z" fill="#C0C0C0"/>
<path d="M43.875 17.5V16.5H41.9012L43.0688 18.0915L43.875 17.5ZM46 17.5V18.5H47V17.5H46ZM46 13H47V12H46V13ZM24 36V35H23V36H24ZM28.5 36H29.5V35H28.5V36ZM41.5 36V35H40.5V36H41.5ZM46 36H47V35H46V36ZM40.5 24C40.5 27.0376 38.0376 29.5 35 29.5V31.5C39.1421 31.5 42.5 28.1421 42.5 24H40.5ZM35 18.5C38.0376 18.5 40.5 20.9624 40.5 24H42.5C42.5 19.8579 39.1421 16.5 35 16.5V18.5ZM29.5 24C29.5 20.9624 31.9624 18.5 35 18.5V16.5C30.8579 16.5 27.5 19.8579 27.5 24H29.5ZM35 29.5C31.9624 29.5 29.5 27.0376 29.5 24H27.5C27.5 28.1421 30.8579 31.5 35 31.5V29.5ZM43.875 18.5H46V16.5H43.875V18.5ZM47 24C47 21.3485 46.1389 18.8952 44.6813 16.9085L43.0688 18.0915C44.2831 19.7468 45 21.7882 45 24H47ZM35 36C41.6274 36 47 30.6274 47 24H45C45 29.5228 40.5228 34 35 34V36ZM23 24C23 30.6274 28.3726 36 35 36V34C29.4772 34 25 29.5228 25 24H23ZM35 12C28.3726 12 23 17.3726 23 24H25C25 18.4772 29.4772 14 35 14V12ZM46 12H35V14H46V12ZM47 17.5V13H45V17.5H47ZM23 36C23 42.6274 28.3726 48 35 48V46C29.4772 46 25 41.5228 25 36H23ZM28.5 35H24V37H28.5V35ZM35 41.5C31.9624 41.5 29.5 39.0376 29.5 36H27.5C27.5 40.1421 30.8579 43.5 35 43.5V41.5ZM40.5 36C40.5 39.0376 38.0376 41.5 35 41.5V43.5C39.1421 43.5 42.5 40.1421 42.5 36H40.5ZM46 35H41.5V37H46V35ZM35 48C41.6274 48 47 42.6274 47 36H45C45 41.5228 40.5228 46 35 46V48Z" fill="#C0C0C0" mask="url(#path-2-inside-1_292_499)"/>
<path d="M15.8377 55.1818V61H15.1559L11.9854 56.4318H11.9286V61H11.2241V55.1818H11.9059L15.0877 59.7614H15.1445V55.1818H15.8377ZM18.9293 61.0909C18.5354 61.0909 18.1897 60.9972 17.8924 60.8097C17.5969 60.6222 17.3659 60.3598 17.1992 60.0227C17.0344 59.6856 16.9521 59.2917 16.9521 58.8409C16.9521 58.3864 17.0344 57.9896 17.1992 57.6506C17.3659 57.3116 17.5969 57.0483 17.8924 56.8608C18.1897 56.6733 18.5354 56.5795 18.9293 56.5795C19.3233 56.5795 19.668 56.6733 19.9634 56.8608C20.2608 57.0483 20.4918 57.3116 20.6566 57.6506C20.8233 57.9896 20.9066 58.3864 20.9066 58.8409C20.9066 59.2917 20.8233 59.6856 20.6566 60.0227C20.4918 60.3598 20.2608 60.6222 19.9634 60.8097C19.668 60.9972 19.3233 61.0909 18.9293 61.0909ZM18.9293 60.4886C19.2286 60.4886 19.4748 60.4119 19.668 60.2585C19.8612 60.1051 20.0041 59.9034 20.0969 59.6534C20.1897 59.4034 20.2362 59.1326 20.2362 58.8409C20.2362 58.5492 20.1897 58.2775 20.0969 58.0256C20.0041 57.7737 19.8612 57.5701 19.668 57.4148C19.4748 57.2595 19.2286 57.1818 18.9293 57.1818C18.6301 57.1818 18.3839 57.2595 18.1907 57.4148C17.9975 57.5701 17.8545 57.7737 17.7617 58.0256C17.6689 58.2775 17.6225 58.5492 17.6225 58.8409C17.6225 59.1326 17.6689 59.4034 17.7617 59.6534C17.8545 59.9034 17.9975 60.1051 18.1907 60.2585C18.3839 60.4119 18.6301 60.4886 18.9293 60.4886ZM23.8278 56.6364V57.2045H21.5664V56.6364H23.8278ZM22.2255 55.5909H22.896V59.75C22.896 59.9394 22.9234 60.0814 22.9783 60.1761C23.0352 60.2689 23.1071 60.3314 23.1942 60.3636C23.2833 60.3939 23.377 60.4091 23.4755 60.4091C23.5494 60.4091 23.61 60.4053 23.6573 60.3977C23.7047 60.3883 23.7425 60.3807 23.771 60.375L23.9073 60.9773C23.8619 60.9943 23.7984 61.0114 23.717 61.0284C23.6355 61.0473 23.5323 61.0568 23.4073 61.0568C23.2179 61.0568 23.0323 61.0161 22.8505 60.9347C22.6706 60.8532 22.521 60.7292 22.4016 60.5625C22.2842 60.3958 22.2255 60.1856 22.2255 59.9318V55.5909ZM28.3704 61.1023C28.0939 61.1023 27.8429 61.0502 27.6175 60.946C27.3922 60.84 27.2132 60.6875 27.0806 60.4886C26.948 60.2879 26.8817 60.0455 26.8817 59.7614C26.8817 59.5114 26.931 59.3087 27.0295 59.1534C27.128 58.9962 27.2596 58.8731 27.4244 58.7841C27.5891 58.6951 27.771 58.6288 27.9698 58.5852C28.1706 58.5398 28.3723 58.5038 28.5749 58.4773C28.8401 58.4432 29.055 58.4176 29.2198 58.4006C29.3865 58.3816 29.5077 58.3504 29.5835 58.3068C29.6611 58.2633 29.6999 58.1875 29.6999 58.0795V58.0568C29.6999 57.7765 29.6232 57.5587 29.4698 57.4034C29.3183 57.2481 29.0882 57.1705 28.7795 57.1705C28.4594 57.1705 28.2085 57.2405 28.0266 57.3807C27.8448 57.5208 27.717 57.6705 27.6431 57.8295L27.0067 57.6023C27.1204 57.3371 27.2719 57.1307 27.4613 56.983C27.6526 56.8333 27.8609 56.7292 28.0863 56.6705C28.3136 56.6098 28.5371 56.5795 28.7567 56.5795C28.8969 56.5795 29.0579 56.5966 29.2397 56.6307C29.4234 56.6629 29.6005 56.7301 29.771 56.8324C29.9433 56.9347 30.0863 57.089 30.1999 57.2955C30.3136 57.5019 30.3704 57.7784 30.3704 58.125V61H29.6999V60.4091H29.6658C29.6204 60.5038 29.5446 60.6051 29.4386 60.7131C29.3325 60.821 29.1914 60.9129 29.0153 60.9886C28.8391 61.0644 28.6242 61.1023 28.3704 61.1023ZM28.4727 60.5C28.7378 60.5 28.9613 60.4479 29.1431 60.3438C29.3268 60.2396 29.4651 60.1051 29.5579 59.9403C29.6526 59.7756 29.6999 59.6023 29.6999 59.4205V58.8068C29.6715 58.8409 29.609 58.8722 29.5124 58.9006C29.4177 58.9271 29.3079 58.9508 29.1829 58.9716C29.0598 58.9905 28.9395 59.0076 28.8221 59.0227C28.7066 59.036 28.6128 59.0473 28.5408 59.0568C28.3666 59.0795 28.2037 59.1165 28.0522 59.1676C27.9026 59.2169 27.7814 59.2917 27.6886 59.392C27.5977 59.4905 27.5522 59.625 27.5522 59.7955C27.5522 60.0284 27.6384 60.2045 27.8107 60.3239C27.985 60.4413 28.2056 60.5 28.4727 60.5ZM35.006 56.6364L33.3924 61H32.7106L31.0969 56.6364H31.8242L33.0288 60.1136H33.0742L34.2788 56.6364H35.006ZM37.0423 61.1023C36.7657 61.1023 36.5148 61.0502 36.2894 60.946C36.064 60.84 35.8851 60.6875 35.7525 60.4886C35.6199 60.2879 35.5536 60.0455 35.5536 59.7614C35.5536 59.5114 35.6029 59.3087 35.7013 59.1534C35.7998 58.9962 35.9315 58.8731 36.0962 58.7841C36.261 58.6951 36.4428 58.6288 36.6417 58.5852C36.8424 58.5398 37.0442 58.5038 37.2468 58.4773C37.512 58.4432 37.7269 58.4176 37.8917 58.4006C38.0584 58.3816 38.1796 58.3504 38.2553 58.3068C38.333 58.2633 38.3718 58.1875 38.3718 58.0795V58.0568C38.3718 57.7765 38.2951 57.5587 38.1417 57.4034C37.9902 57.2481 37.7601 57.1705 37.4513 57.1705C37.1313 57.1705 36.8803 57.2405 36.6985 57.3807C36.5167 57.5208 36.3888 57.6705 36.315 57.8295L35.6786 57.6023C35.7923 57.3371 35.9438 57.1307 36.1332 56.983C36.3245 56.8333 36.5328 56.7292 36.7582 56.6705C36.9854 56.6098 37.2089 56.5795 37.4286 56.5795C37.5688 56.5795 37.7298 56.5966 37.9116 56.6307C38.0953 56.6629 38.2724 56.7301 38.4428 56.8324C38.6152 56.9347 38.7582 57.089 38.8718 57.2955C38.9854 57.5019 39.0423 57.7784 39.0423 58.125V61H38.3718V60.4091H38.3377C38.2923 60.5038 38.2165 60.6051 38.1104 60.7131C38.0044 60.821 37.8633 60.9129 37.6871 60.9886C37.511 61.0644 37.296 61.1023 37.0423 61.1023ZM37.1445 60.5C37.4097 60.5 37.6332 60.4479 37.815 60.3438C37.9987 60.2396 38.137 60.1051 38.2298 59.9403C38.3245 59.7756 38.3718 59.6023 38.3718 59.4205V58.8068C38.3434 58.8409 38.2809 58.8722 38.1843 58.9006C38.0896 58.9271 37.9798 58.9508 37.8548 58.9716C37.7317 58.9905 37.6114 59.0076 37.494 59.0227C37.3784 59.036 37.2847 59.0473 37.2127 59.0568C37.0385 59.0795 36.8756 59.1165 36.7241 59.1676C36.5745 59.2169 36.4532 59.2917 36.3604 59.392C36.2695 59.4905 36.2241 59.625 36.2241 59.7955C36.2241 60.0284 36.3103 60.2045 36.4826 60.3239C36.6568 60.4413 36.8775 60.5 37.1445 60.5ZM40.266 61V56.6364H40.9364V61H40.266ZM40.6069 55.9091C40.4762 55.9091 40.3635 55.8646 40.2688 55.7756C40.176 55.6866 40.1296 55.5795 40.1296 55.4545C40.1296 55.3295 40.176 55.2225 40.2688 55.1335C40.3635 55.0445 40.4762 55 40.6069 55C40.7376 55 40.8493 55.0445 40.9421 55.1335C41.0368 55.2225 41.0842 55.3295 41.0842 55.4545C41.0842 55.5795 41.0368 55.6866 40.9421 55.7756C40.8493 55.8646 40.7376 55.9091 40.6069 55.9091ZM42.8349 55.1818V61H42.1644V55.1818H42.8349ZM45.3469 61.1023C45.0704 61.1023 44.8195 61.0502 44.5941 60.946C44.3687 60.84 44.1897 60.6875 44.0572 60.4886C43.9246 60.2879 43.8583 60.0455 43.8583 59.7614C43.8583 59.5114 43.9076 59.3087 44.006 59.1534C44.1045 58.9962 44.2362 58.8731 44.4009 58.7841C44.5657 58.6951 44.7475 58.6288 44.9464 58.5852C45.1471 58.5398 45.3488 58.5038 45.5515 58.4773C45.8166 58.4432 46.0316 58.4176 46.1964 58.4006C46.363 58.3816 46.4843 58.3504 46.56 58.3068C46.6377 58.2633 46.6765 58.1875 46.6765 58.0795V58.0568C46.6765 57.7765 46.5998 57.5587 46.4464 57.4034C46.2949 57.2481 46.0647 57.1705 45.756 57.1705C45.436 57.1705 45.185 57.2405 45.0032 57.3807C44.8214 57.5208 44.6935 57.6705 44.6197 57.8295L43.9833 57.6023C44.0969 57.3371 44.2485 57.1307 44.4379 56.983C44.6291 56.8333 44.8375 56.7292 45.0629 56.6705C45.2901 56.6098 45.5136 56.5795 45.7333 56.5795C45.8735 56.5795 46.0344 56.5966 46.2163 56.6307C46.4 56.6629 46.5771 56.7301 46.7475 56.8324C46.9199 56.9347 47.0629 57.089 47.1765 57.2955C47.2901 57.5019 47.3469 57.7784 47.3469 58.125V61H46.6765V60.4091H46.6424C46.5969 60.5038 46.5212 60.6051 46.4151 60.7131C46.3091 60.821 46.168 60.9129 45.9918 60.9886C45.8157 61.0644 45.6007 61.1023 45.3469 61.1023ZM45.4492 60.5C45.7144 60.5 45.9379 60.4479 46.1197 60.3438C46.3034 60.2396 46.4416 60.1051 46.5344 59.9403C46.6291 59.7756 46.6765 59.6023 46.6765 59.4205V58.8068C46.6481 58.8409 46.5856 58.8722 46.489 58.9006C46.3943 58.9271 46.2844 58.9508 46.1594 58.9716C46.0363 58.9905 45.9161 59.0076 45.7987 59.0227C45.6831 59.036 45.5894 59.0473 45.5174 59.0568C45.3432 59.0795 45.1803 59.1165 45.0288 59.1676C44.8791 59.2169 44.7579 59.2917 44.6651 59.392C44.5742 59.4905 44.5288 59.625 44.5288 59.7955C44.5288 60.0284 44.6149 60.2045 44.7873 60.3239C44.9615 60.4413 45.1822 60.5 45.4492 60.5ZM48.6616 61V55.1818H49.332V57.3295H49.3888C49.4381 57.2538 49.5063 57.1572 49.5934 57.0398C49.6824 56.9205 49.8093 56.8144 49.9741 56.7216C50.1407 56.6269 50.3661 56.5795 50.6502 56.5795C51.0176 56.5795 51.3415 56.6714 51.6218 56.8551C51.9021 57.0388 52.1209 57.2992 52.2781 57.6364C52.4353 57.9735 52.5138 58.3712 52.5138 58.8295C52.5138 59.2917 52.4353 59.6922 52.2781 60.0312C52.1209 60.3684 51.9031 60.6297 51.6246 60.8153C51.3462 60.9991 51.0252 61.0909 50.6616 61.0909C50.3813 61.0909 50.1568 61.0445 49.9883 60.9517C49.8197 60.857 49.69 60.75 49.5991 60.6307C49.5082 60.5095 49.4381 60.4091 49.3888 60.3295H49.3093V61H48.6616ZM49.3207 58.8182C49.3207 59.1477 49.369 59.4384 49.4656 59.6903C49.5621 59.9403 49.7032 60.1364 49.8888 60.2784C50.0745 60.4186 50.3017 60.4886 50.5707 60.4886C50.851 60.4886 51.0849 60.4148 51.2724 60.267C51.4618 60.1174 51.6038 59.9167 51.6985 59.6648C51.7951 59.411 51.8434 59.1288 51.8434 58.8182C51.8434 58.5114 51.796 58.2348 51.7013 57.9886C51.6085 57.7405 51.4674 57.5445 51.2781 57.4006C51.0906 57.2547 50.8548 57.1818 50.5707 57.1818C50.2979 57.1818 50.0688 57.2509 49.8832 57.3892C49.6976 57.5256 49.5574 57.7169 49.4627 57.9631C49.368 58.2074 49.3207 58.4924 49.3207 58.8182ZM54.2099 55.1818V61H53.5394V55.1818H54.2099ZM57.2674 61.0909C56.8469 61.0909 56.4843 60.9981 56.1793 60.8125C55.8763 60.625 55.6424 60.3636 55.4776 60.0284C55.3147 59.6913 55.2333 59.2992 55.2333 58.8523C55.2333 58.4053 55.3147 58.0114 55.4776 57.6705C55.6424 57.3277 55.8716 57.0606 56.1651 56.8693C56.4606 56.6761 56.8053 56.5795 57.1992 56.5795C57.4265 56.5795 57.6509 56.6174 57.8725 56.6932C58.0941 56.7689 58.2958 56.892 58.4776 57.0625C58.6594 57.2311 58.8043 57.4545 58.9123 57.733C59.0202 58.0114 59.0742 58.3542 59.0742 58.7614V59.0455H55.7106V58.4659H58.3924C58.3924 58.2197 58.3432 58 58.2447 57.8068C58.1481 57.6136 58.0098 57.4612 57.8299 57.3494C57.6519 57.2377 57.4416 57.1818 57.1992 57.1818C56.9322 57.1818 56.7011 57.2481 56.506 57.3807C56.3129 57.5114 56.1642 57.6818 56.06 57.892C55.9558 58.1023 55.9038 58.3277 55.9038 58.5682V58.9545C55.9038 59.2841 55.9606 59.5634 56.0742 59.7926C56.1897 60.0199 56.3498 60.1932 56.5543 60.3125C56.7589 60.4299 56.9966 60.4886 57.2674 60.4886C57.4435 60.4886 57.6026 60.464 57.7447 60.4148C57.8886 60.3636 58.0127 60.2879 58.1168 60.1875C58.221 60.0852 58.3015 59.9583 58.3583 59.8068L59.006 59.9886C58.9379 60.2083 58.8233 60.4015 58.6623 60.5682C58.5013 60.733 58.3024 60.8617 58.0657 60.9545C57.829 61.0455 57.5629 61.0909 57.2674 61.0909Z" fill="#C0C0C0"/>
</svg>
