<?xml version="1.0" standalone="no"?>
<!DOCTYPE svg PUBLIC "-//W3C//DTD SVG 20010904//EN"
 "http://www.w3.org/TR/2001/REC-SVG-20010904/DTD/svg10.dtd">
<svg version="1.0" xmlns="http://www.w3.org/2000/svg"
 width="260.000000pt" height="260.000000pt" viewBox="0 0 260.000000 260.000000"
 preserveAspectRatio="xMidYMid meet">
<metadata>
Created by potrace 1.14, written by Peter Selinger 2001-2017
</metadata>
<g transform="translate(0.000000,260.000000) scale(0.100000,-0.100000)"
fill="#000000" stroke="none">
<path d="M0 1300 l0 -1300 1300 0 1300 0 0 1300 0 1300 -1300 0 -1300 0 0
-1300z m1720 570 l0 -90 -40 0 -40 0 26 -52 c71 -140 71 -279 0 -412 -73 -140
-227 -236 -378 -236 -203 0 -381 137 -434 335 -60 224 84 466 316 531 30 8
128 13 298 13 l252 1 0 -90z m-696 -871 c13 -80 68 -154 146 -195 49 -26 171
-26 220 0 78 41 133 115 146 195 l7 41 88 0 c101 0 98 4 78 -92 -40 -193 -228
-347 -421 -348 -161 0 -325 97 -395 233 -29 58 -53 138 -53 180 l0 27 89 0 88
0 7 -41z"/>
<path d="M1210 1771 c-46 -15 -85 -39 -116 -73 -54 -57 -69 -95 -69 -178 0
-83 15 -121 69 -178 53 -57 101 -77 186 -77 85 0 133 20 186 77 54 57 69 95
69 178 0 54 -6 85 -19 110 -26 49 -74 98 -121 122 -43 22 -144 33 -185 19z"/>
</g>
</svg>
